<svg width="337" height="53" viewBox="0 0 337 53" fill="none" xmlns="http://www.w3.org/2000/svg">
<path d="M74.8705 18.1352L74.6398 17.0828C74.4323 16.1385 73.962 15.2463 72.8888 14.905C72.545 14.7958 72.1544 14.7489 71.8908 14.5229C71.6271 14.2969 71.5491 13.9459 71.4882 13.6204C71.3754 13.0231 71.2691 12.4252 71.1533 11.8288C71.0534 11.3162 70.9741 10.7402 70.7139 10.2699C70.3752 9.6383 69.6721 9.26897 68.9728 9.02461C68.6144 8.90379 68.2487 8.80159 67.8776 8.71853C66.1307 8.30223 64.294 8.14919 62.4969 8.06198C60.3398 7.95447 58.177 7.98685 56.0251 8.15891C54.4234 8.2905 52.7364 8.4497 51.2143 8.95011C50.658 9.13328 50.0848 9.35312 49.6617 9.74135C49.1427 10.2183 48.9733 10.956 49.3522 11.5508C49.6216 11.9732 50.078 12.2716 50.562 12.4691C51.1924 12.7234 51.8508 12.917 52.5263 13.0465C54.407 13.422 56.3549 13.5694 58.2763 13.6322C60.4059 13.7098 62.5389 13.6469 64.6583 13.4439C65.1824 13.3919 65.7056 13.3295 66.2278 13.2567C66.8429 13.1715 67.2376 12.4451 67.0564 11.939C66.8395 11.334 66.2567 11.0993 65.5975 11.1906C65.5004 11.2044 65.4038 11.2172 65.3067 11.23L65.2367 11.2391C65.0134 11.2646 64.7901 11.2884 64.5668 11.3105C64.1056 11.3554 63.6432 11.3922 63.1797 11.4207C62.1417 11.486 61.1008 11.5161 60.0604 11.5176C59.0382 11.5176 58.0154 11.4916 56.9954 11.4309C56.53 11.4034 56.0658 11.3684 55.6026 11.3258C55.392 11.3059 55.1819 11.285 54.9718 11.2616L54.7718 11.2386L54.7284 11.233L54.5211 11.2059C54.0975 11.1483 53.6739 11.082 53.2549 11.0019C53.2126 10.9934 53.1747 10.9722 53.1476 10.9417C53.1205 10.9112 53.1057 10.8732 53.1057 10.8341C53.1057 10.7949 53.1205 10.757 53.1476 10.7265C53.1747 10.696 53.2126 10.6747 53.2549 10.6662H53.2627C53.6259 10.5963 53.9919 10.5367 54.359 10.4846C54.4814 10.4673 54.6041 10.4503 54.7272 10.4336H54.7306C54.9605 10.4198 55.1915 10.3826 55.4202 10.3581C57.4103 10.1711 59.4122 10.1074 61.412 10.1673C62.3828 10.1928 63.3531 10.2444 64.3194 10.3331C64.5273 10.3525 64.734 10.3729 64.9407 10.3958C65.0198 10.4045 65.0994 10.4147 65.179 10.4234L65.3394 10.4443C65.8071 10.5072 66.2723 10.5836 66.735 10.6734C67.4207 10.808 68.301 10.8519 68.6062 11.5304C68.7031 11.7457 68.7473 11.9849 68.8009 12.2109L68.8695 12.4991C68.8712 12.5043 68.8725 12.5096 68.8733 12.515C69.035 13.1952 69.1966 13.8753 69.3582 14.5555C69.3702 14.6058 69.3707 14.6577 69.3591 14.708C69.3479 14.7584 69.3252 14.8061 69.2926 14.8482C69.2601 14.8902 69.218 14.9258 69.1696 14.9526C69.1211 14.9794 69.0667 14.9969 69.0105 15.0039H69.0058L68.9072 15.0162L68.8095 15.0279C68.4999 15.0643 68.1899 15.0983 67.8798 15.13C67.2687 15.1928 66.6567 15.2473 66.0437 15.2932C64.8257 15.3847 63.6052 15.4447 62.3822 15.4733C61.7591 15.4882 61.1362 15.4952 60.5134 15.4942C58.0346 15.4924 55.5579 15.3623 53.0956 15.1044C52.829 15.0759 52.5624 15.0453 52.2959 15.0141C52.5026 15.0381 52.1456 14.9958 52.0733 14.9866C51.9039 14.9652 51.7345 14.9429 51.565 14.9198C50.9963 14.8427 50.431 14.7479 49.8634 14.6647C49.1771 14.5627 48.5209 14.6137 47.9002 14.9198C47.3907 15.1716 46.9783 15.5578 46.7181 16.0268C46.4504 16.5267 46.3708 17.071 46.251 17.6082C46.1313 18.1454 45.9449 18.7234 46.0155 19.2748C46.1674 20.465 47.0886 21.4322 48.4136 21.6485C49.66 21.8526 50.9133 22.0179 52.1699 22.1586C57.1062 22.7047 62.0933 22.7701 67.045 22.3535C67.4483 22.3195 67.851 22.2824 68.253 22.2423C68.3786 22.2299 68.5059 22.2429 68.6251 22.2806C68.7443 22.3182 68.8528 22.3795 68.9424 22.4599C69.032 22.5403 69.101 22.6378 69.1434 22.7453C69.1859 22.8528 69.2013 22.9675 69.1885 23.081L69.0628 24.1819C68.8103 26.4064 68.5578 28.6308 68.3053 30.855C68.0416 33.1908 67.7763 35.5264 67.5093 37.8616C67.434 38.5195 67.3587 39.1771 67.2834 39.8347C67.2111 40.4818 67.2009 41.1498 67.0648 41.7895C66.8502 42.7952 66.0962 43.4133 64.996 43.639C63.9881 43.8462 62.9584 43.955 61.9248 43.9636C60.7789 43.969 59.6335 43.9233 58.4875 43.9287C57.2642 43.9349 55.7659 43.8331 54.8215 43.0105C53.9919 42.2883 53.8772 41.1571 53.7643 40.1793C53.6137 38.8847 53.4644 37.5901 53.3164 36.2955L52.4862 29.0981L51.9491 24.441C51.9401 24.364 51.931 24.288 51.9225 24.2104C51.8582 23.6549 51.4227 23.1111 50.7365 23.1391C50.1491 23.1626 49.4816 23.6136 49.5505 24.2104L49.9486 27.663L50.7721 34.805C51.0067 36.8338 51.2407 38.8626 51.4741 40.8919C51.5193 41.2807 51.5617 41.6706 51.6091 42.059C51.8672 44.1835 53.6632 45.3282 55.8873 45.6504C57.1863 45.8394 58.5169 45.8782 59.8351 45.8975C61.5249 45.9219 63.2317 45.9808 64.8938 45.7043C67.3568 45.2961 69.2047 43.8106 69.4684 41.506C69.5439 40.8411 69.6193 40.1754 69.6944 39.5101C69.9447 37.309 70.1947 35.1077 70.4446 32.9063L71.2609 25.7133L71.6357 22.4168C71.6541 22.2533 71.7308 22.0996 71.8535 21.9784C71.9765 21.8573 72.1394 21.775 72.3178 21.7439C73.0222 21.6199 73.6953 21.4083 74.1965 20.9241C74.9939 20.1533 75.1526 19.1483 74.8705 18.1352ZM48.3774 18.8463C48.3881 18.8417 48.3684 18.9249 48.3599 18.9637C48.3582 18.905 48.3616 18.853 48.3774 18.8463ZM48.4458 19.3238C48.4514 19.3203 48.4683 19.3407 48.4858 19.3651C48.4593 19.3427 48.4424 19.3259 48.4452 19.3238H48.4458ZM48.513 19.4039C48.5502 19.4646 48.5372 19.4412 48.513 19.4039ZM48.6479 19.5029H48.6513C48.6513 19.5064 48.6575 19.51 48.6598 19.5136C48.656 19.5097 48.6519 19.5061 48.6474 19.5029H48.6479ZM72.2852 19.3549C72.0322 19.5722 71.6507 19.6733 71.2742 19.7238C67.0496 20.29 62.7635 20.5767 58.4926 20.4502C55.436 20.3558 52.4116 20.0492 49.3855 19.663C49.089 19.6253 48.7677 19.5763 48.5638 19.3789C48.1797 19.0065 48.3684 18.2566 48.4683 17.8067C48.5598 17.3945 48.7349 16.845 49.2777 16.7864C50.1248 16.6966 51.1087 17.0195 51.9468 17.1343C52.9559 17.2734 53.9687 17.3848 54.9853 17.4684C59.324 17.8255 63.7354 17.7699 68.0549 17.2475C68.842 17.152 69.6266 17.0409 70.4082 16.9144C71.1049 16.8017 71.8766 16.59 72.2976 17.2414C72.5862 17.6852 72.6243 18.279 72.5797 18.7805C72.566 18.999 72.4605 19.2045 72.2843 19.3549H72.2852Z" fill="#0D0C22"/>
<path d="M61.5104 25.5169C60.0024 26.1 58.2911 26.7612 56.0732 26.7612C55.1454 26.7595 54.2221 26.6445 53.3284 26.4194L54.8623 40.6448C54.9166 41.2392 55.2165 41.7938 55.7024 42.1977C56.1883 42.602 56.8246 42.8262 57.4852 42.8258C57.4852 42.8258 59.6601 42.928 60.3859 42.928C61.1669 42.928 63.5091 42.8258 63.5091 42.8258C64.1695 42.8258 64.8057 42.6016 65.2915 42.1977C65.7773 41.7934 66.0771 41.2392 66.1314 40.6448L67.7743 24.9252C67.0401 24.6987 66.2991 24.5482 65.4638 24.5482C64.0191 24.5477 62.8551 24.9971 61.5104 25.5169Z" fill="white"/>
<path fill-rule="evenodd" clip-rule="evenodd" d="M104.686 28.4241C104.416 28.9019 104.044 29.3181 103.57 29.6712C103.097 30.0245 102.545 30.3122 101.913 30.5337C101.282 30.7558 100.647 30.9048 100.008 30.9807C99.3693 31.0569 98.749 31.0503 98.1485 30.9598C97.5471 30.8699 97.0354 30.6864 96.615 30.409L97.0891 25.8569C97.5245 25.7185 98.0728 25.5763 98.7344 25.4308C99.3956 25.2855 100.076 25.1813 100.775 25.1191C101.474 25.0566 102.135 25.064 102.759 25.1399C103.382 25.2161 103.875 25.3996 104.235 25.6908C104.431 25.8569 104.597 26.0371 104.732 26.2311C104.867 26.4252 104.949 26.6262 104.98 26.834C105.055 27.4159 104.957 27.946 104.686 28.4241ZM97.8099 18.7274C98.1255 18.5473 98.5054 18.3878 98.9484 18.2491C99.3918 18.1109 99.8466 18.0136 100.313 17.9582C100.778 17.9031 101.233 17.8957 101.677 17.9374C102.12 17.979 102.511 18.0932 102.849 18.2802C103.187 18.4674 103.439 18.7377 103.604 19.0908C103.769 19.4445 103.815 19.8914 103.739 20.4317C103.68 20.8613 103.495 21.2252 103.187 21.523C102.879 21.8212 102.503 22.0704 102.06 22.2714C101.617 22.4726 101.147 22.6318 100.651 22.7492C100.155 22.8673 99.6773 22.9541 99.2193 23.0092C98.7608 23.0648 98.3625 23.0997 98.0244 23.1131C97.6863 23.1271 97.4643 23.1339 97.359 23.1339L97.8099 18.7274ZM107.121 25.4828C106.881 24.998 106.558 24.5719 106.152 24.2043C105.746 23.8372 105.265 23.5706 104.709 23.4042C104.949 23.2241 105.186 22.9401 105.419 22.5519C105.652 22.1643 105.851 21.7413 106.017 21.284C106.182 20.8265 106.295 20.3661 106.355 19.9017C106.415 19.4376 106.392 19.0391 106.288 18.7063C106.031 17.8752 105.63 17.2238 105.081 16.7526C104.532 16.2816 103.894 15.9559 103.165 15.7755C102.435 15.596 101.632 15.5575 100.752 15.6614C99.8729 15.7652 98.9747 15.9696 98.0582 16.2744C98.0582 16.2053 98.0658 16.1326 98.0808 16.0564C98.0954 15.9804 98.1029 15.9005 98.1029 15.8172C98.1029 15.6094 97.9905 15.4295 97.7648 15.2768C97.5395 15.1244 97.2804 15.0345 96.9875 15.0066C96.694 14.9791 96.4086 15.0377 96.1302 15.1833C95.8523 15.3288 95.6604 15.596 95.5556 15.9833C95.4352 17.2307 95.3148 18.5265 95.1949 19.8703C95.0745 21.2147 94.9466 22.5728 94.8116 23.9448C94.6762 25.3166 94.5408 26.6781 94.4058 28.0291C94.2704 29.3803 94.135 30.6793 94 31.9263C94.0451 32.3005 94.1575 32.5917 94.3381 32.7995C94.5182 33.0075 94.7289 33.1323 94.9692 33.1737C95.2095 33.2153 95.4615 33.1768 95.7244 33.0592C95.9873 32.9418 96.2167 32.737 96.4124 32.4461C97.0133 32.751 97.69 32.9485 98.4415 33.0387C99.1929 33.1286 99.9552 33.1286 100.73 33.0387C101.504 32.9485 102.266 32.7789 103.018 32.5292C103.769 32.2799 104.454 31.968 105.07 31.5941C105.686 31.2199 106.204 30.7935 106.626 30.3157C107.046 29.8373 107.324 29.3212 107.459 28.7672C107.595 28.1989 107.632 27.6309 107.572 27.0626C107.512 26.4946 107.362 25.9682 107.121 25.4828Z" fill="#0D0C23"/>
<path fill-rule="evenodd" clip-rule="evenodd" d="M129.117 36.4574C129.035 36.9147 128.918 37.3964 128.768 37.9024C128.617 38.4076 128.441 38.8688 128.238 39.2848C128.035 39.7003 127.81 40.0358 127.562 40.2925C127.314 40.5488 127.047 40.6563 126.761 40.6149C126.536 40.5866 126.393 40.4552 126.333 40.2198C126.273 39.984 126.273 39.6929 126.333 39.347C126.393 39.0002 126.509 38.6086 126.682 38.1722C126.855 37.7357 127.066 37.3024 127.314 36.8733C127.562 36.4434 127.844 36.0314 128.159 35.6363C128.475 35.2417 128.805 34.9124 129.151 34.6492C129.226 34.7323 129.26 34.9401 129.253 35.2728C129.245 35.6054 129.2 36.0005 129.117 36.4574ZM136.76 27.4364C136.557 27.2286 136.31 27.111 136.016 27.083C135.723 27.0553 135.426 27.2077 135.126 27.5403C134.93 27.8728 134.682 28.1916 134.382 28.4965C134.081 28.8016 133.769 29.0785 133.446 29.3279C133.123 29.5771 132.815 29.7923 132.522 29.9722C132.229 30.1525 131.999 30.2841 131.834 30.3672C131.774 29.9239 131.74 29.4458 131.733 28.9329C131.725 28.4202 131.736 27.9007 131.766 27.3741C131.811 26.6258 131.905 25.8707 132.048 25.1084C132.191 24.3463 132.398 23.5979 132.668 22.8632C132.668 22.4756 132.57 22.1602 132.375 21.9176C132.179 21.6752 131.943 21.5226 131.665 21.4603C131.387 21.3981 131.102 21.4326 130.808 21.5642C130.515 21.696 130.264 21.9352 130.053 22.2812C129.873 22.7388 129.666 23.2514 129.433 23.8194C129.2 24.3877 128.937 24.9663 128.644 25.5551C128.351 26.1445 128.024 26.7159 127.663 27.27C127.302 27.8245 126.908 28.3166 126.479 28.7459C126.051 29.1755 125.585 29.5117 125.082 29.7541C124.578 29.9967 124.034 30.104 123.447 30.0763C123.176 30.007 122.981 29.82 122.861 29.5149C122.741 29.2103 122.669 28.829 122.647 28.3717C122.624 27.9144 122.647 27.4121 122.714 26.8646C122.782 26.3175 122.872 25.7734 122.985 25.2331C123.097 24.6925 123.222 24.1799 123.357 23.6949C123.492 23.21 123.619 22.801 123.74 22.4685C123.92 22.0668 123.92 21.7303 123.74 21.4603C123.56 21.19 123.312 21.0102 122.996 20.9197C122.681 20.8298 122.35 20.8335 122.004 20.9303C121.659 21.0273 121.41 21.242 121.26 21.5745C121.004 22.143 120.771 22.7801 120.561 23.4869C120.351 24.1936 120.181 24.9248 120.054 25.6799C119.926 26.4353 119.854 27.1837 119.84 27.925C119.839 27.9733 119.841 28.0191 119.841 28.0671C119.513 28.8727 119.201 29.4816 118.904 29.8891C118.521 30.4159 118.088 30.6446 117.608 30.575C117.397 30.4919 117.258 30.2981 117.191 29.993C117.123 29.6884 117.1 29.3142 117.123 28.8704C117.146 28.4274 117.202 27.925 117.292 27.3636C117.383 26.8024 117.494 26.2204 117.63 25.6176C117.765 25.0145 117.908 24.4088 118.058 23.7988C118.209 23.1892 118.344 22.614 118.465 22.0734C118.45 21.5885 118.295 21.218 118.002 20.9614C117.709 20.7053 117.299 20.6049 116.774 20.66C116.413 20.7987 116.146 20.9791 115.973 21.2006C115.8 21.4221 115.661 21.7064 115.556 22.0526C115.495 22.233 115.406 22.5932 115.285 23.1338C115.165 23.6738 115.011 24.2944 114.823 24.9939C114.635 25.6941 114.413 26.4248 114.158 27.1869C113.903 27.949 113.617 28.6389 113.302 29.2551C112.986 29.8717 112.64 30.3672 112.264 30.7414C111.889 31.1153 111.483 31.268 111.047 31.1986C110.806 31.157 110.652 30.9283 110.585 30.5127C110.517 30.0969 110.506 29.5845 110.551 28.9746C110.596 28.3649 110.686 27.6961 110.821 26.9688C110.957 26.2412 111.095 25.5519 111.238 24.9003C111.381 24.2492 111.513 23.6738 111.633 23.1752C111.753 22.6762 111.836 22.3437 111.881 22.1776C111.881 21.7757 111.783 21.4537 111.588 21.2108C111.393 20.9687 111.156 20.8161 110.878 20.7536C110.599 20.6914 110.314 20.7259 110.021 20.8575C109.728 20.9893 109.476 21.2285 109.266 21.5745C109.19 21.9487 109.093 22.382 108.973 22.8738C108.852 23.3656 108.736 23.8714 108.623 24.3911C108.51 24.9109 108.405 25.4201 108.308 25.919C108.21 26.4179 108.138 26.8544 108.093 27.2286C108.063 27.5194 108.029 27.8765 107.992 28.299C107.954 28.7219 107.935 29.1686 107.935 29.6396C107.935 30.1111 107.973 30.5787 108.049 31.0428C108.123 31.5072 108.259 31.9333 108.454 32.321C108.649 32.7091 108.924 33.0277 109.277 33.2771C109.63 33.5266 110.077 33.665 110.619 33.693C111.174 33.7204 111.659 33.6827 112.073 33.5785C112.486 33.4746 112.862 33.3117 113.2 33.0899C113.538 32.8686 113.846 32.6052 114.125 32.3001C114.402 31.9955 114.677 31.663 114.947 31.3025C115.203 31.8294 115.534 32.2379 115.939 32.529C116.345 32.8199 116.774 32.9934 117.225 33.0485C117.675 33.1036 118.134 33.0454 118.6 32.8718C119.066 32.6988 119.486 32.4043 119.862 31.9884C120.11 31.7334 120.343 31.4436 120.562 31.1232C120.655 31.2732 120.754 31.418 120.866 31.5517C121.234 31.9955 121.734 32.3001 122.365 32.4665C123.042 32.6329 123.702 32.6609 124.349 32.5498C124.995 32.4391 125.611 32.2379 126.197 31.947C126.784 31.6559 127.328 31.3062 127.832 30.8972C128.336 30.4885 128.775 30.0626 129.151 29.6188C129.136 29.9376 129.128 30.2393 129.128 30.523C129.128 30.8073 129.121 31.1153 129.106 31.4481C128.354 31.9333 127.644 32.5153 126.976 33.1941C126.306 33.8729 125.72 34.597 125.217 35.3661C124.713 36.1349 124.319 36.9147 124.034 37.7044C123.748 38.4946 123.609 39.2325 123.616 39.9187C123.624 40.6045 123.8 41.2036 124.146 41.7162C124.491 42.2292 125.055 42.596 125.837 42.8179C126.649 43.0538 127.362 43.0603 127.979 42.8388C128.595 42.6169 129.132 42.2497 129.591 41.7371C130.049 41.2245 130.425 40.6045 130.718 39.877C131.011 39.1494 131.244 38.3906 131.417 37.6009C131.59 36.8111 131.699 36.0344 131.744 35.2728C131.789 34.5105 131.789 33.8312 131.744 33.2355C133.037 32.7368 134.096 32.1063 134.923 31.3439C135.749 30.5824 136.433 29.7783 136.974 28.9329C137.14 28.7251 137.196 28.4756 137.144 28.1847C137.091 27.8936 136.963 27.6442 136.76 27.4364Z" fill="#0D0C23"/>
<path fill-rule="evenodd" clip-rule="evenodd" d="M165.201 26.1066C165.247 25.788 165.314 25.4518 165.404 25.0984C165.494 24.7451 165.607 24.402 165.743 24.0695C165.878 23.737 166.036 23.4495 166.216 23.2069C166.396 22.9645 166.588 22.7913 166.791 22.6871C166.994 22.5835 167.2 22.5938 167.411 22.7183C167.636 22.8433 167.775 23.1064 167.828 23.508C167.88 23.9104 167.828 24.3398 167.67 24.797C167.512 25.2546 167.231 25.6838 166.825 26.0858C166.419 26.4879 165.87 26.7508 165.179 26.8755C165.149 26.682 165.156 26.4254 165.201 26.1066ZM173.013 26.9586C172.765 26.8898 172.529 26.8827 172.303 26.938C172.078 26.9934 171.935 27.139 171.875 27.3748C171.754 27.818 171.562 28.2718 171.3 28.736C171.037 29.2004 170.714 29.6402 170.331 30.0561C169.948 30.4717 169.515 30.839 169.034 31.1576C168.553 31.4764 168.05 31.705 167.524 31.8435C166.997 31.9961 166.561 32.0133 166.216 31.8954C165.87 31.7781 165.596 31.5769 165.393 31.2929C165.19 31.0089 165.043 30.6658 164.954 30.2639C164.863 29.862 164.811 29.4464 164.796 29.0165C165.652 29.0722 166.415 28.9303 167.084 28.5904C167.753 28.2513 168.32 27.8006 168.786 27.2394C169.252 26.6783 169.605 26.0478 169.846 25.3479C170.086 24.6483 170.221 23.9519 170.251 23.2588C170.266 22.6075 170.162 22.0569 169.936 21.6065C169.711 21.1563 169.406 20.8059 169.023 20.5567C168.64 20.3072 168.2 20.1616 167.704 20.1203C167.208 20.0786 166.704 20.1411 166.193 20.3072C165.577 20.5013 165.055 20.8164 164.626 21.2531C164.198 21.6896 163.841 22.1956 163.556 22.7705C163.27 23.3456 163.044 23.9656 162.879 24.6306C162.714 25.2959 162.593 25.9507 162.519 26.5952C162.451 27.1735 162.415 27.7265 162.402 28.2603C162.37 28.328 162.339 28.3932 162.304 28.4657C162.071 28.958 161.8 29.4395 161.493 29.9105C161.185 30.3818 160.842 30.7768 160.467 31.0953C160.091 31.4142 159.701 31.5249 159.295 31.4279C159.054 31.3728 158.923 31.1159 158.9 30.6589C158.878 30.2014 158.903 29.6334 158.979 28.9543C159.054 28.2755 159.14 27.5406 159.238 26.7508C159.336 25.961 159.385 25.206 159.385 24.4853C159.385 23.8617 159.257 23.2625 159.001 22.6871C158.745 22.1125 158.396 21.6342 157.953 21.2531C157.51 20.8718 156.995 20.6189 156.409 20.4945C155.822 20.3694 155.191 20.4528 154.515 20.7437C153.838 21.0348 153.301 21.4435 152.903 21.9701C152.504 22.497 152.14 23.051 151.809 23.633C151.689 23.1895 151.513 22.7776 151.279 22.3963C151.047 22.0152 150.761 21.6827 150.423 21.3984C150.084 21.1147 149.704 20.8929 149.285 20.7333C148.864 20.5743 148.42 20.4945 147.954 20.4945C147.503 20.4945 147.086 20.5743 146.703 20.7333C146.32 20.8929 145.97 21.097 145.654 21.3465C145.339 21.5962 145.053 21.8765 144.797 22.1885C144.542 22.5002 144.316 22.8087 144.121 23.1133C144.091 22.7531 144.057 22.438 144.02 22.1674C143.982 21.8974 143.914 21.6687 143.817 21.4817C143.719 21.2945 143.58 21.1527 143.4 21.0556C143.219 20.9588 142.964 20.91 142.633 20.91C142.468 20.91 142.302 20.9412 142.137 21.0034C141.972 21.0659 141.825 21.1527 141.698 21.2634C141.57 21.3747 141.472 21.5094 141.405 21.6687C141.337 21.828 141.319 22.0118 141.348 22.2196C141.363 22.3723 141.405 22.5556 141.472 22.7705C141.54 22.9854 141.604 23.2662 141.664 23.6122C141.724 23.9587 141.773 24.378 141.81 24.8698C141.848 25.3619 141.859 25.9647 141.844 26.6783C141.829 27.3922 141.773 28.2268 141.675 29.1829C141.577 30.1392 141.423 31.2477 141.213 32.5085C141.183 32.7996 141.303 33.0354 141.574 33.2155C141.844 33.3954 142.152 33.4993 142.498 33.5272C142.844 33.5549 143.171 33.4993 143.479 33.3611C143.787 33.2221 143.964 32.9798 144.008 32.6335C144.054 31.9822 144.14 31.2894 144.268 30.5547C144.395 29.8206 144.553 29.093 144.741 28.3723C144.929 27.6519 145.143 26.966 145.384 26.3144C145.624 25.663 145.891 25.0882 146.184 24.5892C146.478 24.0903 146.782 23.6921 147.097 23.3941C147.413 23.0962 147.744 22.9471 148.09 22.9471C148.51 22.9471 148.837 23.1236 149.07 23.4769C149.303 23.8306 149.468 24.2846 149.566 24.8384C149.664 25.393 149.709 25.9995 149.702 26.6575C149.694 27.3157 149.664 27.9496 149.611 28.5593C149.559 29.1692 149.499 29.713 149.431 30.1911C149.363 30.6692 149.314 30.9986 149.285 31.1784C149.285 31.4972 149.416 31.7499 149.679 31.9371C149.941 32.124 150.234 32.2351 150.558 32.2696C150.882 32.3044 151.185 32.2488 151.471 32.1032C151.757 31.9576 151.922 31.7121 151.967 31.3654C152.117 30.3678 152.324 29.3668 152.587 28.362C152.85 27.3574 153.151 26.4568 153.489 25.6599C153.827 24.863 154.203 24.2116 154.616 23.7058C155.03 23.2003 155.469 22.9471 155.935 22.9471C156.176 22.9471 156.36 23.0998 156.487 23.4044C156.615 23.7092 156.679 24.1249 156.679 24.6515C156.679 25.0397 156.645 25.4381 156.578 25.8468C156.51 26.2556 156.431 26.6783 156.341 27.1147C156.251 27.5514 156.172 27.9982 156.104 28.4554C156.037 28.9129 156.003 29.3907 156.003 29.8897C156.003 30.2362 156.041 30.6381 156.116 31.0953C156.191 31.5523 156.333 31.9859 156.544 32.3943C156.754 32.8033 157.044 33.1496 157.412 33.4336C157.781 33.7176 158.25 33.8598 158.821 33.8598C159.678 33.8598 160.436 33.6899 161.098 33.3505C161.759 33.0111 162.327 32.5678 162.8 32.0204C162.825 31.9917 162.847 31.9611 162.871 31.9326C162.908 32.0135 162.94 32.0993 162.98 32.1762C163.304 32.7859 163.743 33.2569 164.3 33.5897C164.855 33.9222 165.509 34.1058 166.261 34.1406C167.012 34.1749 167.832 34.0467 168.719 33.7558C169.38 33.5341 169.955 33.2569 170.443 32.9244C170.931 32.5919 171.371 32.1866 171.762 31.7084C172.153 31.2303 172.51 30.6795 172.833 30.0561C173.157 29.4322 173.483 28.7188 173.814 27.9148C173.874 27.6936 173.817 27.496 173.645 27.3225C173.472 27.1495 173.261 27.0282 173.013 26.9586Z" fill="#0D0C23"/>
<path fill-rule="evenodd" clip-rule="evenodd" d="M185.266 24.6401C185.191 25.0491 185.09 25.4998 184.962 25.9913C184.834 26.4834 184.673 26.9926 184.477 27.5192C184.282 28.0458 184.041 28.5205 183.756 28.9429C183.471 29.3659 183.143 29.7016 182.776 29.9511C182.407 30.2006 181.983 30.3045 181.502 30.2628C181.261 30.2354 181.077 30.0829 180.949 29.8055C180.821 29.5286 180.754 29.175 180.746 28.7454C180.738 28.3161 180.78 27.8449 180.87 27.332C180.96 26.8196 181.099 26.317 181.288 25.8249C181.475 25.3334 181.704 24.8793 181.975 24.4634C182.246 24.0478 182.557 23.7256 182.911 23.497C183.264 23.2683 183.651 23.1613 184.072 23.1747C184.492 23.1887 184.943 23.3825 185.424 23.7567C185.394 23.9371 185.342 24.2316 185.266 24.6401ZM193.281 26.2302C193.048 26.1195 192.808 26.0955 192.56 26.1577C192.312 26.2199 192.135 26.4314 192.03 26.7917C191.97 27.1798 191.835 27.6368 191.625 28.1634C191.414 28.69 191.154 29.1893 190.847 29.66C190.538 30.1312 190.185 30.5228 189.787 30.8345C189.389 31.1465 188.964 31.2886 188.513 31.2604C188.137 31.233 187.874 31.0563 187.724 30.7306C187.573 30.4049 187.495 29.9964 187.487 29.5041C187.479 29.0126 187.533 28.4583 187.645 27.8415C187.758 27.2249 187.893 26.6118 188.051 26.0016C188.209 25.3922 188.371 24.8065 188.536 24.2453C188.701 23.6842 188.836 23.2095 188.942 22.8216C189.062 22.4751 189.024 22.1808 188.829 21.9379C188.633 21.6958 188.389 21.5223 188.096 21.4184C187.803 21.3145 187.506 21.2868 187.205 21.3353C186.905 21.3839 186.71 21.5329 186.619 21.7821C185.732 21.0754 184.879 20.6943 184.061 20.6389C183.241 20.5835 182.486 20.7499 181.795 21.1378C181.103 21.5257 180.491 22.0869 179.957 22.8216C179.424 23.5563 178.991 24.3564 178.66 25.2224C178.33 26.0883 178.123 26.972 178.041 27.8726C177.958 28.7734 178.022 29.5946 178.232 30.3358C178.443 31.0771 178.815 31.6836 179.348 32.1543C179.882 32.6256 180.607 32.8613 181.524 32.8613C181.93 32.8613 182.321 32.7851 182.697 32.6327C183.072 32.48 183.418 32.2999 183.733 32.0921C184.049 31.8843 184.327 31.6659 184.568 31.4373C184.808 31.2087 184.996 31.0183 185.131 30.8656C185.236 31.3645 185.409 31.7875 185.65 32.1338C185.89 32.48 186.165 32.7645 186.473 32.9858C186.781 33.2073 187.104 33.3703 187.442 33.4744C187.78 33.5783 188.108 33.6303 188.423 33.6303C189.13 33.6303 189.79 33.4085 190.407 32.9649C191.023 32.5219 191.576 31.9777 192.064 31.3334C192.552 30.6889 192.955 30.0101 193.27 29.2963C193.586 28.5827 193.796 27.9488 193.902 27.3942C194.007 27.1864 193.988 26.9683 193.845 26.7397C193.702 26.5111 193.515 26.3415 193.281 26.2302Z" fill="#0D0C23"/>
<path fill-rule="evenodd" clip-rule="evenodd" d="M233.864 37.7057C233.737 38.1765 233.537 38.5755 233.266 38.901C232.996 39.2264 232.658 39.3961 232.252 39.4105C231.997 39.424 231.801 39.2991 231.666 39.0363C231.531 38.7726 231.437 38.4332 231.384 38.0177C231.331 37.6017 231.309 37.1374 231.316 36.6248C231.324 36.1123 231.346 35.6062 231.384 35.1074C231.421 34.6088 231.467 34.1441 231.519 33.7148C231.572 33.285 231.613 32.953 231.643 32.7172C232.154 32.7726 232.579 32.9767 232.917 33.3303C233.255 33.6837 233.515 34.1027 233.695 34.5879C233.875 35.0729 233.98 35.5962 234.011 36.1571C234.04 36.7184 233.992 37.2344 233.864 37.7057ZM225.702 37.7057C225.575 38.1765 225.376 38.5755 225.105 38.901C224.835 39.2264 224.496 39.3961 224.09 39.4105C223.835 39.424 223.64 39.2991 223.505 39.0363C223.369 38.7726 223.275 38.4332 223.223 38.0177C223.17 37.6017 223.147 37.1374 223.155 36.6248C223.162 36.1123 223.185 35.6062 223.223 35.1074C223.26 34.6088 223.305 34.1441 223.358 33.7148C223.411 33.285 223.451 32.953 223.482 32.7172C223.993 32.7726 224.418 32.9767 224.755 33.3303C225.094 33.6837 225.353 34.1027 225.534 34.5879C225.714 35.0729 225.819 35.5962 225.849 36.1571C225.879 36.7184 225.83 37.2344 225.702 37.7057ZM217.327 25.8994C217.312 26.2317 217.278 26.5262 217.225 26.7826C217.173 27.0394 217.102 27.2019 217.011 27.2712C216.846 27.1879 216.643 26.9735 216.402 26.6267C216.162 26.2805 215.975 25.8886 215.839 25.4522C215.704 25.0157 215.662 24.5864 215.715 24.1635C215.767 23.741 216.004 23.4122 216.425 23.1761C216.59 23.0931 216.733 23.1242 216.853 23.2698C216.974 23.4153 217.071 23.6265 217.147 23.9037C217.222 24.1811 217.274 24.4997 217.304 24.8599C217.334 25.2204 217.342 25.5666 217.327 25.8994ZM215.332 30.0462C215.098 30.2745 214.839 30.472 214.554 30.6385C214.268 30.8048 213.975 30.9296 213.675 31.0127C213.374 31.096 213.103 31.1165 212.863 31.0749C212.187 30.9504 211.668 30.6798 211.307 30.2643C210.947 29.8486 210.717 29.3603 210.62 28.7991C210.522 28.2377 210.533 27.6383 210.654 27.0009C210.774 26.3636 210.976 25.7713 211.262 25.2238C211.548 24.6763 211.894 24.2051 212.299 23.8104C212.705 23.4153 213.148 23.1696 213.629 23.0722C213.449 23.779 213.389 24.5102 213.449 25.2652C213.509 26.0205 213.705 26.7306 214.035 27.3957C214.245 27.7981 214.497 28.1649 214.79 28.4974C215.084 28.8302 215.441 29.1142 215.862 29.3497C215.741 29.5855 215.564 29.8175 215.332 30.0462ZM240.278 26.1072C240.323 25.7887 240.391 25.4522 240.481 25.0988C240.571 24.7457 240.684 24.4027 240.819 24.0701C240.954 23.7373 241.112 23.4499 241.293 23.2075C241.474 22.9652 241.665 22.7917 241.868 22.6878C242.071 22.5839 242.277 22.5942 242.487 22.7189C242.713 22.8439 242.852 23.107 242.905 23.5087C242.957 23.9108 242.905 24.3401 242.747 24.7977C242.589 25.2549 242.307 25.6845 241.902 26.0861C241.496 26.4885 240.947 26.7515 240.256 26.8762C240.226 26.6824 240.233 26.426 240.278 26.1072ZM249.364 26.1072C249.41 25.7887 249.477 25.4522 249.567 25.0988C249.657 24.7457 249.77 24.4027 249.906 24.0701C250.041 23.7373 250.198 23.4499 250.379 23.2075C250.559 22.9652 250.751 22.7917 250.954 22.6878C251.157 22.5839 251.363 22.5942 251.574 22.7189C251.799 22.8439 251.938 23.107 251.991 23.5087C252.043 23.9108 251.991 24.3401 251.833 24.7977C251.675 25.2549 251.393 25.6845 250.988 26.0861C250.582 26.4885 250.033 26.7515 249.342 26.8762C249.312 26.6824 249.319 26.426 249.364 26.1072ZM257.808 27.3232C257.635 27.1502 257.424 27.0289 257.177 26.9592C256.928 26.8901 256.692 26.8833 256.466 26.9387C256.241 26.994 256.097 27.1396 256.038 27.3751C255.917 27.8187 255.726 28.2725 255.463 28.7363C255.2 29.201 254.877 29.6409 254.493 30.0564C254.11 30.472 253.678 30.8397 253.197 31.1582C252.716 31.477 252.213 31.7057 251.687 31.8438C251.16 31.9968 250.724 32.0139 250.379 31.896C250.033 31.7784 249.759 31.5775 249.556 31.2935C249.353 31.0092 249.207 30.6664 249.116 30.2643C249.026 29.8626 248.973 29.447 248.959 29.0172C249.815 29.0728 250.578 28.931 251.247 28.5911C251.915 28.2517 252.483 27.801 252.95 27.2398C253.415 26.6789 253.768 26.0484 254.009 25.3486C254.249 24.6487 254.384 23.9525 254.415 23.2595C254.429 22.6081 254.324 22.0572 254.099 21.6068C253.874 21.1567 253.569 20.8065 253.186 20.5573C252.802 20.3076 252.363 20.1623 251.867 20.1206C251.371 20.0789 250.867 20.1417 250.356 20.3076C249.74 20.5019 249.218 20.8171 248.79 21.2535C248.361 21.6902 248.004 22.1962 247.719 22.7708C247.433 23.3462 247.207 23.9659 247.042 24.6313C246.876 25.2963 246.756 25.9514 246.682 26.5956C246.608 27.2208 246.569 27.8192 246.56 28.3919C246.503 28.5061 246.442 28.6209 246.377 28.7363C246.114 29.201 245.79 29.6409 245.407 30.0564C245.024 30.472 244.592 30.8397 244.111 31.1582C243.63 31.477 243.127 31.7057 242.601 31.8438C242.074 31.9968 241.639 32.0139 241.293 31.896C240.947 31.7784 240.673 31.5775 240.47 31.2935C240.267 31.0092 240.121 30.6664 240.03 30.2643C239.94 29.8626 239.887 29.447 239.872 29.0172C240.729 29.0728 241.492 28.931 242.161 28.5911C242.829 28.2517 243.397 27.801 243.863 27.2398C244.329 26.6789 244.682 26.0484 244.922 25.3486C245.163 24.6487 245.299 23.9525 245.328 23.2595C245.343 22.6081 245.238 22.0572 245.013 21.6068C244.787 21.1567 244.483 20.8065 244.099 20.5573C243.716 20.3076 243.277 20.1623 242.781 20.1206C242.285 20.0789 241.781 20.1417 241.27 20.3076C240.654 20.5019 240.132 20.8171 239.704 21.2535C239.275 21.6902 238.918 22.1962 238.632 22.7708C238.347 23.3462 238.122 23.9659 237.956 24.6313C237.791 25.2963 237.67 25.9514 237.596 26.5956C237.553 26.959 237.524 27.3113 237.503 27.6572C237.358 27.7712 237.216 27.8859 237.066 27.9985C236.547 28.3867 236.002 28.7363 235.431 29.0483C234.86 29.3603 234.266 29.6166 233.65 29.8175C233.033 30.0185 232.402 30.1398 231.756 30.1812L233.154 16.3792C233.244 16.088 233.199 15.832 233.019 15.6102C232.838 15.3885 232.605 15.236 232.32 15.153C232.034 15.0696 231.73 15.0767 231.407 15.1735C231.083 15.2708 230.817 15.4926 230.606 15.8386C230.501 16.3655 230.392 17.0859 230.279 18.0004C230.167 18.9149 230.054 19.9128 229.941 20.9937C229.828 22.0746 229.716 23.1901 229.603 24.3401C229.49 25.4907 229.393 26.5645 229.31 27.5621C229.306 27.6064 229.303 27.6465 229.299 27.6902C229.168 27.7931 229.04 27.8967 228.904 27.9985C228.386 28.3867 227.84 28.7363 227.269 29.0483C226.698 29.3603 226.105 29.6166 225.489 29.8175C224.872 30.0185 224.24 30.1398 223.594 30.1812L224.992 16.3792C225.083 16.088 225.038 15.832 224.857 15.6102C224.677 15.3885 224.444 15.236 224.158 15.153C223.873 15.0696 223.568 15.0767 223.245 15.1735C222.922 15.2708 222.655 15.4926 222.445 15.8386C222.339 16.3655 222.231 17.0859 222.118 18.0004C222.005 18.9149 221.893 19.9128 221.78 20.9937C221.667 22.0746 221.554 23.1901 221.442 24.3401C221.329 25.4907 221.231 26.5645 221.149 27.5621C221.147 27.5821 221.145 27.6003 221.143 27.6204C220.907 27.7213 220.65 27.81 220.37 27.8843C220.085 27.9608 219.762 28.0059 219.401 28.0196C219.461 27.7699 219.51 27.4927 219.547 27.1879C219.585 26.8833 219.616 26.5645 219.638 26.2317C219.661 25.8994 219.668 25.5666 219.661 25.2341C219.653 24.9013 219.634 24.5967 219.604 24.3193C219.529 23.7239 219.39 23.159 219.187 22.6253C218.984 22.0921 218.71 21.6454 218.364 21.2846C218.018 20.9244 217.587 20.6818 217.067 20.5573C216.549 20.4326 215.944 20.474 215.253 20.6818C214.23 20.5573 213.31 20.6441 212.491 20.9418C211.672 21.24 210.961 21.6728 210.36 22.2408C209.759 22.8093 209.267 23.4775 208.884 24.2468C208.5 25.0157 208.245 25.8058 208.117 26.6162C208.063 26.9598 208.037 27.3018 208.029 27.643C207.796 28.0824 207.541 28.4663 207.26 28.7886C206.862 29.2458 206.449 29.62 206.02 29.9109C205.592 30.202 205.167 30.4238 204.747 30.5762C204.326 30.7289 203.95 30.8328 203.619 30.8879C203.228 30.9573 202.853 30.9644 202.492 30.9088C202.131 30.8536 201.8 30.6941 201.5 30.4306C201.26 30.2368 201.075 29.9249 200.948 29.4953C200.82 29.0657 200.745 28.5776 200.723 28.0299C200.7 27.4824 200.723 26.9107 200.79 26.315C200.857 25.7193 200.974 25.1545 201.139 24.621C201.305 24.0875 201.514 23.6094 201.771 23.1864C202.026 22.7643 202.327 22.4626 202.673 22.2825C202.867 22.3104 202.988 22.4175 203.033 22.6044C203.078 22.7917 203.089 23.0135 203.067 23.2698C203.045 23.5263 203.011 23.7895 202.966 24.0596C202.92 24.3299 202.898 24.5553 202.898 24.7352C202.973 25.1094 203.119 25.4005 203.338 25.6083C203.555 25.8161 203.8 25.9377 204.07 25.972C204.341 26.0068 204.607 25.9479 204.871 25.7952C205.133 25.6431 205.347 25.4005 205.513 25.0677C205.528 25.0817 205.551 25.0885 205.581 25.0885L205.897 22.4488C205.986 22.0884 205.926 21.7698 205.716 21.4927C205.505 21.2155 205.227 21.056 204.882 21.0146C204.446 20.4326 203.856 20.1243 203.112 20.0895C202.368 20.055 201.605 20.2801 200.824 20.7651C200.343 21.0842 199.918 21.5238 199.55 22.085C199.181 22.6464 198.881 23.2698 198.648 23.9557C198.415 24.6415 198.249 25.366 198.152 26.1281C198.054 26.8901 198.036 27.6317 198.095 28.3519C198.155 29.0728 198.295 29.7519 198.513 30.389C198.731 31.0266 199.035 31.5601 199.426 31.9894C199.757 32.3636 200.132 32.6376 200.553 32.8108C200.974 32.9841 201.413 33.0912 201.872 33.1328C202.33 33.1742 202.785 33.1568 203.236 33.0809C203.687 33.0049 204.115 32.8976 204.521 32.7586C205.047 32.5788 205.589 32.3499 206.144 32.0727C206.7 31.7958 207.234 31.463 207.745 31.0749C208.014 30.8708 208.273 30.6482 208.523 30.4095C208.637 30.6701 208.764 30.9222 208.918 31.1582C209.323 31.7816 209.872 32.2876 210.563 32.6755C211.254 33.0635 212.104 33.2502 213.111 33.2367C214.193 33.2228 215.192 32.9701 216.109 32.478C217.026 31.9865 217.778 31.2618 218.364 30.3059C219.242 30.3059 220.106 30.1725 220.955 29.9075C220.948 29.9913 220.941 30.0796 220.934 30.1606C220.874 30.895 220.844 31.3937 220.844 31.6571C220.829 32.1144 220.795 32.679 220.743 33.3509C220.69 34.0231 220.656 34.7298 220.641 35.4709C220.627 36.2124 220.656 36.9608 220.732 37.7161C220.807 38.4711 220.964 39.1572 221.205 39.7742C221.445 40.3904 221.787 40.9138 222.231 41.3437C222.674 41.7727 223.256 42.0294 223.978 42.1126C224.745 42.2091 225.406 42.0847 225.962 41.7384C226.518 41.3916 226.969 40.9173 227.315 40.3146C227.661 39.7116 227.904 39.0154 228.048 38.2256C228.19 37.4355 228.231 36.6423 228.172 35.8451C228.111 35.0484 227.953 34.2968 227.698 33.5903C227.442 32.8834 227.089 32.3013 226.638 31.8438C226.909 31.775 227.232 31.6434 227.608 31.4491C227.983 31.2552 228.37 31.0369 228.769 30.7943C228.867 30.7347 228.963 30.6719 229.061 30.6107C229.024 31.1018 229.006 31.452 229.006 31.6571C228.991 32.1144 228.957 32.679 228.904 33.3509C228.852 34.0231 228.818 34.7298 228.803 35.4709C228.788 36.2124 228.818 36.9608 228.893 37.7161C228.968 38.4711 229.126 39.1572 229.366 39.7742C229.606 40.3904 229.949 40.9138 230.392 41.3437C230.835 41.7727 231.418 42.0294 232.14 42.1126C232.906 42.2091 233.567 42.0847 234.123 41.7384C234.68 41.3916 235.13 40.9173 235.476 40.3146C235.822 39.7116 236.066 39.0154 236.209 38.2256C236.352 37.4355 236.393 36.6423 236.333 35.8451C236.273 35.0484 236.115 34.2968 235.86 33.5903C235.604 32.8834 235.251 32.3013 234.799 31.8438C235.07 31.775 235.393 31.6434 235.769 31.4491C236.145 31.2552 236.532 31.0369 236.931 30.7943C237.137 30.6683 237.343 30.5382 237.548 30.4045C237.626 31.0822 237.792 31.6766 238.057 32.1766C238.381 32.7866 238.82 33.2576 239.376 33.5903C239.932 33.9226 240.586 34.1064 241.338 34.1409C242.09 34.1752 242.908 34.0473 243.796 33.7562C244.457 33.5347 245.032 33.2576 245.52 32.925C246.008 32.5922 246.448 32.1869 246.839 31.7091C246.862 31.6814 246.883 31.6513 246.905 31.6234C246.975 31.8175 247.052 32.0039 247.143 32.1766C247.467 32.7866 247.907 33.2576 248.462 33.5903C249.018 33.9226 249.672 34.1064 250.424 34.1409C251.175 34.1752 251.994 34.0473 252.881 33.7562C253.543 33.5347 254.118 33.2576 254.606 32.925C255.094 32.5922 255.534 32.1869 255.925 31.7091C256.316 31.2307 256.672 30.6798 256.996 30.0564C257.319 29.4328 257.646 28.7195 257.977 27.9154C258.037 27.6939 257.98 27.4964 257.808 27.3232Z" fill="#0D0C23"/>
</svg>
