<svg width="212" height="38" viewBox="0 0 212 38" fill="none" xmlns="http://www.w3.org/2000/svg">
<path d="M28.8705 10.1352L28.6398 9.08277C28.4323 8.13849 27.962 7.24625 26.8888 6.90496C26.545 6.7958 26.1544 6.74886 25.8908 6.5229C25.6271 6.2969 25.5491 5.94593 25.4882 5.62044C25.3754 5.02306 25.2691 4.42518 25.1533 3.82884C25.0534 3.31616 24.9741 2.74019 24.7139 2.26987C24.3752 1.6383 23.6721 1.26897 22.9728 1.02461C22.6144 0.903791 22.2487 0.801595 21.8776 0.718529C20.1307 0.302229 18.294 0.149186 16.4969 0.0619765C14.3398 -0.0455255 12.177 -0.0131512 10.0251 0.158906C8.42336 0.290495 6.73638 0.449696 5.2143 0.950107C4.65797 1.13328 4.08476 1.35312 3.66173 1.74135C3.1427 2.21833 2.97327 2.95601 3.35222 3.5508C3.62164 3.97321 4.07798 4.27163 4.56198 4.46905C5.19243 4.72344 5.85084 4.91699 6.52626 5.04653C8.40698 5.42201 10.3549 5.56944 12.2763 5.63217C14.4059 5.70982 16.5389 5.64689 18.6583 5.44393C19.1824 5.39192 19.7056 5.32949 20.2278 5.25673C20.8429 5.17153 21.2376 4.44508 21.0564 3.93902C20.8395 3.33401 20.2567 3.09933 19.5975 3.19065C19.5004 3.20443 19.4038 3.21717 19.3067 3.22995L19.2367 3.23913C19.0134 3.26461 18.7901 3.28843 18.5668 3.31054C18.1056 3.35542 17.6432 3.39217 17.1797 3.42072C16.1417 3.48601 15.1008 3.51614 14.0604 3.51765C13.0382 3.51765 12.0154 3.49162 10.9954 3.43094C10.53 3.40337 10.0658 3.36836 9.60263 3.32584C9.39196 3.30593 9.18188 3.28502 8.97176 3.26155L8.77184 3.23859L8.72836 3.23301L8.52107 3.20594C8.09748 3.14832 7.67389 3.08198 7.25485 3.0019C7.21258 2.99342 7.17472 2.9722 7.14763 2.94168C7.12053 2.91117 7.10574 2.87318 7.10574 2.83406C7.10574 2.79495 7.12053 2.757 7.14763 2.72648C7.17472 2.69597 7.21258 2.67471 7.25485 2.66623H7.26274C7.62592 2.59633 7.99189 2.53665 8.35897 2.4846C8.48137 2.46729 8.60412 2.45025 8.72721 2.4336H8.73059C8.96048 2.41982 9.19148 2.3826 9.42021 2.35809C11.4103 2.17112 13.4122 2.10738 15.412 2.16733C16.3828 2.19281 17.3531 2.24435 18.3194 2.33311C18.5273 2.35251 18.734 2.37292 18.9407 2.39585C19.0198 2.40452 19.0994 2.41474 19.179 2.42342L19.3394 2.44433C19.8071 2.50722 20.2723 2.58359 20.735 2.67339C21.4207 2.80804 22.301 2.85192 22.6062 3.53043C22.7031 3.7457 22.7473 3.98495 22.8009 4.21095L22.8695 4.49914C22.8712 4.50433 22.8725 4.50964 22.8733 4.51498C23.035 5.19516 23.1966 5.87533 23.3582 6.55554C23.3702 6.60577 23.3707 6.6577 23.3591 6.70804C23.3479 6.75839 23.3252 6.8061 23.2926 6.84815C23.2601 6.89025 23.218 6.9258 23.1696 6.9526C23.1211 6.97939 23.0667 6.99686 23.0105 7.00395H23.0058L22.9072 7.01618L22.8095 7.02792C22.4999 7.06432 22.1899 7.09832 21.8798 7.12996C21.2687 7.19285 20.6567 7.2473 20.0437 7.29319C18.8257 7.3847 17.6052 7.44472 16.3822 7.47326C15.7591 7.48825 15.1362 7.49522 14.5134 7.49417C12.0346 7.49243 9.55792 7.36231 7.09558 7.10444C6.82899 7.07586 6.56245 7.04527 6.29586 7.01413C6.50255 7.03814 6.14563 6.99578 6.07335 6.9866C5.90391 6.96518 5.73448 6.94291 5.56504 6.91976C4.99629 6.84273 4.43096 6.74785 3.86336 6.66471C3.17713 6.56267 2.52087 6.61371 1.90019 6.91976C1.39068 7.17159 0.978329 7.5578 0.718088 8.02676C0.450387 8.52671 0.370772 9.07104 0.251027 9.6082C0.131282 10.1454 -0.0550887 10.7234 0.0155237 11.2748C0.167424 12.465 1.0886 13.4322 2.41356 13.6485C3.66001 13.8526 4.91328 14.0179 6.1699 14.1586C11.1062 14.7047 16.0933 14.7701 21.045 14.3535C21.4483 14.3195 21.851 14.2824 22.253 14.2423C22.3786 14.2299 22.5059 14.2429 22.6251 14.2806C22.7443 14.3182 22.8528 14.3795 22.9424 14.4599C23.032 14.5403 23.101 14.6378 23.1434 14.7453C23.1859 14.8528 23.2013 14.9675 23.1885 15.081L23.0628 16.1819C22.8103 18.4064 22.5578 20.6308 22.3053 22.855C22.0416 25.1908 21.7763 27.5264 21.5093 29.8616C21.434 30.5195 21.3587 31.1771 21.2834 31.8347C21.2111 32.4818 21.2009 33.1498 21.0648 33.7895C20.8502 34.7952 20.0962 35.4133 18.996 35.639C17.9881 35.8462 16.9584 35.955 15.9248 35.9636C14.7789 35.969 13.6335 35.9233 12.4875 35.9287C11.2642 35.9349 9.76585 35.8331 8.82153 35.0105C7.99188 34.2883 7.87724 33.1571 7.76427 32.1793C7.61366 30.8847 7.46437 29.5901 7.31642 28.2955L6.48618 21.0981L5.94906 16.441C5.94006 16.364 5.93101 16.288 5.92252 16.2104C5.85817 15.6549 5.4227 15.1111 4.73652 15.1391C4.14911 15.1626 3.48157 15.6136 3.55047 16.2104L3.94863 19.663L4.77206 26.805C5.00666 28.8338 5.24066 30.8626 5.47411 32.8919C5.5193 33.2807 5.56166 33.6706 5.60907 34.059C5.86717 36.1835 7.66318 37.3282 9.88727 37.6504C11.1863 37.8394 12.5169 37.8782 13.8351 37.8975C15.5249 37.9219 17.2317 37.9808 18.8938 37.7043C21.3568 37.2961 23.2047 35.8106 23.4684 33.506C23.5439 32.8411 23.6193 32.1754 23.6944 31.5101C23.9447 29.309 24.1947 27.1077 24.4446 24.9063L25.2609 17.7133L25.6357 14.4168C25.6541 14.2533 25.7308 14.0996 25.8535 13.9784C25.9765 13.8573 26.1394 13.775 26.3178 13.7439C27.0222 13.6199 27.6953 13.4083 28.1965 12.9241C28.9939 12.1533 29.1526 11.1483 28.8705 10.1352ZM2.37741 10.8463C2.38813 10.8417 2.36837 10.9249 2.35992 10.9637C2.35821 10.905 2.36159 10.853 2.37741 10.8463ZM2.44575 11.3238C2.45141 11.3203 2.46835 11.3407 2.48584 11.3651C2.4593 11.3427 2.44237 11.3259 2.4452 11.3238H2.44575ZM2.51298 11.4039C2.55024 11.4646 2.53724 11.4412 2.51298 11.4039ZM2.64794 11.5029H2.65133C2.65133 11.5064 2.65755 11.51 2.65982 11.5136C2.65605 11.5097 2.65189 11.5061 2.64739 11.5029H2.64794ZM26.2852 11.3549C26.0322 11.5722 25.6507 11.6733 25.2742 11.7238C21.0496 12.29 16.7635 12.5767 12.4926 12.4502C9.43603 12.3558 6.41162 12.0492 3.38554 11.663C3.08902 11.6253 2.76769 11.5763 2.56378 11.3789C2.17972 11.0065 2.36837 10.2566 2.46835 9.80667C2.55984 9.39447 2.73493 8.84503 3.27767 8.78636C4.12484 8.6966 5.1087 9.01949 5.94683 9.13427C6.9559 9.27338 7.96873 9.38475 8.98535 9.46844C13.324 9.82552 17.7354 9.76991 22.0549 9.24755C22.842 9.15197 23.6266 9.04095 24.4082 8.91443C25.1049 8.80166 25.8766 8.58999 26.2976 9.24143C26.5862 9.68522 26.6243 10.279 26.5797 10.7805C26.566 10.999 26.4605 11.2045 26.2843 11.3549H26.2852Z" fill="#0D0C22"/>
<path d="M15.5104 17.5169C14.0024 18.1 12.2911 18.7612 10.0732 18.7612C9.14538 18.7595 8.22211 18.6445 7.32837 18.4194L8.86233 32.6448C8.91661 33.2392 9.21651 33.7938 9.70239 34.1977C10.1883 34.602 10.8246 34.8262 11.4852 34.8258C11.4852 34.8258 13.6601 34.928 14.3859 34.928C15.1669 34.928 17.5091 34.8258 17.5091 34.8258C18.1695 34.8258 18.8057 34.6016 19.2915 34.1977C19.7773 33.7934 20.0771 33.2392 20.1314 32.6448L21.7743 16.9252C21.0401 16.6987 20.2991 16.5482 19.4638 16.5482C18.0191 16.5477 16.8551 16.9971 15.5104 17.5169Z" fill="white"/>
<path fill-rule="evenodd" clip-rule="evenodd" d="M58.6864 20.4241C58.416 20.9019 58.044 21.3181 57.5705 21.6712C57.0969 22.0245 56.5449 22.3122 55.9133 22.5337C55.2822 22.7558 54.6469 22.9048 54.0083 22.9807C53.3693 23.0569 52.749 23.0503 52.1485 22.9598C51.5471 22.8699 51.0354 22.6864 50.615 22.409L51.0891 17.8569C51.5245 17.7185 52.0728 17.5763 52.7344 17.4308C53.3956 17.2855 54.0756 17.1813 54.7748 17.1191C55.4741 17.0566 56.1348 17.064 56.7588 17.1399C57.3824 17.2161 57.8747 17.3996 58.2354 17.6908C58.431 17.8569 58.5965 18.0371 58.7315 18.2311C58.8669 18.4252 58.9492 18.6262 58.9798 18.834C59.0546 19.4159 58.9572 19.946 58.6864 20.4241ZM51.8099 10.7274C52.1255 10.5473 52.5054 10.3878 52.9484 10.2491C53.3918 10.1109 53.8466 10.0136 54.3126 9.95822C54.7781 9.90309 55.2329 9.89569 55.6768 9.93738C56.1197 9.97902 56.511 10.0932 56.8491 10.2802C57.1872 10.4674 57.4388 10.7377 57.6043 11.0908C57.7694 11.4445 57.8145 11.8914 57.7393 12.4317C57.6796 12.8613 57.4948 13.2252 57.1872 13.523C56.8792 13.8212 56.503 14.0704 56.06 14.2714C55.6166 14.4726 55.1468 14.6318 54.6512 14.7492C54.1546 14.8673 53.6773 14.9541 53.2193 15.0092C52.7608 15.0648 52.3625 15.0997 52.0244 15.1131C51.6863 15.1271 51.4643 15.1339 51.359 15.1339L51.8099 10.7274ZM61.1213 17.4828C60.881 16.998 60.5579 16.5719 60.1521 16.2043C59.7463 15.8372 59.2648 15.5706 58.7089 15.4042C58.9492 15.2241 59.1862 14.9401 59.4195 14.5519C59.6522 14.1643 59.8512 13.7413 60.0167 13.284C60.1817 12.8265 60.2951 12.3661 60.3548 11.9017C60.4145 11.4376 60.3919 11.0391 60.2875 10.7063C60.0313 9.87515 59.6297 9.22378 59.0809 8.75255C58.5321 8.28158 57.8935 7.95589 57.1646 7.77554C56.4353 7.59596 55.6316 7.55746 54.7523 7.66136C53.8729 7.76523 52.9747 7.9696 52.0582 8.27444C52.0582 8.20535 52.0658 8.1326 52.0808 8.05636C52.0954 7.98043 52.1029 7.9005 52.1029 7.81718C52.1029 7.60941 51.9905 7.42953 51.7648 7.27685C51.5395 7.12443 51.2804 7.03453 50.9875 7.00655C50.694 6.97914 50.4086 7.03766 50.1302 7.18326C49.8523 7.3288 49.6604 7.59596 49.5556 7.98331C49.4352 9.23066 49.3148 10.5265 49.1949 11.8703C49.0745 13.2147 48.9466 14.5728 48.8116 15.9448C48.6762 17.3166 48.5408 18.6781 48.4058 20.0291C48.2704 21.3803 48.135 22.6793 48 23.9263C48.0451 24.3005 48.1575 24.5917 48.3381 24.7995C48.5182 25.0075 48.7289 25.1323 48.9692 25.1737C49.2095 25.2153 49.4615 25.1768 49.7244 25.0592C49.9873 24.9418 50.2167 24.737 50.4124 24.4461C51.0133 24.751 51.69 24.9485 52.4415 25.0387C53.1929 25.1286 53.9552 25.1286 54.7302 25.0387C55.5037 24.9485 56.2665 24.7789 57.0179 24.5292C57.7694 24.2799 58.4536 23.968 59.0696 23.5941C59.6861 23.2199 60.2043 22.7935 60.6257 22.3157C61.0461 21.8373 61.3244 21.3212 61.4594 20.7672C61.5948 20.1989 61.6325 19.6309 61.5723 19.0626C61.5121 18.4946 61.3616 17.9682 61.1213 17.4828Z" fill="#0D0C23"/>
<path fill-rule="evenodd" clip-rule="evenodd" d="M83.1171 28.4574C83.0348 28.9147 82.9177 29.3964 82.7677 29.9024C82.6172 30.4076 82.4409 30.8688 82.2382 31.2848C82.0351 31.7003 81.8098 32.0358 81.562 32.2925C81.3137 32.5488 81.0466 32.6563 80.7612 32.6149C80.5359 32.5866 80.393 32.4552 80.3332 32.2198C80.2726 31.984 80.2726 31.6929 80.3332 31.347C80.393 31.0002 80.5091 30.6086 80.6822 30.1722C80.8552 29.7357 81.0659 29.3024 81.3137 28.8733C81.562 28.4434 81.8437 28.0314 82.1592 27.6363C82.4747 27.2417 82.8053 26.9124 83.151 26.6492C83.2262 26.7323 83.26 26.9401 83.2525 27.2728C83.2445 27.6054 83.1999 28.0005 83.1171 28.4574ZM90.7605 19.4364C90.5573 19.2286 90.3095 19.111 90.0161 19.083C89.7231 19.0553 89.4259 19.2077 89.1259 19.5403C88.9303 19.8728 88.682 20.1916 88.3815 20.4965C88.081 20.8016 87.7692 21.0785 87.4462 21.3279C87.1227 21.5771 86.8146 21.7923 86.5217 21.9722C86.2287 22.1525 85.9992 22.2841 85.8342 22.3672C85.774 21.9239 85.7397 21.4458 85.7326 20.9329C85.7246 20.4202 85.7364 19.9007 85.7665 19.3741C85.8111 18.6258 85.9052 17.8707 86.0481 17.1084C86.1911 16.3463 86.3975 15.5979 86.6684 14.8632C86.6684 14.4756 86.5701 14.1602 86.375 13.9176C86.1793 13.6752 85.9428 13.5226 85.6649 13.4603C85.3865 13.3981 85.1015 13.4326 84.8081 13.5642C84.5151 13.696 84.2636 13.9352 84.0529 14.2812C83.8728 14.7388 83.6659 15.2514 83.4331 15.8194C83.1999 16.3877 82.937 16.9663 82.644 17.5551C82.3506 18.1445 82.0238 18.7159 81.6631 19.27C81.3024 19.8245 80.9079 20.3166 80.4795 20.7459C80.0511 21.1755 79.5851 21.5117 79.0819 21.7541C78.5778 21.9967 78.0337 22.104 77.4473 22.0763C77.1765 22.007 76.9808 21.82 76.8609 21.5149C76.7405 21.2103 76.6691 20.829 76.647 20.3717C76.6244 19.9144 76.647 19.4121 76.7142 18.8646C76.7819 18.3175 76.8722 17.7734 76.9851 17.2331C77.0975 16.6925 77.2216 16.1799 77.3566 15.6949C77.492 15.21 77.6194 14.801 77.7398 14.4685C77.9204 14.0668 77.9204 13.7303 77.7398 13.4603C77.5597 13.19 77.3119 13.0102 76.9964 12.9197C76.6808 12.8298 76.3498 12.8335 76.0041 12.9303C75.6585 13.0273 75.4102 13.242 75.2602 13.5745C75.0044 14.143 74.7712 14.7801 74.561 15.4869C74.3508 16.1936 74.1815 16.9248 74.054 17.6799C73.9261 18.4353 73.8542 19.1837 73.8396 19.925C73.8387 19.9733 73.841 20.0191 73.841 20.0671C73.5132 20.8727 73.201 21.4816 72.9043 21.8891C72.521 22.4159 72.0884 22.6446 71.6078 22.575C71.3967 22.4919 71.2584 22.2981 71.1907 21.993C71.1225 21.6884 71.1004 21.3142 71.1225 20.8704C71.1455 20.4274 71.202 19.925 71.2918 19.3636C71.3826 18.8024 71.4945 18.2204 71.6299 17.6176C71.7653 17.0145 71.9083 16.4088 72.0583 15.7988C72.2088 15.1892 72.3437 14.614 72.4646 14.0734C72.4495 13.5885 72.2953 13.218 72.0019 12.9614C71.7094 12.7053 71.2993 12.6049 70.7736 12.66C70.4129 12.7987 70.1458 12.9791 69.9732 13.2006C69.8002 13.4221 69.661 13.7064 69.5561 14.0526C69.4955 14.233 69.4056 14.5932 69.2853 15.1338C69.1649 15.6738 69.0111 16.2944 68.823 16.9939C68.6354 17.6941 68.4134 18.4248 68.1581 19.1869C67.9027 19.949 67.6168 20.6389 67.3018 21.2551C66.9857 21.8717 66.6401 22.3672 66.2644 22.7414C65.8887 23.1153 65.4828 23.268 65.0469 23.1986C64.8062 23.157 64.6524 22.9283 64.5847 22.5127C64.517 22.0969 64.5061 21.5845 64.5508 20.9746C64.596 20.3649 64.6862 19.6961 64.8212 18.9688C64.9566 18.2412 65.0954 17.5519 65.2383 16.9003C65.3813 16.2492 65.5129 15.6738 65.6333 15.1752C65.7532 14.6762 65.836 14.3437 65.8811 14.1776C65.8811 13.7757 65.7829 13.4537 65.5882 13.2108C65.3926 12.9687 65.156 12.8161 64.8776 12.7536C64.5992 12.6914 64.3138 12.7259 64.0213 12.8575C63.7279 12.9893 63.4763 13.2285 63.2656 13.5745C63.1904 13.9487 63.0926 14.382 62.9727 14.8738C62.8523 15.3656 62.7361 15.8714 62.6233 16.3911C62.5104 16.9109 62.4051 17.4201 62.3077 17.919C62.2099 18.4179 62.1384 18.8544 62.0933 19.2286C62.0632 19.5194 62.0293 19.8765 61.9922 20.299C61.9541 20.7219 61.9353 21.1686 61.9353 21.6396C61.9353 22.1111 61.9729 22.5787 62.0486 23.0428C62.1234 23.5072 62.2588 23.9333 62.454 24.321C62.6491 24.7091 62.9238 25.0277 63.2774 25.2771C63.6301 25.5266 64.0773 25.665 64.6185 25.693C65.1744 25.7204 65.6592 25.6827 66.073 25.5785C66.4859 25.4746 66.8616 25.3117 67.2002 25.0899C67.5383 24.8686 67.8463 24.6052 68.1247 24.3001C68.4021 23.9955 68.6768 23.663 68.9472 23.3025C69.203 23.8294 69.5335 24.2379 69.9394 24.529C70.3452 24.8199 70.7736 24.9934 71.2246 25.0485C71.6751 25.1036 72.134 25.0454 72.6 24.8718C73.0656 24.6988 73.4864 24.4043 73.8622 23.9884C74.11 23.7334 74.3432 23.4436 74.5624 23.1232C74.6555 23.2732 74.7542 23.418 74.8657 23.5517C75.2339 23.9955 75.7337 24.3001 76.3653 24.4665C77.0415 24.6329 77.7022 24.6609 78.3488 24.5498C78.9949 24.4391 79.6114 24.2379 80.1973 23.947C80.7837 23.6559 81.3283 23.3062 81.8324 22.8972C82.3355 22.4885 82.7752 22.0626 83.151 21.6188C83.1359 21.9376 83.1284 22.2393 83.1284 22.523C83.1284 22.8073 83.1209 23.1153 83.1063 23.4481C82.3544 23.9333 81.6443 24.5153 80.9756 25.1941C80.3064 25.8729 79.72 26.597 79.2169 27.3661C78.7132 28.1349 78.3187 28.9147 78.0337 29.7044C77.7478 30.4946 77.6086 31.2325 77.6161 31.9187C77.6237 32.6045 77.8 33.2036 78.1461 33.7162C78.4913 34.2292 79.0551 34.596 79.8367 34.8179C80.6488 35.0538 81.3621 35.0603 81.9791 34.8388C82.5951 34.6169 83.1321 34.2497 83.5906 33.7371C84.0491 33.2245 84.4248 32.6045 84.7183 31.877C85.0112 31.1494 85.244 30.3906 85.4171 29.6009C85.5897 28.8111 85.6987 28.0344 85.7439 27.2728C85.789 26.5105 85.789 25.8312 85.7439 25.2355C87.0366 24.7368 88.0961 24.1063 88.9228 23.3439C89.7495 22.5824 90.4332 21.7783 90.9744 20.9329C91.1395 20.7251 91.1959 20.4756 91.1437 20.1847C91.0906 19.8936 90.9632 19.6442 90.7605 19.4364Z" fill="#0D0C23"/>
<path fill-rule="evenodd" clip-rule="evenodd" d="M119.201 18.1066C119.247 17.788 119.314 17.4518 119.404 17.0984C119.494 16.7451 119.607 16.402 119.743 16.0695C119.878 15.737 120.036 15.4495 120.216 15.2069C120.396 14.9645 120.588 14.7913 120.791 14.6871C120.994 14.5835 121.2 14.5938 121.411 14.7183C121.636 14.8433 121.775 15.1064 121.828 15.508C121.88 15.9104 121.828 16.3398 121.67 16.797C121.512 17.2546 121.231 17.6838 120.825 18.0858C120.419 18.4879 119.87 18.7508 119.179 18.8755C119.149 18.682 119.156 18.4254 119.201 18.1066ZM127.013 18.9586C126.765 18.8898 126.529 18.8827 126.303 18.938C126.078 18.9934 125.935 19.139 125.875 19.3748C125.754 19.818 125.562 20.2718 125.3 20.736C125.037 21.2004 124.714 21.6402 124.331 22.0561C123.948 22.4717 123.515 22.839 123.034 23.1576C122.553 23.4764 122.05 23.705 121.524 23.8435C120.997 23.9961 120.561 24.0133 120.216 23.8954C119.87 23.7781 119.596 23.5769 119.393 23.2929C119.19 23.0089 119.043 22.6658 118.954 22.2639C118.863 21.862 118.811 21.4464 118.796 21.0165C119.652 21.0722 120.415 20.9303 121.084 20.5904C121.753 20.2513 122.32 19.8006 122.786 19.2394C123.252 18.6783 123.605 18.0478 123.846 17.3479C124.086 16.6483 124.221 15.9519 124.251 15.2588C124.266 14.6075 124.162 14.0569 123.936 13.6065C123.711 13.1563 123.406 12.8059 123.023 12.5567C122.64 12.3072 122.2 12.1616 121.704 12.1203C121.208 12.0786 120.704 12.1411 120.193 12.3072C119.577 12.5013 119.055 12.8164 118.626 13.2531C118.198 13.6896 117.841 14.1956 117.556 14.7705C117.27 15.3456 117.044 15.9656 116.879 16.6306C116.714 17.2959 116.593 17.9507 116.519 18.5952C116.451 19.1735 116.415 19.7265 116.402 20.2603C116.37 20.328 116.339 20.3932 116.304 20.4657C116.071 20.958 115.8 21.4395 115.493 21.9105C115.185 22.3818 114.842 22.7768 114.467 23.0953C114.091 23.4142 113.701 23.5249 113.295 23.4279C113.054 23.3728 112.923 23.1159 112.9 22.6589C112.878 22.2014 112.903 21.6334 112.979 20.9543C113.054 20.2755 113.14 19.5406 113.238 18.7508C113.336 17.961 113.385 17.206 113.385 16.4853C113.385 15.8617 113.257 15.2625 113.001 14.6871C112.745 14.1125 112.396 13.6342 111.953 13.2531C111.51 12.8718 110.995 12.6189 110.409 12.4945C109.822 12.3694 109.191 12.4528 108.515 12.7437C107.838 13.0348 107.301 13.4435 106.903 13.9701C106.504 14.497 106.14 15.051 105.809 15.633C105.689 15.1895 105.513 14.7776 105.279 14.3963C105.047 14.0152 104.761 13.6827 104.423 13.3984C104.084 13.1147 103.704 12.8929 103.285 12.7333C102.864 12.5743 102.42 12.4945 101.954 12.4945C101.503 12.4945 101.086 12.5743 100.703 12.7333C100.32 12.8929 99.9703 13.097 99.6543 13.3465C99.3387 13.5962 99.0533 13.8765 98.7975 14.1885C98.5421 14.5002 98.3164 14.8087 98.1212 15.1133C98.0907 14.7531 98.0573 14.438 98.0201 14.1674C97.982 13.8974 97.9143 13.6687 97.817 13.4817C97.7192 13.2945 97.5805 13.1527 97.3999 13.0556C97.2193 12.9588 96.964 12.91 96.6334 12.91C96.4679 12.91 96.3023 12.9412 96.1373 13.0034C95.9717 13.0659 95.825 13.1527 95.6976 13.2634C95.5697 13.3747 95.4723 13.5094 95.4046 13.6687C95.3369 13.828 95.3186 14.0118 95.3482 14.2196C95.3632 14.3723 95.4046 14.5556 95.4723 14.7705C95.5396 14.9854 95.6035 15.2662 95.6637 15.6122C95.7239 15.9587 95.7728 16.378 95.8104 16.8698C95.8481 17.3619 95.8589 17.9647 95.8443 18.6783C95.8288 19.3922 95.7728 20.2268 95.675 21.1829C95.5772 22.1392 95.423 23.2477 95.2128 24.5085C95.1827 24.7996 95.3031 25.0354 95.5739 25.2155C95.8443 25.3954 96.1523 25.4993 96.498 25.5272C96.8436 25.5549 97.1709 25.4993 97.4789 25.3611C97.7869 25.2221 97.9637 24.9798 98.0084 24.6335C98.0535 23.9822 98.14 23.2894 98.268 22.5547C98.3954 21.8206 98.5534 21.093 98.7415 20.3723C98.9291 19.6519 99.1431 18.966 99.3839 18.3144C99.6241 17.663 99.8912 17.0882 100.184 16.5892C100.478 16.0903 100.782 15.6921 101.097 15.3941C101.413 15.0962 101.744 14.9471 102.09 14.9471C102.51 14.9471 102.837 15.1236 103.07 15.4769C103.303 15.8306 103.468 16.2846 103.566 16.8384C103.664 17.393 103.709 17.9995 103.702 18.6575C103.694 19.3157 103.664 19.9496 103.611 20.5593C103.559 21.1692 103.499 21.713 103.431 22.1911C103.363 22.6692 103.314 22.9986 103.285 23.1784C103.285 23.4972 103.416 23.7499 103.679 23.9371C103.941 24.124 104.234 24.2351 104.558 24.2696C104.882 24.3044 105.185 24.2488 105.471 24.1032C105.757 23.9576 105.922 23.7121 105.967 23.3654C106.117 22.3678 106.324 21.3668 106.587 20.362C106.85 19.3574 107.151 18.4568 107.489 17.6599C107.827 16.863 108.203 16.2116 108.616 15.7058C109.03 15.2003 109.469 14.9471 109.935 14.9471C110.176 14.9471 110.36 15.0998 110.487 15.4044C110.615 15.7092 110.679 16.1249 110.679 16.6515C110.679 17.0397 110.645 17.4381 110.578 17.8468C110.51 18.2556 110.431 18.6783 110.341 19.1147C110.251 19.5514 110.172 19.9982 110.104 20.4554C110.037 20.9129 110.003 21.3907 110.003 21.8897C110.003 22.2362 110.041 22.6381 110.116 23.0953C110.191 23.5523 110.333 23.9859 110.544 24.3943C110.754 24.8033 111.044 25.1496 111.412 25.4336C111.781 25.7176 112.25 25.8598 112.821 25.8598C113.678 25.8598 114.436 25.6899 115.098 25.3505C115.759 25.0111 116.327 24.5678 116.8 24.0204C116.825 23.9917 116.847 23.9611 116.871 23.9326C116.908 24.0135 116.94 24.0993 116.98 24.1762C117.304 24.7859 117.743 25.2569 118.3 25.5897C118.855 25.9222 119.509 26.1058 120.261 26.1406C121.012 26.1749 121.832 26.0467 122.719 25.7558C123.38 25.5341 123.955 25.2569 124.443 24.9244C124.931 24.5919 125.371 24.1866 125.762 23.7084C126.153 23.2303 126.51 22.6795 126.833 22.0561C127.157 21.4322 127.483 20.7188 127.814 19.9148C127.874 19.6936 127.817 19.496 127.645 19.3225C127.472 19.1495 127.261 19.0282 127.013 18.9586Z" fill="#0D0C23"/>
<path fill-rule="evenodd" clip-rule="evenodd" d="M139.266 16.6401C139.191 17.0491 139.09 17.4998 138.962 17.9913C138.834 18.4834 138.673 18.9926 138.477 19.5192C138.282 20.0458 138.041 20.5205 137.756 20.9429C137.471 21.3659 137.143 21.7016 136.776 21.9511C136.407 22.2006 135.983 22.3045 135.502 22.2628C135.261 22.2354 135.077 22.0829 134.949 21.8055C134.821 21.5286 134.754 21.175 134.746 20.7454C134.738 20.3161 134.78 19.8449 134.87 19.332C134.96 18.8196 135.099 18.317 135.288 17.8249C135.475 17.3334 135.704 16.8793 135.975 16.4634C136.246 16.0478 136.557 15.7256 136.911 15.497C137.264 15.2683 137.651 15.1613 138.072 15.1747C138.492 15.1887 138.943 15.3825 139.424 15.7567C139.394 15.9371 139.342 16.2316 139.266 16.6401ZM147.281 18.2302C147.048 18.1195 146.808 18.0955 146.56 18.1577C146.312 18.2199 146.135 18.4314 146.03 18.7917C145.97 19.1798 145.835 19.6368 145.625 20.1634C145.414 20.69 145.154 21.1893 144.847 21.66C144.538 22.1312 144.185 22.5228 143.787 22.8345C143.389 23.1465 142.964 23.2886 142.513 23.2604C142.137 23.233 141.874 23.0563 141.724 22.7306C141.573 22.4049 141.495 21.9964 141.487 21.5041C141.479 21.0126 141.533 20.4583 141.645 19.8415C141.758 19.2249 141.893 18.6118 142.051 18.0016C142.209 17.3922 142.371 16.8065 142.536 16.2453C142.701 15.6842 142.836 15.2095 142.942 14.8216C143.062 14.4751 143.024 14.1808 142.829 13.9379C142.633 13.6958 142.389 13.5223 142.096 13.4184C141.803 13.3145 141.506 13.2868 141.205 13.3353C140.905 13.3839 140.71 13.5329 140.619 13.7821C139.732 13.0754 138.879 12.6943 138.061 12.6389C137.241 12.5835 136.486 12.7499 135.795 13.1378C135.103 13.5257 134.491 14.0869 133.957 14.8216C133.424 15.5563 132.991 16.3564 132.66 17.2224C132.33 18.0883 132.123 18.972 132.041 19.8726C131.958 20.7734 132.022 21.5946 132.232 22.3358C132.443 23.0771 132.815 23.6836 133.348 24.1543C133.882 24.6256 134.607 24.8613 135.524 24.8613C135.93 24.8613 136.321 24.7851 136.697 24.6327C137.072 24.48 137.418 24.2999 137.733 24.0921C138.049 23.8843 138.327 23.6659 138.568 23.4373C138.808 23.2087 138.996 23.0183 139.131 22.8656C139.236 23.3645 139.409 23.7875 139.65 24.1338C139.89 24.48 140.165 24.7645 140.473 24.9858C140.781 25.2073 141.104 25.3703 141.442 25.4744C141.78 25.5783 142.108 25.6303 142.423 25.6303C143.13 25.6303 143.79 25.4085 144.407 24.9649C145.023 24.5219 145.576 23.9777 146.064 23.3334C146.552 22.6889 146.955 22.0101 147.27 21.2963C147.586 20.5827 147.796 19.9488 147.902 19.3942C148.007 19.1864 147.988 18.9683 147.845 18.7397C147.702 18.5111 147.515 18.3415 147.281 18.2302Z" fill="#0D0C23"/>
<path fill-rule="evenodd" clip-rule="evenodd" d="M187.864 29.7057C187.737 30.1765 187.537 30.5755 187.266 30.901C186.996 31.2264 186.658 31.3961 186.252 31.4105C185.997 31.424 185.801 31.2991 185.666 31.0363C185.531 30.7726 185.437 30.4332 185.384 30.0177C185.331 29.6017 185.309 29.1374 185.316 28.6248C185.324 28.1123 185.346 27.6062 185.384 27.1074C185.421 26.6088 185.467 26.1441 185.519 25.7148C185.572 25.285 185.613 24.953 185.643 24.7172C186.154 24.7726 186.579 24.9767 186.917 25.3303C187.255 25.6837 187.515 26.1027 187.695 26.5879C187.875 27.0729 187.98 27.5962 188.011 28.1571C188.04 28.7184 187.992 29.2344 187.864 29.7057ZM179.702 29.7057C179.575 30.1765 179.376 30.5755 179.105 30.901C178.835 31.2264 178.496 31.3961 178.09 31.4105C177.835 31.424 177.64 31.2991 177.505 31.0363C177.369 30.7726 177.275 30.4332 177.223 30.0177C177.17 29.6017 177.147 29.1374 177.155 28.6248C177.162 28.1123 177.185 27.6062 177.223 27.1074C177.26 26.6088 177.305 26.1441 177.358 25.7148C177.411 25.285 177.451 24.953 177.482 24.7172C177.993 24.7726 178.418 24.9767 178.755 25.3303C179.094 25.6837 179.353 26.1027 179.534 26.5879C179.714 27.0729 179.819 27.5962 179.849 28.1571C179.879 28.7184 179.83 29.2344 179.702 29.7057ZM171.327 17.8994C171.312 18.2317 171.278 18.5262 171.225 18.7826C171.173 19.0394 171.102 19.2019 171.011 19.2712C170.846 19.1879 170.643 18.9735 170.402 18.6267C170.162 18.2805 169.975 17.8886 169.839 17.4522C169.704 17.0157 169.662 16.5864 169.715 16.1635C169.767 15.741 170.004 15.4122 170.425 15.1761C170.59 15.0931 170.733 15.1242 170.853 15.2698C170.974 15.4153 171.071 15.6265 171.147 15.9037C171.222 16.1811 171.274 16.4997 171.304 16.8599C171.334 17.2204 171.342 17.5666 171.327 17.8994ZM169.332 22.0462C169.098 22.2745 168.839 22.472 168.554 22.6385C168.268 22.8048 167.975 22.9296 167.675 23.0127C167.374 23.096 167.103 23.1165 166.863 23.0749C166.187 22.9504 165.668 22.6798 165.307 22.2643C164.947 21.8486 164.717 21.3603 164.62 20.7991C164.522 20.2377 164.533 19.6383 164.654 19.0009C164.774 18.3636 164.976 17.7713 165.262 17.2238C165.548 16.6763 165.894 16.2051 166.299 15.8104C166.705 15.4153 167.148 15.1696 167.629 15.0722C167.449 15.779 167.389 16.5102 167.449 17.2652C167.509 18.0205 167.705 18.7306 168.035 19.3957C168.245 19.7981 168.497 20.1649 168.79 20.4974C169.084 20.8302 169.441 21.1142 169.862 21.3497C169.741 21.5855 169.564 21.8175 169.332 22.0462ZM194.278 18.1072C194.323 17.7887 194.391 17.4522 194.481 17.0988C194.571 16.7457 194.684 16.4027 194.819 16.0701C194.954 15.7373 195.112 15.4499 195.293 15.2075C195.474 14.9652 195.665 14.7917 195.868 14.6878C196.071 14.5839 196.277 14.5942 196.487 14.7189C196.713 14.8439 196.852 15.107 196.905 15.5087C196.957 15.9108 196.905 16.3401 196.747 16.7977C196.589 17.2549 196.307 17.6845 195.902 18.0861C195.496 18.4885 194.947 18.7515 194.256 18.8762C194.226 18.6824 194.233 18.426 194.278 18.1072ZM203.364 18.1072C203.41 17.7887 203.477 17.4522 203.567 17.0988C203.657 16.7457 203.77 16.4027 203.906 16.0701C204.041 15.7373 204.198 15.4499 204.379 15.2075C204.559 14.9652 204.751 14.7917 204.954 14.6878C205.157 14.5839 205.363 14.5942 205.574 14.7189C205.799 14.8439 205.938 15.107 205.991 15.5087C206.043 15.9108 205.991 16.3401 205.833 16.7977C205.675 17.2549 205.393 17.6845 204.988 18.0861C204.582 18.4885 204.033 18.7515 203.342 18.8762C203.312 18.6824 203.319 18.426 203.364 18.1072ZM211.808 19.3232C211.635 19.1502 211.424 19.0289 211.177 18.9592C210.928 18.8901 210.692 18.8833 210.466 18.9387C210.241 18.994 210.097 19.1396 210.038 19.3751C209.917 19.8187 209.726 20.2725 209.463 20.7363C209.2 21.201 208.877 21.6409 208.493 22.0564C208.11 22.472 207.678 22.8397 207.197 23.1582C206.716 23.477 206.213 23.7057 205.687 23.8438C205.16 23.9968 204.724 24.0139 204.379 23.896C204.033 23.7784 203.759 23.5775 203.556 23.2935C203.353 23.0092 203.207 22.6664 203.116 22.2643C203.026 21.8626 202.973 21.447 202.959 21.0172C203.815 21.0728 204.578 20.931 205.247 20.5911C205.915 20.2517 206.483 19.801 206.95 19.2398C207.415 18.6789 207.768 18.0484 208.009 17.3486C208.249 16.6487 208.384 15.9525 208.415 15.2595C208.429 14.6081 208.324 14.0572 208.099 13.6068C207.874 13.1567 207.569 12.8065 207.186 12.5573C206.802 12.3076 206.363 12.1623 205.867 12.1206C205.371 12.0789 204.867 12.1417 204.356 12.3076C203.74 12.5019 203.218 12.8171 202.79 13.2535C202.361 13.6902 202.004 14.1962 201.719 14.7708C201.433 15.3462 201.207 15.9659 201.042 16.6313C200.876 17.2963 200.756 17.9514 200.682 18.5956C200.608 19.2208 200.569 19.8192 200.56 20.3919C200.503 20.5061 200.442 20.6209 200.377 20.7363C200.114 21.201 199.79 21.6409 199.407 22.0564C199.024 22.472 198.592 22.8397 198.111 23.1582C197.63 23.477 197.127 23.7057 196.601 23.8438C196.074 23.9968 195.639 24.0139 195.293 23.896C194.947 23.7784 194.673 23.5775 194.47 23.2935C194.267 23.0092 194.121 22.6664 194.03 22.2643C193.94 21.8626 193.887 21.447 193.872 21.0172C194.729 21.0728 195.492 20.931 196.161 20.5911C196.829 20.2517 197.397 19.801 197.863 19.2398C198.329 18.6789 198.682 18.0484 198.922 17.3486C199.163 16.6487 199.299 15.9525 199.328 15.2595C199.343 14.6081 199.238 14.0572 199.013 13.6068C198.787 13.1567 198.483 12.8065 198.099 12.5573C197.716 12.3076 197.277 12.1623 196.781 12.1206C196.285 12.0789 195.781 12.1417 195.27 12.3076C194.654 12.5019 194.132 12.8171 193.704 13.2535C193.275 13.6902 192.918 14.1962 192.632 14.7708C192.347 15.3462 192.122 15.9659 191.956 16.6313C191.791 17.2963 191.67 17.9514 191.596 18.5956C191.553 18.959 191.524 19.3113 191.503 19.6572C191.358 19.7712 191.216 19.8859 191.066 19.9985C190.547 20.3867 190.002 20.7363 189.431 21.0483C188.86 21.3603 188.266 21.6166 187.65 21.8175C187.033 22.0185 186.402 22.1398 185.756 22.1812L187.154 8.37917C187.244 8.08803 187.199 7.83201 187.019 7.61023C186.838 7.38845 186.605 7.23603 186.32 7.15297C186.034 7.06964 185.73 7.07673 185.407 7.17355C185.083 7.27084 184.817 7.49262 184.606 7.83858C184.501 8.36547 184.392 9.08589 184.279 10.0004C184.167 10.9149 184.054 11.9128 183.941 12.9937C183.828 14.0746 183.716 15.1901 183.603 16.3401C183.49 17.4907 183.393 18.5645 183.31 19.5621C183.306 19.6064 183.303 19.6465 183.299 19.6902C183.168 19.7931 183.04 19.8967 182.904 19.9985C182.386 20.3867 181.84 20.7363 181.269 21.0483C180.698 21.3603 180.105 21.6166 179.489 21.8175C178.872 22.0185 178.24 22.1398 177.594 22.1812L178.992 8.37917C179.083 8.08803 179.038 7.83201 178.857 7.61023C178.677 7.38845 178.444 7.23603 178.158 7.15297C177.873 7.06964 177.568 7.07673 177.245 7.17355C176.922 7.27084 176.655 7.49262 176.445 7.83858C176.339 8.36547 176.231 9.08589 176.118 10.0004C176.005 10.9149 175.893 11.9128 175.78 12.9937C175.667 14.0746 175.554 15.1901 175.442 16.3401C175.329 17.4907 175.231 18.5645 175.149 19.5621C175.147 19.5821 175.145 19.6003 175.143 19.6204C174.907 19.7213 174.65 19.81 174.37 19.8843C174.085 19.9608 173.762 20.0059 173.401 20.0196C173.461 19.7699 173.51 19.4927 173.547 19.1879C173.585 18.8833 173.616 18.5645 173.638 18.2317C173.661 17.8994 173.668 17.5666 173.661 17.2341C173.653 16.9013 173.634 16.5967 173.604 16.3193C173.529 15.7239 173.39 15.159 173.187 14.6253C172.984 14.0921 172.71 13.6454 172.364 13.2846C172.018 12.9244 171.587 12.6818 171.067 12.5573C170.549 12.4326 169.944 12.474 169.253 12.6818C168.23 12.5573 167.31 12.6441 166.491 12.9418C165.672 13.24 164.961 13.6728 164.36 14.2408C163.759 14.8093 163.267 15.4775 162.884 16.2468C162.5 17.0157 162.245 17.8058 162.117 18.6162C162.063 18.9598 162.037 19.3018 162.029 19.643C161.796 20.0824 161.541 20.4663 161.26 20.7886C160.862 21.2458 160.449 21.62 160.02 21.9109C159.592 22.202 159.167 22.4238 158.747 22.5762C158.326 22.7289 157.95 22.8328 157.619 22.8879C157.228 22.9573 156.853 22.9644 156.492 22.9088C156.131 22.8536 155.8 22.6941 155.5 22.4306C155.26 22.2368 155.075 21.9249 154.948 21.4953C154.82 21.0657 154.745 20.5776 154.723 20.0299C154.7 19.4824 154.723 18.9107 154.79 18.315C154.857 17.7193 154.974 17.1545 155.139 16.621C155.305 16.0875 155.514 15.6094 155.771 15.1864C156.026 14.7643 156.327 14.4626 156.673 14.2825C156.867 14.3104 156.988 14.4175 157.033 14.6044C157.078 14.7917 157.089 15.0135 157.067 15.2698C157.045 15.5263 157.011 15.7895 156.966 16.0596C156.92 16.3299 156.898 16.5553 156.898 16.7352C156.973 17.1094 157.119 17.4005 157.338 17.6083C157.555 17.8161 157.8 17.9377 158.07 17.972C158.341 18.0068 158.607 17.9479 158.871 17.7952C159.133 17.6431 159.347 17.4005 159.513 17.0677C159.528 17.0817 159.551 17.0885 159.581 17.0885L159.897 14.4488C159.986 14.0884 159.926 13.7698 159.716 13.4927C159.505 13.2155 159.227 13.056 158.882 13.0146C158.446 12.4326 157.856 12.1243 157.112 12.0895C156.368 12.055 155.605 12.2801 154.824 12.7651C154.343 13.0842 153.918 13.5238 153.55 14.085C153.181 14.6464 152.881 15.2698 152.648 15.9557C152.415 16.6415 152.249 17.366 152.152 18.1281C152.054 18.8901 152.036 19.6317 152.095 20.3519C152.155 21.0728 152.295 21.7519 152.513 22.389C152.731 23.0266 153.035 23.5601 153.426 23.9894C153.757 24.3636 154.132 24.6376 154.553 24.8108C154.974 24.9841 155.413 25.0912 155.872 25.1328C156.33 25.1742 156.785 25.1568 157.236 25.0809C157.687 25.0049 158.115 24.8976 158.521 24.7586C159.047 24.5788 159.589 24.3499 160.144 24.0727C160.7 23.7958 161.234 23.463 161.745 23.0749C162.014 22.8708 162.273 22.6482 162.523 22.4095C162.637 22.6701 162.764 22.9222 162.918 23.1582C163.323 23.7816 163.872 24.2876 164.563 24.6755C165.254 25.0635 166.104 25.2502 167.111 25.2367C168.193 25.2228 169.192 24.9701 170.109 24.478C171.026 23.9865 171.778 23.2618 172.364 22.3059C173.242 22.3059 174.106 22.1725 174.955 21.9075C174.948 21.9913 174.941 22.0796 174.934 22.1606C174.874 22.895 174.844 23.3937 174.844 23.6571C174.829 24.1144 174.795 24.679 174.743 25.3509C174.69 26.0231 174.656 26.7298 174.641 27.4709C174.627 28.2124 174.656 28.9608 174.732 29.7161C174.807 30.4711 174.964 31.1572 175.205 31.7742C175.445 32.3904 175.787 32.9138 176.231 33.3437C176.674 33.7727 177.256 34.0294 177.978 34.1126C178.745 34.2091 179.406 34.0847 179.962 33.7384C180.518 33.3916 180.969 32.9173 181.315 32.3146C181.661 31.7116 181.904 31.0154 182.048 30.2256C182.19 29.4355 182.231 28.6423 182.172 27.8451C182.111 27.0484 181.953 26.2968 181.698 25.5903C181.442 24.8834 181.089 24.3013 180.638 23.8438C180.909 23.775 181.232 23.6434 181.608 23.4491C181.983 23.2552 182.37 23.0369 182.769 22.7943C182.867 22.7347 182.963 22.6719 183.061 22.6107C183.024 23.1018 183.006 23.452 183.006 23.6571C182.991 24.1144 182.957 24.679 182.904 25.3509C182.852 26.0231 182.818 26.7298 182.803 27.4709C182.788 28.2124 182.818 28.9608 182.893 29.7161C182.968 30.4711 183.126 31.1572 183.366 31.7742C183.606 32.3904 183.949 32.9138 184.392 33.3437C184.835 33.7727 185.418 34.0294 186.14 34.1126C186.906 34.2091 187.567 34.0847 188.123 33.7384C188.68 33.3916 189.13 32.9173 189.476 32.3146C189.822 31.7116 190.066 31.0154 190.209 30.2256C190.352 29.4355 190.393 28.6423 190.333 27.8451C190.273 27.0484 190.115 26.2968 189.86 25.5903C189.604 24.8834 189.251 24.3013 188.799 23.8438C189.07 23.775 189.393 23.6434 189.769 23.4491C190.145 23.2552 190.532 23.0369 190.931 22.7943C191.137 22.6683 191.343 22.5382 191.548 22.4045C191.626 23.0822 191.792 23.6766 192.057 24.1766C192.381 24.7866 192.82 25.2576 193.376 25.5903C193.932 25.9226 194.586 26.1064 195.338 26.1409C196.09 26.1752 196.908 26.0473 197.796 25.7562C198.457 25.5347 199.032 25.2576 199.52 24.925C200.008 24.5922 200.448 24.1869 200.839 23.7091C200.862 23.6814 200.883 23.6513 200.905 23.6234C200.975 23.8175 201.052 24.0039 201.143 24.1766C201.467 24.7866 201.907 25.2576 202.462 25.5903C203.018 25.9226 203.672 26.1064 204.424 26.1409C205.175 26.1752 205.994 26.0473 206.881 25.7562C207.543 25.5347 208.118 25.2576 208.606 24.925C209.094 24.5922 209.534 24.1869 209.925 23.7091C210.316 23.2307 210.672 22.6798 210.996 22.0564C211.319 21.4328 211.646 20.7195 211.977 19.9154C212.037 19.6939 211.98 19.4964 211.808 19.3232Z" fill="#0D0C23"/>
</svg>
