<svg width="212" height="38" viewBox="0 0 212 38" fill="none" xmlns="http://www.w3.org/2000/svg">
<path d="M27.8749 10.1352L27.6522 9.08277C27.4519 8.13849 26.9978 7.24625 25.9616 6.90496C25.6297 6.7958 25.2526 6.74886 24.998 6.5229C24.7434 6.2969 24.6681 5.94593 24.6093 5.62044C24.5004 5.02306 24.3977 4.42518 24.286 3.82884C24.1895 3.31616 24.1129 2.74019 23.8617 2.26987C23.5347 1.6383 22.8558 1.26897 22.1806 1.02461C21.8346 0.903791 21.4815 0.801595 21.1232 0.718529C19.4365 0.302229 17.6632 0.149186 15.928 0.0619765C13.8454 -0.0455255 11.7571 -0.0131512 9.67937 0.158906C8.1329 0.290495 6.5041 0.449696 5.03449 0.950107C4.49735 1.13328 3.9439 1.35312 3.53546 1.74135C3.03433 2.21833 2.87074 2.95601 3.23663 3.5508C3.49675 3.97321 3.93736 4.27163 4.40467 4.46905C5.01338 4.72344 5.64908 4.91699 6.30122 5.04653C8.11709 5.42201 9.99787 5.56944 11.853 5.63217C13.9091 5.70982 15.9686 5.64689 18.0149 5.44393C18.521 5.39192 19.0261 5.32949 19.5303 5.25673C20.1241 5.17153 20.5053 4.44508 20.3303 3.93902C20.1209 3.33401 19.5581 3.09933 18.9217 3.19065C18.828 3.20443 18.7347 3.21717 18.6409 3.22995L18.5733 3.23913C18.3577 3.26461 18.1421 3.28843 17.9266 3.31054C17.4812 3.35542 17.0348 3.39217 16.5873 3.42072C15.5851 3.48601 14.58 3.51614 13.5756 3.51765C12.5886 3.51765 11.6011 3.49162 10.6162 3.43094C10.1669 3.40337 9.71866 3.36836 9.27151 3.32584C9.06809 3.30593 8.86526 3.28502 8.66238 3.26155L8.46936 3.23859L8.42738 3.23301L8.22724 3.20594C7.81826 3.14832 7.40928 3.08198 7.00468 3.0019C6.96387 2.99342 6.92732 2.9722 6.90116 2.94168C6.87499 2.91117 6.86071 2.87318 6.86071 2.83406C6.86071 2.79495 6.87499 2.757 6.90116 2.72648C6.92732 2.69597 6.96387 2.67471 7.00468 2.66623H7.0123C7.36296 2.59633 7.7163 2.53665 8.07073 2.4846C8.18891 2.46729 8.30742 2.45025 8.42627 2.4336H8.42954C8.6515 2.41982 8.87453 2.3826 9.09537 2.35809C11.0168 2.17112 12.9497 2.10738 14.8805 2.16733C15.8179 2.19281 16.7547 2.24435 17.6877 2.33311C17.8884 2.35251 18.088 2.37292 18.2876 2.39585C18.3639 2.40452 18.4408 2.41474 18.5177 2.42342L18.6725 2.44433C19.1241 2.50722 19.5732 2.58359 20.02 2.67339C20.682 2.80804 21.532 2.85192 21.8267 3.53043C21.9203 3.7457 21.9629 3.98495 22.0146 4.21095L22.0809 4.49914C22.0825 4.50433 22.0838 4.50964 22.0846 4.51498C22.2407 5.19516 22.3967 5.87533 22.5528 6.55554C22.5644 6.60577 22.5648 6.6577 22.5536 6.70804C22.5428 6.75839 22.5209 6.8061 22.4894 6.84815C22.458 6.89025 22.4174 6.9258 22.3706 6.9526C22.3239 6.97939 22.2713 6.99686 22.2171 7.00395H22.2125L22.1173 7.01618L22.0229 7.02792C21.7241 7.06432 21.4248 7.09832 21.1253 7.12996C20.5353 7.19285 19.9444 7.2473 19.3525 7.29319C18.1765 7.3847 16.9981 7.44472 15.8173 7.47326C15.2157 7.48825 14.6142 7.49522 14.0129 7.49417C11.6196 7.49243 9.22834 7.36231 6.8509 7.10444C6.59351 7.07586 6.33615 7.04527 6.07876 7.01413C6.27833 7.03814 5.93371 6.99578 5.86392 6.9866C5.70033 6.96518 5.53674 6.94291 5.37314 6.91976C4.824 6.84273 4.27817 6.74785 3.73014 6.66471C3.06757 6.56267 2.43394 6.61371 1.83467 6.91976C1.34273 7.17159 0.944593 7.5578 0.693326 8.02676C0.434856 8.52671 0.357987 9.07104 0.242371 9.6082C0.126755 10.1454 -0.053189 10.7234 0.0149884 11.2748C0.161651 12.465 1.05106 13.4322 2.33033 13.6485C3.5338 13.8526 4.74386 14.0179 5.95714 14.1586C10.7233 14.7047 15.5383 14.7701 20.3194 14.3535C20.7087 14.3195 21.0975 14.2824 21.4856 14.2423C21.6069 14.2299 21.7298 14.2429 21.8449 14.2806C21.96 14.3182 22.0647 14.3795 22.1512 14.4599C22.2378 14.5403 22.3044 14.6378 22.3454 14.7453C22.3864 14.8528 22.4013 14.9675 22.3889 15.081L22.2676 16.1819C22.0237 18.4064 21.7799 20.6308 21.5361 22.855C21.2815 25.1908 21.0253 27.5264 20.7676 29.8616C20.6949 30.5195 20.6222 31.1771 20.5495 31.8347C20.4797 32.4818 20.4699 33.1498 20.3384 33.7895C20.1313 34.7952 19.4032 35.4133 18.341 35.639C17.3678 35.8462 16.3737 35.955 15.3756 35.9636C14.2692 35.969 13.1633 35.9233 12.0569 35.9287C10.8758 35.9349 9.4291 35.8331 8.51734 35.0105C7.7163 34.2883 7.60561 33.1571 7.49654 32.1793C7.35112 30.8847 7.20698 29.5901 7.06413 28.2955L6.26251 21.0981L5.74392 16.441C5.73523 16.364 5.72649 16.288 5.71829 16.2104C5.65616 15.6549 5.23571 15.1111 4.57319 15.1391C4.00604 15.1626 3.36152 15.6136 3.42804 16.2104L3.81247 19.663L4.6075 26.805C4.83402 28.8338 5.05995 30.8626 5.28535 32.8919C5.32898 33.2807 5.36987 33.6706 5.41566 34.059C5.66485 36.1835 7.39893 37.3282 9.54633 37.6504C10.8006 37.8394 12.0853 37.8782 13.358 37.8975C14.9896 37.9219 16.6375 37.9808 18.2423 37.7043C20.6204 37.2961 22.4046 35.8106 22.6592 33.506C22.732 32.8411 22.8049 32.1754 22.8773 31.5101C23.1191 29.309 23.3604 27.1077 23.6017 24.9063L24.3899 17.7133L24.7517 14.4168C24.7695 14.2533 24.8436 14.0996 24.962 13.9784C25.0808 13.8573 25.2381 13.775 25.4103 13.7439C26.0904 13.6199 26.7403 13.4083 27.2242 12.9241C27.9941 12.1533 28.1473 11.1483 27.8749 10.1352ZM2.29543 10.8463C2.30578 10.8417 2.2867 10.9249 2.27854 10.9637C2.27689 10.905 2.28016 10.853 2.29543 10.8463ZM2.36142 11.3238C2.36688 11.3203 2.38323 11.3407 2.40012 11.3651C2.3745 11.3427 2.35815 11.3259 2.36088 11.3238H2.36142ZM2.42632 11.4039C2.4623 11.4646 2.44975 11.4412 2.42632 11.4039ZM2.55664 11.5029H2.55991C2.55991 11.5064 2.56591 11.51 2.5681 11.5136C2.56446 11.5097 2.56044 11.5061 2.5561 11.5029H2.55664ZM25.3788 11.3549C25.1346 11.5722 24.7662 11.6733 24.4027 11.7238C20.3237 12.29 16.1854 12.5767 12.0618 12.4502C9.11065 12.3558 6.19053 12.0492 3.26879 11.663C2.98251 11.6253 2.67225 11.5763 2.47538 11.3789C2.10456 11.0065 2.2867 10.2566 2.38323 9.80667C2.47157 9.39447 2.64063 8.84503 3.16464 8.78636C3.98261 8.6966 4.93254 9.01949 5.74177 9.13427C6.71604 9.27338 7.69395 9.38475 8.67551 9.46844C12.8645 9.82552 17.1239 9.76991 21.2944 9.24755C22.0544 9.15197 22.8119 9.04095 23.5665 8.91443C24.2392 8.80166 24.9843 8.58999 25.3908 9.24143C25.6694 9.68522 25.7062 10.279 25.6632 10.7805C25.6499 10.999 25.5481 11.2045 25.378 11.3549H25.3788Z" fill="#0D0C22"/>
<path d="M14.9755 17.5169C13.5195 18.1 11.8673 18.7612 9.72587 18.7612C8.83004 18.7595 7.9386 18.6445 7.07568 18.4194L8.55675 32.6448C8.60916 33.2392 8.89872 33.7938 9.36784 34.1977C9.83697 34.602 10.4514 34.8262 11.0891 34.8258C11.0891 34.8258 13.1891 34.928 13.8898 34.928C14.644 34.928 16.9054 34.8258 16.9054 34.8258C17.543 34.8258 18.1573 34.6016 18.6263 34.1977C19.0953 33.7934 19.3848 33.2392 19.4372 32.6448L21.0235 16.9252C20.3146 16.6987 19.5992 16.5482 18.7926 16.5482C17.3978 16.5477 16.2739 16.9971 14.9755 17.5169Z" fill="white"/>
<path fill-rule="evenodd" clip-rule="evenodd" d="M57.7515 19.8624C57.4795 20.3914 57.1052 20.8521 56.6288 21.2431C56.1524 21.6343 55.597 21.9528 54.9616 22.1981C54.3266 22.4439 53.6875 22.6088 53.045 22.6929C52.402 22.7773 51.778 22.77 51.1738 22.6698C50.5687 22.5703 50.0539 22.3671 49.631 22.0599L50.1079 17.0202C50.546 16.8669 51.0976 16.7095 51.7633 16.5484C52.4285 16.3875 53.1126 16.2722 53.8162 16.2033C54.5197 16.1341 55.1844 16.1422 55.8122 16.2263C56.4396 16.3107 56.9349 16.5139 57.2978 16.8362C57.4946 17.0202 57.6612 17.2196 57.7969 17.4344C57.9332 17.6494 58.016 17.8718 58.0467 18.1019C58.122 18.7462 58.024 19.3331 57.7515 19.8624ZM50.8332 9.12679C51.1506 8.9274 51.5329 8.75074 51.9786 8.59716C52.4247 8.44421 52.8822 8.33645 53.3511 8.27517C53.8195 8.21413 54.277 8.20595 54.7236 8.2521C55.1693 8.2982 55.5629 8.42466 55.9031 8.63166C56.2432 8.83895 56.4963 9.1382 56.6629 9.52913C56.8289 9.92064 56.8744 10.4155 56.7987 11.0137C56.7386 11.4893 56.5526 11.8922 56.2432 12.2219C55.9333 12.552 55.5548 12.8279 55.1092 13.0504C54.663 13.2732 54.1904 13.4495 53.6917 13.5794C53.1921 13.7102 52.7119 13.8063 52.2511 13.8673C51.7898 13.9289 51.3891 13.9675 51.0489 13.9824C50.7087 13.9978 50.4854 14.0054 50.3794 14.0054L50.8332 9.12679ZM60.2013 16.6059C59.9595 16.0693 59.6345 15.5974 59.2262 15.1905C58.8179 14.7841 58.3334 14.4889 57.7742 14.3047C58.016 14.1053 58.2544 13.7908 58.4891 13.3611C58.7233 12.9319 58.9234 12.4636 59.09 11.9573C59.256 11.4508 59.37 10.941 59.4301 10.4269C59.4902 9.91303 59.4675 9.4719 59.3625 9.10342C59.1046 8.18321 58.7006 7.46205 58.1485 6.94032C57.5963 6.41889 56.9538 6.05831 56.2205 5.85863C55.4867 5.65982 54.6782 5.61718 53.7934 5.73222C52.9087 5.84721 52.0051 6.07349 51.083 6.41099C51.083 6.33449 51.0905 6.25394 51.1057 6.16954C51.1203 6.08548 51.1279 5.99699 51.1279 5.90473C51.1279 5.6747 51.0148 5.47555 50.7877 5.30651C50.5611 5.13776 50.3004 5.03823 50.0057 5.00726C49.7105 4.97691 49.4233 5.0417 49.1432 5.20289C48.8636 5.36403 48.6706 5.65982 48.5651 6.08866C48.4439 7.46966 48.3228 8.90432 48.2022 10.3922C48.0811 11.8805 47.9524 13.3841 47.8166 14.9032C47.6803 16.4219 47.5441 17.9293 47.4083 19.425C47.272 20.921 47.1358 22.3592 47 23.7399C47.0454 24.1542 47.1585 24.4765 47.3402 24.7066C47.5214 24.9369 47.7333 25.075 47.9751 25.1209C48.2168 25.167 48.4704 25.1243 48.7349 24.9941C48.9994 24.8642 49.2303 24.6373 49.4271 24.3153C50.0317 24.6529 50.7125 24.8715 51.4686 24.9714C52.2246 25.0709 52.9915 25.0709 53.7712 24.9714C54.5495 24.8715 55.3169 24.6838 56.0729 24.4073C56.8289 24.1314 57.5173 23.786 58.1371 23.372C58.7574 22.9577 59.2787 22.4856 59.7026 21.9566C60.1256 21.427 60.4057 20.8556 60.5415 20.2422C60.6777 19.6131 60.7156 18.9842 60.655 18.355C60.5945 17.7261 60.4431 17.1434 60.2013 16.6059Z" fill="#0D0C23"/>
<path fill-rule="evenodd" clip-rule="evenodd" d="M82.3312 28.7564C82.2484 29.2627 82.1306 29.796 81.9797 30.3562C81.8283 30.9155 81.6509 31.4262 81.447 31.8867C81.2426 32.3468 81.016 32.7182 80.7666 33.0024C80.5168 33.2862 80.2481 33.4051 79.9609 33.3594C79.7343 33.3281 79.5905 33.1826 79.5304 32.922C79.4693 32.6609 79.4693 32.3386 79.5304 31.9556C79.5905 31.5716 79.7073 31.1381 79.8814 30.6549C80.0555 30.1717 80.2675 29.6919 80.5168 29.2169C80.7666 28.741 81.05 28.2848 81.3675 27.8473C81.6849 27.4105 82.0175 27.0458 82.3653 26.7545C82.441 26.8464 82.475 27.0765 82.4675 27.4449C82.4594 27.8131 82.4145 28.2506 82.3312 28.7564ZM90.0212 18.7689C89.8168 18.5388 89.5675 18.4086 89.2723 18.3776C88.9775 18.3469 88.6785 18.5157 88.3767 18.8839C88.1798 19.252 87.93 19.605 87.6277 19.9425C87.3254 20.2803 87.0117 20.5869 86.6867 20.8631C86.3612 21.139 86.0513 21.3772 85.7566 21.5763C85.4618 21.776 85.2309 21.9217 85.0649 22.0136C85.0043 21.5229 84.9698 20.9936 84.9627 20.4257C84.9546 19.8581 84.9665 19.283 84.9967 18.6999C85.0417 17.8714 85.1363 17.0355 85.2801 16.1914C85.424 15.3477 85.6317 14.5191 85.9042 13.7057C85.9042 13.2765 85.8053 12.9274 85.609 12.6587C85.4121 12.3905 85.1742 12.2214 84.8945 12.1525C84.6145 12.0836 84.3278 12.1218 84.0325 12.2675C83.7378 12.4135 83.4847 12.6783 83.2727 13.0614C83.0915 13.5679 82.8833 14.1354 82.6491 14.7644C82.4145 15.3935 82.15 16.0341 81.8553 16.686C81.56 17.3385 81.2312 17.9712 80.8683 18.5846C80.5055 19.1986 80.1085 19.7434 79.6775 20.2187C79.2465 20.6943 78.7777 21.0665 78.2714 21.3349C77.7642 21.6034 77.2169 21.7223 76.6269 21.6916C76.3544 21.6149 76.1575 21.4079 76.0369 21.0701C75.9158 20.7328 75.8439 20.3107 75.8216 19.8044C75.7989 19.2981 75.8216 18.742 75.8893 18.1358C75.9574 17.5301 76.0483 16.9277 76.1618 16.3295C76.2749 15.731 76.3998 15.1634 76.5356 14.6265C76.6718 14.0896 76.8 13.6368 76.9212 13.2687C77.1028 12.824 77.1028 12.4514 76.9212 12.1525C76.74 11.8532 76.4906 11.6541 76.1732 11.554C75.8557 11.4544 75.5226 11.4585 75.1749 11.5657C74.8272 11.6731 74.5773 11.9107 74.4264 12.2789C74.1691 12.9084 73.9344 13.6137 73.7229 14.3962C73.5114 15.1787 73.3411 15.9882 73.2129 16.8241C73.0842 17.6606 73.0118 18.4892 72.9971 19.3098C72.9962 19.3633 72.9986 19.414 72.9986 19.4672C72.6688 20.3591 72.3547 21.0333 72.0561 21.4844C71.6705 22.0676 71.2353 22.3208 70.7517 22.2437C70.5393 22.1518 70.4002 21.9371 70.3321 21.5993C70.2635 21.2621 70.2413 20.8479 70.2635 20.3565C70.2867 19.866 70.3434 19.3098 70.4338 18.6883C70.5251 18.067 70.6377 17.4226 70.774 16.7552C70.9102 16.0875 71.0541 15.4169 71.205 14.7416C71.3564 14.0666 71.4922 13.4298 71.6138 12.8313C71.5986 12.2944 71.4434 11.8842 71.1482 11.6001C70.8539 11.3166 70.4414 11.2054 69.9124 11.2664C69.5496 11.4199 69.2808 11.6197 69.1072 11.8649C68.9331 12.1101 68.7931 12.4249 68.6875 12.8082C68.6265 13.0079 68.5361 13.4067 68.415 14.0052C68.2939 14.6032 68.1392 15.2902 67.95 16.0647C67.7612 16.8399 67.5379 17.6489 67.281 18.4926C67.0241 19.3364 66.7364 20.1002 66.4194 20.7825C66.1015 21.4651 65.7538 22.0136 65.3757 22.4279C64.9977 22.8419 64.5894 23.011 64.1509 22.9342C63.9086 22.8881 63.7539 22.6349 63.6858 22.1748C63.6177 21.7144 63.6068 21.1471 63.6517 20.4718C63.6971 19.7968 63.788 19.0564 63.9238 18.2512C64.06 17.4457 64.1996 16.6825 64.3434 15.9611C64.4872 15.2402 64.6197 14.6032 64.7408 14.0511C64.8615 13.4987 64.9447 13.1305 64.9902 12.9466C64.9902 12.5017 64.8913 12.1452 64.6954 11.8763C64.4986 11.6083 64.2606 11.4392 63.9805 11.37C63.7004 11.3011 63.4133 11.3394 63.119 11.4851C62.8238 11.631 62.5707 11.8959 62.3587 12.2789C62.283 12.6932 62.1846 13.1729 62.064 13.7174C61.9428 14.2619 61.826 14.8219 61.7124 15.3973C61.5989 15.9727 61.4929 16.5365 61.395 17.0889C61.2966 17.6413 61.2246 18.1245 61.1792 18.5388C61.149 18.8608 61.1149 19.2561 61.0775 19.7238C61.0392 20.1921 61.0203 20.6867 61.0203 21.2081C61.0203 21.7302 61.0581 22.2478 61.1343 22.7616C61.2095 23.2758 61.3458 23.7476 61.5421 24.1768C61.7384 24.6065 62.0147 24.9592 62.3705 25.2354C62.7254 25.5116 63.1753 25.6649 63.7198 25.6958C64.2791 25.7262 64.7669 25.6844 65.1832 25.5691C65.5986 25.4541 65.9766 25.2737 66.3172 25.0281C66.6574 24.7831 66.9673 24.4915 67.2474 24.1537C67.5265 23.8165 67.8028 23.4484 68.0749 23.0492C68.3322 23.6326 68.6648 24.0848 69.0731 24.4071C69.4814 24.7291 69.9124 24.9213 70.3662 24.9823C70.8194 25.0433 71.2812 24.9788 71.75 24.7867C72.2184 24.5951 72.6418 24.269 73.0199 23.8086C73.2692 23.5263 73.5038 23.2054 73.7243 22.8507C73.818 23.0168 73.9174 23.1771 74.0295 23.3251C74.3999 23.8165 74.9028 24.1537 75.5382 24.3379C76.2186 24.5221 76.8833 24.5531 77.5338 24.4302C78.1839 24.3076 78.8041 24.0848 79.3936 23.7628C79.9836 23.4404 80.5315 23.0533 81.0387 22.6005C81.5449 22.1479 81.9873 21.6764 82.3653 21.1851C82.3501 21.5381 82.3426 21.8721 82.3426 22.1862C82.3426 22.5009 82.335 22.8419 82.3203 23.2104C81.5638 23.7476 80.8494 24.3919 80.1767 25.1434C79.5034 25.895 78.9134 26.6967 78.4072 27.5482C77.9005 28.3994 77.5036 29.2627 77.2168 30.137C76.9292 31.0119 76.7892 31.8289 76.7967 32.5886C76.8043 33.3478 76.9817 34.0112 77.3299 34.5787C77.6772 35.1466 78.2445 35.5527 79.0308 35.7984C79.8478 36.0595 80.5656 36.0667 81.1863 35.8215C81.8061 35.5758 82.3464 35.1693 82.8076 34.6018C83.2689 34.0343 83.6469 33.3478 83.9422 32.5423C84.2369 31.7369 84.4711 30.8967 84.6452 30.0224C84.8188 29.148 84.9286 28.2881 84.974 27.4449C85.0194 26.6009 85.0194 25.8488 84.974 25.1893C86.2746 24.6372 87.3405 23.9391 88.1723 23.095C89.004 22.2519 89.6919 21.3617 90.2365 20.4257C90.4025 20.1956 90.4593 19.9194 90.4068 19.5974C90.3533 19.2751 90.2251 18.9989 90.0212 18.7689Z" fill="#0D0C23"/>
<path fill-rule="evenodd" clip-rule="evenodd" d="M118.636 17.2966C118.681 16.9439 118.749 16.5716 118.84 16.1804C118.93 15.7892 119.044 15.4093 119.18 15.0412C119.316 14.6731 119.475 14.3548 119.657 14.0862C119.838 13.8179 120.031 13.6261 120.235 13.5108C120.439 13.396 120.646 13.4074 120.859 13.5452C121.085 13.6836 121.225 13.975 121.278 14.4196C121.331 14.8651 121.278 15.3405 121.119 15.8467C120.96 16.3533 120.677 16.8285 120.269 17.2735C119.86 17.7187 119.308 18.0098 118.613 18.1479C118.583 17.9336 118.59 17.6496 118.636 17.2966ZM126.495 18.2399C126.246 18.1637 126.008 18.1558 125.781 18.2171C125.554 18.2784 125.41 18.4396 125.35 18.7006C125.228 19.1914 125.035 19.6938 124.771 20.2077C124.506 20.7218 124.181 21.2088 123.796 21.6692C123.411 22.1293 122.975 22.5361 122.492 22.8888C122.007 23.2417 121.501 23.4948 120.972 23.6481C120.442 23.8172 120.004 23.8361 119.657 23.7056C119.308 23.5757 119.033 23.353 118.829 23.0385C118.624 22.7241 118.477 22.3442 118.386 21.8993C118.295 21.4543 118.242 20.9942 118.227 20.5183C119.089 20.5799 119.857 20.4229 120.53 20.0466C121.202 19.6711 121.773 19.1721 122.242 18.5508C122.711 17.9296 123.066 17.2315 123.308 16.4566C123.55 15.6821 123.686 14.911 123.716 14.1437C123.732 13.4226 123.626 12.813 123.399 12.3143C123.172 11.8159 122.866 11.4279 122.48 11.152C122.095 10.8759 121.652 10.7147 121.154 10.6689C120.655 10.6227 120.148 10.6919 119.633 10.8759C119.013 11.0907 118.488 11.4396 118.057 11.9231C117.626 12.4063 117.267 12.9665 116.98 13.603C116.693 14.2398 116.465 14.9262 116.299 15.6625C116.133 16.3991 116.012 17.124 115.936 17.8376C115.868 18.4778 115.832 19.0901 115.819 19.681C115.787 19.756 115.755 19.8281 115.721 19.9084C115.486 20.4535 115.214 20.9866 114.904 21.508C114.594 22.0298 114.25 22.4671 113.872 22.8198C113.494 23.1728 113.101 23.2954 112.693 23.188C112.451 23.127 112.319 22.8426 112.296 22.3366C112.273 21.8301 112.299 21.2012 112.375 20.4494C112.451 19.6979 112.538 18.8843 112.636 18.0098C112.734 17.1354 112.783 16.2995 112.783 15.5016C112.783 14.8111 112.654 14.1478 112.398 13.5108C112.14 12.8746 111.789 12.345 111.343 11.9231C110.897 11.5009 110.379 11.2209 109.789 11.0831C109.199 10.9447 108.564 11.037 107.884 11.359C107.203 11.6814 106.663 12.1339 106.262 12.7169C105.861 13.3002 105.494 13.9136 105.162 14.558C105.041 14.0669 104.863 13.6109 104.629 13.1887C104.394 12.7669 104.107 12.3987 103.767 12.084C103.426 11.7698 103.044 11.5243 102.622 11.3476C102.198 11.1716 101.752 11.0831 101.283 11.0831C100.829 11.0831 100.41 11.1716 100.024 11.3476C99.6386 11.5243 99.2871 11.7503 98.9692 12.0264C98.6517 12.3029 98.3646 12.6133 98.1072 12.9586C97.8503 13.3038 97.6232 13.6454 97.4268 13.9826C97.3961 13.5838 97.3625 13.2349 97.3251 12.9353C97.2868 12.6364 97.2187 12.3832 97.1207 12.1762C97.0223 11.9689 96.8828 11.8119 96.7011 11.7044C96.5194 11.5973 96.2625 11.5433 95.9299 11.5433C95.7634 11.5433 95.5968 11.5777 95.4308 11.6466C95.2642 11.7158 95.1166 11.8119 94.9884 11.9345C94.8597 12.0577 94.7618 12.2068 94.6937 12.3832C94.6255 12.5596 94.6071 12.7631 94.6369 12.9931C94.652 13.1621 94.6937 13.3651 94.7618 13.603C94.8295 13.841 94.8938 14.1519 94.9544 14.5349C95.0149 14.9186 95.0641 15.3828 95.102 15.9273C95.1398 16.4721 95.1507 17.1395 95.136 17.9296C95.1204 18.7199 95.0641 19.6439 94.9657 20.7025C94.8673 21.7612 94.7121 22.9886 94.5006 24.3845C94.4704 24.7067 94.5915 24.9678 94.864 25.1672C95.136 25.3663 95.4459 25.4813 95.7937 25.5122C96.1414 25.5429 96.4707 25.4813 96.7806 25.3283C97.0905 25.1745 97.2684 24.9062 97.3133 24.5228C97.3587 23.8017 97.4458 23.0347 97.5745 22.2213C97.7027 21.4085 97.8616 20.603 98.0509 19.8051C98.2397 19.0074 98.4549 18.2481 98.6972 17.5266C98.9389 16.8055 99.2076 16.169 99.5024 15.6166C99.7976 15.0643 100.104 14.6234 100.421 14.2935C100.739 13.9636 101.071 13.7986 101.419 13.7986C101.842 13.7986 102.171 13.994 102.406 14.3852C102.64 14.7767 102.806 15.2794 102.905 15.8925C103.003 16.5065 103.048 17.178 103.041 17.9065C103.033 18.6352 103.003 19.337 102.95 20.0121C102.897 20.6874 102.837 21.2894 102.769 21.8187C102.701 22.3481 102.651 22.7127 102.622 22.9118C102.622 23.2648 102.754 23.5445 103.018 23.7518C103.283 23.9587 103.577 24.0817 103.903 24.1199C104.228 24.1585 104.534 24.0969 104.822 23.9357C105.109 23.7745 105.275 23.5027 105.321 23.1188C105.472 22.0143 105.68 20.9061 105.944 19.7937C106.209 18.6814 106.512 17.6843 106.852 16.802C107.192 15.9197 107.57 15.1986 107.986 14.6386C108.402 14.0789 108.844 13.7986 109.313 13.7986C109.555 13.7986 109.74 13.9676 109.868 14.3049C109.997 14.6424 110.061 15.1025 110.061 15.6856C110.061 16.1153 110.027 16.5565 109.96 17.009C109.891 17.4615 109.812 17.9296 109.721 18.4127C109.63 18.8962 109.551 19.3908 109.483 19.8971C109.415 20.4036 109.381 20.9326 109.381 21.485C109.381 21.8686 109.419 22.3136 109.495 22.8198C109.57 23.3258 109.713 23.8058 109.925 24.258C110.137 24.7108 110.428 25.0942 110.799 25.4086C111.169 25.7231 111.642 25.8804 112.216 25.8804C113.078 25.8804 113.842 25.6924 114.507 25.3167C115.172 24.9409 115.743 24.4501 116.22 23.844C116.244 23.8122 116.267 23.7783 116.291 23.7468C116.328 23.8364 116.36 23.9313 116.401 24.0165C116.726 24.6916 117.168 25.213 117.728 25.5815C118.287 25.9496 118.945 26.1528 119.702 26.1914C120.458 26.2293 121.282 26.0874 122.175 25.7654C122.839 25.5199 123.418 25.213 123.909 24.8448C124.401 24.4767 124.843 24.028 125.236 23.4986C125.63 22.9693 125.988 22.3594 126.314 21.6692C126.639 20.9785 126.968 20.1887 127.3 19.2985C127.361 19.0536 127.304 18.8349 127.13 18.6428C126.956 18.4513 126.745 18.317 126.495 18.2399Z" fill="#0D0C23"/>
<path fill-rule="evenodd" clip-rule="evenodd" d="M138.823 15.673C138.747 16.1258 138.646 16.6247 138.517 17.169C138.388 17.7137 138.226 18.2775 138.029 18.8606C137.833 19.4436 137.59 19.9691 137.303 20.4368C137.016 20.9051 136.687 21.2768 136.317 21.553C135.946 21.8292 135.519 21.9442 135.035 21.8981C134.793 21.8677 134.607 21.699 134.479 21.3918C134.351 21.0853 134.283 20.6938 134.275 20.2182C134.267 19.7428 134.309 19.2211 134.4 18.6533C134.491 18.086 134.63 17.5295 134.82 16.9847C135.009 16.4405 135.239 15.9378 135.511 15.4773C135.784 15.0172 136.097 14.6604 136.453 14.4073C136.808 14.1542 137.198 14.0357 137.621 14.0506C138.044 14.066 138.498 14.2806 138.982 14.6949C138.951 14.8946 138.899 15.2207 138.823 15.673ZM146.887 17.4335C146.652 17.3108 146.41 17.2843 146.161 17.3532C145.912 17.4221 145.734 17.6562 145.628 18.0551C145.568 18.4848 145.431 18.9908 145.22 19.5738C145.008 20.1568 144.747 20.7095 144.437 21.2307C144.127 21.7524 143.772 22.186 143.371 22.531C142.97 22.8764 142.543 23.0338 142.09 23.0026C141.711 22.9722 141.446 22.7766 141.296 22.416C141.144 22.0555 141.065 21.6032 141.057 21.0581C141.049 20.5139 141.103 19.9002 141.216 19.2173C141.329 18.5347 141.466 17.8559 141.624 17.1803C141.783 16.5056 141.946 15.8572 142.112 15.2359C142.279 14.6146 142.414 14.0891 142.521 13.6596C142.641 13.276 142.604 12.9502 142.407 12.6813C142.21 12.4132 141.965 12.2211 141.67 12.1061C141.375 11.9911 141.076 11.9604 140.774 12.0141C140.471 12.0679 140.275 12.2328 140.184 12.5087C139.292 11.7263 138.434 11.3044 137.61 11.2431C136.785 11.1818 136.025 11.366 135.33 11.7955C134.634 12.2249 134.018 12.8462 133.481 13.6596C132.944 14.473 132.51 15.3588 132.177 16.3176C131.844 17.2764 131.636 18.2547 131.553 19.2518C131.47 20.2491 131.534 21.1583 131.746 21.979C131.958 22.7996 132.332 23.4711 132.869 23.9923C133.405 24.514 134.135 24.7751 135.058 24.7751C135.466 24.7751 135.859 24.6907 136.237 24.5219C136.615 24.3529 136.963 24.1535 137.281 23.9234C137.598 23.6933 137.878 23.4516 138.12 23.1985C138.362 22.9453 138.551 22.7346 138.687 22.5655C138.793 23.1179 138.967 23.5862 139.209 23.9695C139.45 24.3529 139.727 24.6679 140.036 24.9128C140.346 25.1581 140.672 25.3385 141.012 25.4538C141.352 25.5689 141.681 25.6264 141.998 25.6264C142.71 25.6264 143.374 25.3808 143.995 24.8898C144.615 24.3993 145.171 23.7967 145.662 23.0834C146.153 22.3699 146.558 21.6184 146.875 20.828C147.193 20.038 147.405 19.3361 147.511 18.7222C147.617 18.4921 147.597 18.2506 147.454 17.9975C147.31 17.7444 147.121 17.5567 146.887 17.4335Z" fill="#0D0C23"/>
<path fill-rule="evenodd" clip-rule="evenodd" d="M187.717 30.1384C187.589 30.6597 187.388 31.1014 187.116 31.4618C186.844 31.8221 186.503 32.01 186.095 32.0259C185.838 32.0408 185.641 31.9026 185.505 31.6116C185.369 31.3196 185.275 30.9439 185.222 30.4838C185.169 30.0233 185.146 29.5093 185.154 28.9418C185.161 28.3743 185.184 27.814 185.222 27.2618C185.259 26.7097 185.305 26.1953 185.358 25.72C185.411 25.2441 185.452 24.8765 185.482 24.6155C185.997 24.6768 186.424 24.9028 186.764 25.2943C187.104 25.6855 187.365 26.1495 187.547 26.6866C187.728 27.2235 187.834 27.803 187.865 28.4239C187.894 29.0454 187.845 29.6167 187.717 30.1384ZM179.506 30.1384C179.377 30.6597 179.177 31.1014 178.905 31.4618C178.633 31.8221 178.292 32.01 177.884 32.0259C177.627 32.0408 177.43 31.9026 177.294 31.6116C177.158 31.3196 177.063 30.9439 177.011 30.4838C176.957 30.0233 176.935 29.5093 176.943 28.9418C176.95 28.3743 176.973 27.814 177.011 27.2618C177.048 26.7097 177.094 26.1953 177.147 25.72C177.2 25.2441 177.241 24.8765 177.272 24.6155C177.785 24.6768 178.213 24.9028 178.553 25.2943C178.893 25.6855 179.154 26.1495 179.336 26.6866C179.517 27.2235 179.623 27.803 179.653 28.4239C179.683 29.0454 179.634 29.6167 179.506 30.1384ZM171.079 17.0672C171.064 17.4351 171.03 17.7612 170.977 18.045C170.924 18.3294 170.852 18.5092 170.761 18.586C170.595 18.4937 170.391 18.2564 170.149 17.8724C169.907 17.4891 169.718 17.0553 169.582 16.572C169.446 16.0888 169.404 15.6136 169.457 15.1453C169.51 14.6775 169.748 14.3135 170.172 14.0522C170.338 13.9602 170.481 13.9946 170.602 14.1558C170.724 14.317 170.822 14.5508 170.898 14.8577C170.973 15.1648 171.025 15.5175 171.056 15.9163C171.087 16.3154 171.094 16.6988 171.079 17.0672ZM169.072 21.6583C168.837 21.9111 168.576 22.1297 168.289 22.314C168.001 22.4982 167.707 22.6363 167.404 22.7283C167.101 22.8206 166.829 22.8433 166.588 22.7972C165.907 22.6594 165.385 22.3598 165.023 21.8997C164.66 21.4396 164.429 20.8989 164.331 20.2776C164.232 19.656 164.243 18.9924 164.365 18.2867C164.486 17.5811 164.69 16.9253 164.977 16.3192C165.264 15.7131 165.613 15.1914 166.02 14.7543C166.429 14.317 166.875 14.0449 167.359 13.9371C167.177 14.7196 167.117 15.5292 167.177 16.3651C167.238 17.2012 167.435 17.9875 167.767 18.7238C167.979 19.1693 168.232 19.5754 168.527 19.9436C168.822 20.312 169.181 20.6265 169.605 20.8872C169.484 21.1482 169.306 21.4051 169.072 21.6583ZM194.17 17.2973C194.216 16.9446 194.283 16.572 194.375 16.1808C194.465 15.7899 194.579 15.4101 194.714 15.0419C194.851 14.6735 195.01 14.3552 195.191 14.0869C195.373 13.8186 195.565 13.6265 195.769 13.5115C195.974 13.3964 196.181 13.4078 196.393 13.5459C196.62 13.6843 196.76 13.9757 196.813 14.4203C196.866 14.8656 196.813 15.3409 196.654 15.8474C196.495 16.3537 196.212 16.8293 195.803 17.2739C195.396 17.7194 194.843 18.0105 194.147 18.1486C194.117 17.934 194.125 17.6503 194.17 17.2973ZM203.312 17.2973C203.357 16.9446 203.425 16.572 203.516 16.1808C203.606 15.7899 203.72 15.4101 203.856 15.0419C203.992 14.6735 204.151 14.3552 204.332 14.0869C204.514 13.8186 204.707 13.6265 204.911 13.5115C205.115 13.3964 205.323 13.4078 205.534 13.5459C205.762 13.6843 205.901 13.9757 205.954 14.4203C206.007 14.8656 205.954 15.3409 205.796 15.8474C205.637 16.3537 205.353 16.8293 204.945 17.2739C204.537 17.7194 203.984 18.0105 203.289 18.1486C203.259 17.934 203.266 17.6503 203.312 17.2973ZM211.806 18.6435C211.632 18.452 211.421 18.3177 211.172 18.2406C210.922 18.1641 210.684 18.1565 210.457 18.2178C210.23 18.2791 210.086 18.4403 210.026 18.701C209.905 19.1921 209.712 19.6946 209.448 20.2081C209.183 20.7225 208.858 21.2095 208.472 21.6696C208.086 22.1297 207.652 22.5368 207.168 22.8894C206.684 23.2424 206.177 23.4956 205.648 23.6485C205.119 23.8178 204.68 23.8368 204.332 23.7063C203.984 23.5761 203.709 23.3536 203.504 23.0392C203.3 22.7245 203.153 22.3449 203.062 21.8997C202.972 21.4551 202.918 20.9949 202.903 20.519C203.765 20.5806 204.533 20.4236 205.206 20.0472C205.878 19.6715 206.449 19.1725 206.919 18.5512C207.387 17.9302 207.742 17.2322 207.984 16.4573C208.226 15.6825 208.362 14.9117 208.393 14.1444C208.408 13.4233 208.302 12.8134 208.075 12.3147C207.848 11.8164 207.542 11.4286 207.157 11.1527C206.771 10.8763 206.329 10.7154 205.829 10.6693C205.33 10.6231 204.824 10.6926 204.31 10.8763C203.689 11.0914 203.164 11.4403 202.734 11.9235C202.303 12.407 201.943 12.9672 201.656 13.6034C201.368 14.2405 201.142 14.9266 200.975 15.6632C200.808 16.3995 200.688 17.1247 200.613 17.838C200.539 18.5302 200.499 19.1927 200.49 19.8268C200.433 19.9532 200.372 20.0802 200.306 20.2081C200.041 20.7225 199.716 21.2095 199.33 21.6696C198.945 22.1297 198.51 22.5368 198.027 22.8894C197.543 23.2424 197.036 23.4956 196.507 23.6485C195.977 23.8178 195.539 23.8368 195.191 23.7063C194.843 23.5761 194.567 23.3536 194.363 23.0392C194.159 22.7245 194.012 22.3449 193.921 21.8997C193.83 21.4551 193.777 20.9949 193.762 20.519C194.624 20.5806 195.391 20.4236 196.065 20.0472C196.737 19.6715 197.308 19.1725 197.777 18.5512C198.246 17.9302 198.601 17.2322 198.843 16.4573C199.084 15.6825 199.221 14.9117 199.251 14.1444C199.266 13.4233 199.161 12.8134 198.934 12.3147C198.707 11.8164 198.4 11.4286 198.015 11.1527C197.629 10.8763 197.187 10.7154 196.688 10.6693C196.189 10.6231 195.682 10.6926 195.168 10.8763C194.548 11.0914 194.023 11.4403 193.592 11.9235C193.161 12.407 192.801 12.9672 192.514 13.6034C192.227 14.2405 192.001 14.9266 191.834 15.6632C191.667 16.3995 191.546 17.1247 191.471 17.838C191.428 18.2403 191.4 18.6304 191.378 19.0134C191.232 19.1395 191.09 19.2665 190.938 19.3912C190.417 19.821 189.868 20.2081 189.293 20.5535C188.719 20.8988 188.121 21.1826 187.502 21.4051C186.881 21.6276 186.246 21.7619 185.596 21.8077L187.003 6.52694C187.093 6.20461 187.048 5.92115 186.866 5.67561C186.685 5.43007 186.45 5.26132 186.163 5.16935C185.876 5.0771 185.569 5.08495 185.244 5.19214C184.919 5.29985 184.651 5.5454 184.439 5.92843C184.333 6.51176 184.223 7.30937 184.11 8.32189C183.997 9.33441 183.883 10.4392 183.77 11.6359C183.657 12.8326 183.543 14.0676 183.43 15.3409C183.316 16.6147 183.218 17.8035 183.135 18.908C183.131 18.9571 183.128 19.0014 183.124 19.0499C182.992 19.1638 182.864 19.2785 182.727 19.3912C182.205 19.821 181.656 20.2081 181.082 20.5535C180.507 20.8988 179.91 21.1826 179.29 21.4051C178.67 21.6276 178.035 21.7619 177.385 21.8077L178.791 6.52694C178.882 6.20461 178.837 5.92115 178.655 5.67561C178.474 5.43007 178.239 5.26132 177.952 5.16935C177.665 5.0771 177.358 5.08495 177.033 5.19214C176.708 5.29985 176.44 5.5454 176.228 5.92843C176.122 6.51176 176.013 7.30937 175.899 8.32189C175.785 9.33441 175.672 10.4392 175.559 11.6359C175.445 12.8326 175.332 14.0676 175.219 15.3409C175.106 16.6147 175.007 17.8035 174.924 18.908C174.922 18.9302 174.921 18.9503 174.919 18.9725C174.681 19.0843 174.422 19.1825 174.141 19.2648C173.854 19.3494 173.529 19.3993 173.166 19.4146C173.226 19.1381 173.275 18.8312 173.313 18.4937C173.351 18.1565 173.382 17.8035 173.404 17.4351C173.427 17.0672 173.434 16.6988 173.427 16.3306C173.419 15.9622 173.4 15.6249 173.37 15.3178C173.294 14.6586 173.154 14.0332 172.951 13.4423C172.746 12.8519 172.47 12.3574 172.123 11.9579C171.774 11.5591 171.34 11.2906 170.818 11.1527C170.296 11.0146 169.688 11.0605 168.992 11.2905C167.963 11.1527 167.038 11.2488 166.213 11.5784C165.389 11.9086 164.674 12.3877 164.07 13.0166C163.465 13.6461 162.97 14.3859 162.584 15.2375C162.199 16.0888 161.941 16.9636 161.813 17.8608C161.759 18.2412 161.732 18.6198 161.724 18.9976C161.49 19.484 161.233 19.9091 160.951 20.2659C160.55 20.7722 160.134 21.1864 159.703 21.5085C159.272 21.8308 158.845 22.0763 158.422 22.2451C157.998 22.4141 157.62 22.5291 157.288 22.5902C156.894 22.667 156.516 22.6748 156.154 22.6133C155.791 22.5522 155.458 22.3756 155.156 22.0839C154.914 21.8693 154.728 21.524 154.6 21.0483C154.471 20.5728 154.396 20.0324 154.373 19.4259C154.351 18.8198 154.373 18.1869 154.441 17.5273C154.509 16.8678 154.626 16.2424 154.792 15.6518C154.959 15.0612 155.17 14.5319 155.428 14.0635C155.684 13.5961 155.987 13.2621 156.335 13.0627C156.531 13.0936 156.653 13.2122 156.698 13.4192C156.744 13.6265 156.754 13.872 156.732 14.1558C156.71 14.4399 156.675 14.7313 156.63 15.0302C156.585 15.3295 156.562 15.5791 156.562 15.7782C156.638 16.1925 156.785 16.5148 157.004 16.7449C157.223 16.975 157.469 17.1096 157.741 17.1475C158.013 17.1861 158.282 17.1209 158.547 16.9519C158.811 16.7834 159.026 16.5148 159.193 16.1464C159.208 16.1618 159.231 16.1694 159.261 16.1694L159.579 13.2469C159.669 12.8478 159.609 12.4951 159.397 12.1883C159.185 11.8814 158.906 11.7048 158.558 11.659C158.119 11.0146 157.526 10.6733 156.777 10.6348C156.029 10.5966 155.261 10.8459 154.475 11.3828C153.991 11.7361 153.564 12.2228 153.193 12.8441C152.822 13.4656 152.521 14.1558 152.286 14.9152C152.051 15.6746 151.885 16.4766 151.787 17.3204C151.689 18.1641 151.67 18.9851 151.73 19.7824C151.791 20.5806 151.931 21.3324 152.15 22.0378C152.369 22.7438 152.675 23.3344 153.069 23.8097C153.401 24.224 153.779 24.5273 154.202 24.7191C154.626 24.911 155.068 25.0295 155.53 25.0756C155.991 25.1215 156.448 25.1022 156.902 25.0181C157.356 24.934 157.787 24.8152 158.195 24.6613C158.724 24.4622 159.269 24.2088 159.828 23.902C160.387 23.5954 160.924 23.2269 161.439 22.7972C161.709 22.5712 161.97 22.3248 162.221 22.0606C162.336 22.349 162.464 22.6281 162.618 22.8894C163.027 23.5796 163.578 24.1399 164.274 24.5694C164.969 24.9988 165.824 25.2055 166.837 25.1906C167.926 25.1752 168.931 24.8955 169.854 24.3507C170.777 23.8065 171.533 23.0042 172.123 21.9458C173.006 21.9458 173.875 21.7981 174.729 21.5047C174.722 21.5975 174.715 21.6953 174.708 21.785C174.648 22.5981 174.617 23.1502 174.617 23.4418C174.603 23.9481 174.569 24.5732 174.516 25.3171C174.463 26.0612 174.429 26.8437 174.413 27.6642C174.399 28.4851 174.429 29.3137 174.504 30.15C174.58 30.9858 174.738 31.7455 174.981 32.4286C175.222 33.1107 175.566 33.6903 176.013 34.1662C176.458 34.6412 177.044 34.9255 177.771 35.0175C178.542 35.1244 179.207 34.9866 179.767 34.6032C180.326 34.2192 180.78 33.6941 181.128 33.0269C181.476 32.3592 181.721 31.5885 181.865 30.7141C182.008 29.8393 182.05 28.9611 181.99 28.0785C181.929 27.1964 181.77 26.3643 181.513 25.5822C181.256 24.7994 180.9 24.1551 180.447 23.6485C180.72 23.5723 181.044 23.4266 181.423 23.2115C181.8 22.9969 182.19 22.7551 182.591 22.4865C182.689 22.4206 182.786 22.351 182.885 22.2833C182.848 22.827 182.829 23.2147 182.829 23.4418C182.814 23.9481 182.78 24.5732 182.727 25.3171C182.674 26.0612 182.64 26.8437 182.625 27.6642C182.61 28.4851 182.64 29.3137 182.716 30.15C182.791 30.9858 182.95 31.7455 183.192 32.4286C183.433 33.1107 183.778 33.6903 184.223 34.1662C184.67 34.6412 185.256 34.9255 185.982 35.0175C186.753 35.1244 187.418 34.9866 187.978 34.6032C188.537 34.2192 188.991 33.6941 189.339 33.0269C189.686 32.3592 189.932 31.5885 190.076 30.7141C190.22 29.8393 190.261 28.9611 190.201 28.0785C190.14 27.1964 189.981 26.3643 189.725 25.5822C189.467 24.7994 189.112 24.1551 188.658 23.6485C188.93 23.5723 189.255 23.4266 189.634 23.2115C190.012 22.9969 190.401 22.7551 190.802 22.4865C191.01 22.347 191.217 22.2031 191.424 22.055C191.501 22.8053 191.669 23.4634 191.936 24.017C192.261 24.6923 192.703 25.2137 193.263 25.5822C193.822 25.95 194.48 26.1535 195.237 26.1917C195.993 26.2297 196.816 26.0881 197.709 25.7658C198.374 25.5205 198.952 25.2137 199.444 24.8455C199.935 24.4771 200.377 24.0284 200.771 23.4993C200.794 23.4687 200.815 23.4354 200.837 23.4045C200.907 23.6193 200.985 23.8257 201.077 24.017C201.403 24.6923 201.845 25.2137 202.404 25.5822C202.964 25.95 203.622 26.1535 204.378 26.1917C205.134 26.2297 205.958 26.0881 206.85 25.7658C207.516 25.5205 208.094 25.2137 208.586 24.8455C209.077 24.4771 209.519 24.0284 209.913 23.4993C210.306 22.9697 210.664 22.3598 210.99 21.6696C211.315 20.9792 211.644 20.1894 211.977 19.2992C212.037 19.054 211.98 18.8353 211.806 18.6435Z" fill="#0D0C23"/>
</svg>
