<svg width="184" height="1103" viewBox="0 0 184 1103" fill="none" xmlns="http://www.w3.org/2000/svg">
<path d="M102.01 1087.82C103.158 1081.3 102.929 1080 98.3203 1072.86L93.2094 1065.05L86.4259 1067.3C82.7009 1068.44 79.3037 1069.8 78.8448 1070.46C78.4624 1071 79.3355 1076.5 80.9731 1082.53C86.6173 1104.22 98.6432 1107.27 102.01 1087.82Z" fill="white"/>
<path d="M124.652 1024.56C125.734 1019.3 124.501 1008.51 121.968 1001.2L120.439 996.873L113.11 998.74L105.747 1000.42L104.533 1009.83C103.582 1017.46 103.931 1019.98 106.541 1023.93C114.12 1035.42 122.324 1035.79 124.652 1024.56Z" fill="white"/>
<path d="M91.8562 1056.29C90.0221 1049.15 87.3898 1047.79 81.6657 1050.62C78.5197 1052.32 76.6728 1058.68 78.0047 1063.52C78.758 1066.16 79.4571 1066.33 85.4104 1064.8C89.1681 1063.85 92.4124 1062.7 92.7183 1062.27C93.0242 1061.83 92.6423 1059.12 91.8562 1056.29Z" fill="white"/>
<path d="M117.775 988.822C114.15 980.75 108.754 978.925 104.777 984.604C102.789 987.444 103.356 995.003 105.54 996.532C106.742 997.373 118.364 995.42 119.205 994.218C119.511 993.782 118.791 991.324 117.775 988.822Z" fill="white"/>
<path d="M64.0746 1007.86C64.4027 1004.84 64.4032 1001.58 64.021 1000.5C62.9618 998.296 54.7494 985.384 54.4107 985.635C54.3343 985.744 50.9807 986.814 47.0701 987.982L39.9152 990.297L42.3604 1001.45C45.1113 1013.79 49.1737 1020.54 54.5587 1021.22C58.6548 1021.65 63.0467 1015.61 64.0746 1007.86Z" fill="white"/>
<path d="M90.6386 936.453C91.3928 932.586 87.9659 910.98 86.4369 909.909C86.1092 909.68 82.4717 910.226 78.2334 911.164C71.7668 912.496 70.7181 913.064 71.0345 915.402C71.1873 916.811 70.728 920.721 69.8755 924.031C68.3125 930.912 70.1688 935.467 77.0495 941.913C80.9267 945.442 82.1718 945.988 84.5204 945.191C88.1361 943.979 89.5127 942.013 90.6386 936.453Z" fill="white"/>
<path d="M53.6364 977.442C53.2872 974.919 52.0205 972.079 50.8191 971.238C47.9794 969.249 43.2605 970.177 41.1956 973.126C39.5896 975.42 38.8017 985.611 40.2216 986.605C41.0953 987.217 53.0784 984.051 53.8432 982.959C54.0726 982.631 54.0183 980.151 53.6364 977.442Z" fill="white"/>
<path d="M83.4124 901.444C80.5298 893.24 73.9107 891.535 69.5515 897.761C67.869 900.163 69.1787 907.591 71.6908 909.35C73.2199 910.421 83.3678 908.249 84.5914 906.501C84.8208 906.174 84.3187 903.869 83.4124 901.444Z" fill="white"/>
<path d="M88.6318 836.572C90.4347 832.138 91.7898 827.878 91.6588 827.135C91.5278 826.392 88.5351 824.622 85.0181 823.136L78.4974 820.361L72.1501 827.799C66.1414 834.985 65.7917 835.717 65.7253 841.856C65.6145 853.172 70.0923 857.935 76.9963 853.654C81.9886 850.476 84.13 847.418 88.6318 836.572Z" fill="white"/>
<path d="M95.1775 815.601C95.9975 810.478 94.152 807.07 90.1106 805.868C86.659 804.753 83.7204 807.09 81.1854 812.802L79.1968 817.27L84.4614 819.979C92.7951 824.35 93.953 823.858 95.1775 815.601Z" fill="white"/>
<path d="M33.7889 900.716C34.0731 899.613 33.5931 894.719 32.7091 889.705L31.0609 880.901L25.1078 880.802C21.8528 880.801 18.7179 880.397 18.281 880.091C16.5335 878.867 15.3861 882.133 13.7462 892.379C10.226 913.678 18.0894 922.44 28.5665 909.104C31.1995 905.576 33.614 901.896 33.7889 900.716Z" fill="white"/>
<path d="M33.6182 870.972C34.165 866.472 30.1568 862.2 25.8858 862.954C23.4717 863.379 19.6262 868.174 17.8887 872.98C17.091 875.514 17.4076 876.224 19.9744 877.207C24.8131 879.131 30.6242 878.967 32.0773 876.892C32.6563 875.833 33.3449 873.222 33.6182 870.972Z" fill="white"/>
<path d="M120.936 722.791C123.526 716.303 123.712 714.643 121.91 714.194C120.697 713.834 117.399 712.501 114.548 710.993C109.906 708.556 109.24 708.578 107.328 711.309C106.181 712.947 103.406 716.213 101.243 718.604C97.7903 722.372 97.3094 723.989 97.0901 730.346C97.0349 734.377 97.777 739.128 98.8473 740.854C100.518 743.815 101.326 744.055 105.302 743.258C109.126 742.68 110.557 741.566 113.812 736.684C116.03 733.517 119.133 727.225 120.936 722.791Z" fill="white"/>
<path d="M126.105 705.413C127.286 699.078 125.451 695.189 120.951 694.642C116.746 694.139 114.255 696.301 112.616 701.664C111.217 706.219 111.326 706.296 116.7 709.082C119.769 710.742 122.926 711.813 123.669 711.682C124.411 711.551 125.548 708.766 126.105 705.413Z" fill="white"/>
<path d="M168.018 621.147C168.182 620.448 169.712 616.636 171.351 612.901C175.721 602.939 175.656 602.568 168.403 599.443L162.101 596.821L156.158 602.751C150.674 608.026 150.018 609.195 149.078 614.722C147.307 625.852 151.501 633.346 157.847 630.791C161.321 629.317 167.482 623.539 168.018 621.147Z" fill="white"/>
<path d="M59.3783 768.397C59.1275 764.803 59.2809 761.33 59.4449 760.631C59.6853 759.823 57.1295 758.358 52.8042 756.632C44.8089 753.638 45.224 753.278 39.1487 768.23C33.7289 782.015 36.9607 792.742 45.5467 789.313C47.6004 788.472 51.5659 784.901 54.4611 781.231C59.1807 775.421 59.5413 774.208 59.3783 768.397Z" fill="white"/>
<path d="M178.191 591.973C179.011 586.85 176.085 582.196 172.021 581.956C168.843 581.846 166.614 583.866 164.156 589.47C162.211 593.642 162.243 593.828 166.711 595.816C176.519 600.405 176.967 600.231 178.191 591.973Z" fill="white"/>
<path d="M63.4659 751.401C65.8696 746.574 65.4877 743.865 61.9926 741.417C57.733 738.435 55.1223 739.374 50.9161 745.381C47.5511 750.187 47.4636 750.776 49.8665 752.459C52.9246 754.6 60.8982 756.928 61.2915 755.901C61.4882 755.388 62.3842 753.411 63.4659 751.401Z" fill="white"/>
<path d="M107.226 655.896C107.478 652.979 107.992 648.294 108.385 645.639C108.67 642.909 108.168 640.604 107.469 640.44C106.584 640.309 103.427 639.238 100.38 638.243C93.9246 635.839 93.3565 636.418 88.3301 649.176C84.1342 659.585 84.286 667.504 88.7641 670.64C91.3854 672.475 92.718 672.431 95.9078 670.433C103.456 665.464 106.581 661.467 107.226 655.896Z" fill="white"/>
<path d="M112.822 631.167C114.527 626.175 111.84 622.341 106.663 622.296C103.67 622.154 102.392 623.049 99.1798 627.637L95.2795 633.207L99.856 635.272C108.823 639.435 110.167 638.911 112.822 631.167Z" fill="white"/>
<path d="M132.963 565.675C133.553 562.507 133.783 558.924 133.444 557.548C132.822 555.647 123.124 541.369 122.633 541.839C122.556 541.948 119.203 543.018 115.401 544.263L108.214 546.392L110.31 555.021C116.194 579.162 129.366 585.456 132.963 565.675Z" fill="white"/>
<path d="M164.561 500.556C164.9 497.049 160.086 476.262 158.59 475.377C158.186 475.257 154.799 476.141 150.998 477.386L144.061 479.853L143.208 488.046C142.191 498.564 142.573 499.646 148.82 506.299C152.938 510.647 154.576 511.794 156.651 511.62C160.059 511.402 163.96 505.831 164.561 500.556Z" fill="white"/>
<path d="M121.203 533.188C120.417 530.359 119.478 527.748 119.041 527.442C116.857 525.912 110.871 527.255 109.112 529.767C106.894 532.935 106.587 541.509 108.662 542.962C109.863 543.803 121.224 540.364 122.294 538.835C122.447 538.617 121.989 536.017 121.203 533.188Z" fill="white"/>
<path d="M155.762 468.025C152.977 462.006 149.034 459.734 144.37 461.514C140 463.337 139.432 465.544 141.791 472.404L143.243 476.839L149.939 475.179C153.696 474.229 156.864 473.192 157.17 472.755C157.4 472.428 156.745 470.341 155.762 468.025Z" fill="white"/>
<path d="M98.5884 482.032C98.9492 479.192 98.917 475.751 98.6113 474.56C98.1746 472.627 88.4004 458.458 87.9088 458.928C87.8323 459.037 84.5116 460.293 80.7429 461.723L73.7299 464.3L75.7277 472.373C79.92 488.004 85.1839 495.596 91.1262 494.549C94.283 493.992 97.8557 488.192 98.5884 482.032Z" fill="white"/>
<path d="M125.555 420.506C126.572 414.87 121.867 394.159 119.606 394.366C118.939 394.388 115.52 395.086 112.025 395.894L105.591 397.411L104.803 405.975C103.753 416.308 104.932 419.738 111.857 425.889C116.28 429.8 117.634 430.423 119.983 429.626C123.784 428.381 124.287 427.431 125.555 420.506Z" fill="white"/>
<path d="M86.894 451.544C85.8897 446.934 81.9033 443.329 78.375 443.951C74.6611 444.606 72.2136 449.728 72.6278 455.878L73.195 461.81L79.8693 459.484C83.6707 458.239 86.9588 456.798 87.2647 456.361C87.4941 456.033 87.3961 453.849 86.894 451.544Z" fill="white"/>
<path d="M116.275 384.709C113.928 380.624 112.584 379.52 109.711 378.974C103.376 377.793 100.055 385.559 103.877 393.118C104.903 395.139 106.268 395.282 111.446 393.698C114.909 392.705 118.121 391.373 118.503 390.827C118.962 390.171 117.914 387.484 116.275 384.709Z" fill="white"/>
<path d="M69.7981 382.278C71.1753 375.429 70.193 369.859 66.7637 366.155C65.1364 364.527 63.0614 361.447 61.9584 359.535C60.2221 356.203 59.9272 356.16 55.372 358.016C52.8705 359.031 49.4732 360.396 47.9439 360.953C45.5189 361.859 45.3877 362.744 46.6759 367.878C49.6672 379.413 53.3035 387.005 57.3447 389.835C63.8979 394.424 67.7978 392.109 69.7981 382.278Z" fill="white"/>
<path d="M101.417 329.218C102.018 327.197 102.641 324.215 102.608 322.402C102.587 318.481 97.7725 300.949 96.4619 300.031C95.9158 299.648 92.3875 300.271 88.6298 301.22C82.9714 302.793 81.7698 303.579 81.6821 305.796C81.7584 307.315 81.4083 311.301 80.9599 314.731C79.8666 322.104 83.8853 329.15 91.1486 333.422C96.0745 336.383 99.2861 335.051 101.417 329.218Z" fill="white"/>
<path d="M58.3116 349.169C57.7439 346.492 56.368 343.576 55.1666 342.734C52.6545 340.975 47.0509 341.772 45.3684 344.175C43.9918 346.141 43.8045 357.566 45.1152 358.484C45.6613 358.866 49.1568 358.059 52.7397 356.661L59.3048 354.259L58.3116 349.169Z" fill="white"/>
<path d="M93.4046 291.379C91.1224 286.038 89.6698 284.858 85.5409 284.246C83.5857 284.016 81.8597 285.086 80.1008 287.598C78.0359 290.547 77.85 292.207 79.4988 296.129L81.3878 300.87L87.7125 299.276C91.2845 298.359 94.4524 297.322 94.8347 296.776C95.1406 296.339 94.4201 293.881 93.4046 291.379Z" fill="white"/>
<path d="M95.7611 233.618C96.2747 232.188 97.2908 229.807 97.9137 228.452C99.0063 225.962 98.6459 225.547 93.7745 223.438C90.8036 222.334 88.0293 220.717 87.6034 219.931C86.4567 218.314 75.0626 228.078 72.6261 232.72C70.4955 236.925 70.3302 247.389 72.5034 251.027C74.0323 253.725 74.9497 254.042 78.4015 253.529C81.8205 252.83 83.4811 251.389 88.6705 244.442C91.9917 239.931 95.2475 235.049 95.7611 233.618Z" fill="white"/>
<path d="M102.547 216.721C103.716 212.494 103.618 210.31 101.849 208.42C97.4912 203.252 91.5487 205.928 88.4017 214.142C87.1888 217.036 87.5492 217.451 92.8902 220.052C95.9594 221.712 99.0395 222.892 99.6731 222.685C100.339 222.663 101.585 219.954 102.547 216.721Z" fill="white"/>
<path d="M45.0704 287.648C45.2344 286.949 46.0976 284.786 46.9171 282.918C47.8568 280.647 47.2894 276.343 45.4223 270.641L42.4415 261.88L38.6184 262.458C36.4665 262.742 33.2114 262.742 31.3327 262.403C27.4223 261.943 27.4113 262.424 26.6227 277.498C25.9322 294.756 35.2047 303.365 42.6012 292.104C43.7483 290.466 44.83 288.456 45.0704 287.648Z" fill="white"/>
<path d="M134.879 142.187C137.512 137.031 137.686 137.479 128.424 131.645C124.776 129.416 124.405 129.482 117.872 135.325C111.722 140.621 110.957 141.714 109.962 146.389C108.52 152.866 109.698 161.178 112.21 162.937C113.302 163.702 116.077 163.692 118.349 163.004C121.888 161.901 123.702 160.241 127.646 154.376C130.29 150.367 133.524 144.819 134.879 142.187Z" fill="white"/>
<path d="M140.44 128.665C143.03 122.177 141.731 117.523 136.99 116.157C133.681 115.305 132.971 115.621 129.529 120.536C125.935 125.67 125.924 126.15 128.316 128.313C129.801 129.679 132.761 131.263 134.814 132.05C138.484 133.318 138.747 133.176 140.44 128.665Z" fill="white"/>
<path d="M44.2996 253.415C44.3546 251.012 44.0818 248.379 43.4703 247.625C41.6465 244.884 35.7044 244.304 33.2136 246.466C30.5372 248.661 27.7613 258.437 29.2904 259.508C31.038 260.731 42.256 260.285 43.1738 258.975C43.7091 258.21 44.1354 255.741 44.2996 253.415Z" fill="white"/>
<path d="M76.9152 181.032C77.6259 175.833 77.244 173.124 75.9224 172.687C74.8192 172.403 71.5971 170.96 68.8556 169.529L63.591 166.819L60.7284 172.302C51.2883 190.433 50.053 197.544 55.7325 201.521C59.7736 204.35 65.3448 201.741 71.6594 194.117C75.1226 189.869 76.106 187.302 76.9152 181.032Z" fill="white"/>
<path d="M84.0726 160.814C84.4445 157.494 79.1364 153.452 75.6736 154.445C74.2973 154.783 71.2822 157.23 68.9661 159.84L64.9021 164.482L70.4943 167.421C73.6399 168.972 76.862 170.415 77.714 170.36C79.56 170.513 83.8865 164.102 84.0726 160.814Z" fill="white"/>
<path d="M107.795 98.8073C107.981 97.147 107.348 92.4718 106.366 88.5284L104.685 81.166L96.973 80.3239L89.2615 79.4817L87.8073 89.6946C85.916 101.229 85.9702 103.709 87.9575 109.007C89.6936 113.966 93.5928 116.533 96.8481 114.906C100.18 113.17 107.336 102.718 107.795 98.8073Z" fill="white"/>
<path d="M140.026 44.8735C140.693 39.9692 138.008 21.4869 136.479 20.4162C135.933 20.0339 132.34 20.2846 128.44 20.9722L121.383 22.2165L119.842 31.3916C118.596 38.983 118.836 41.4298 121.435 45.854C124.962 51.7421 130.194 55.8936 133.35 55.3369C136.507 54.7803 139.348 50.2585 140.026 44.8735Z" fill="white"/>
<path d="M106.204 71.3246C106.631 65.6009 103.235 62.0832 98.3299 63.0438C94.8781 63.5567 94.1899 64.5396 91.8951 71.0713C89.9172 76.6855 91.0749 77.8217 98.2841 77.9865C105.089 78.0312 105.843 77.4196 106.204 71.3246Z" fill="white"/>
<path d="M133.564 10.3994C131.075 4.42408 129.218 3.12397 125.165 4.03003C119.551 5.30725 118.065 8.82427 120.117 16.1212C121.067 19.8789 121.067 19.8789 127.413 18.9513C130.942 18.3292 134.219 17.3684 134.754 16.6038C135.289 15.8393 134.798 13.0538 133.564 10.3994Z" fill="white"/>
</svg>
