<svg xmlns="http://www.w3.org/2000/svg" xmlns:xlink="http://www.w3.org/1999/xlink" xmlns:serif="http://www.serif.com/" viewBox="0 0 64 80" version="1.1" xml:space="preserve" style="" x="0px" y="0px" fill-rule="evenodd" clip-rule="evenodd" stroke-linejoin="round" stroke-miterlimit="2"><g transform="matrix(1,0,0,1,-276,-276)"><g transform="matrix(1,0,0,1,4.5,8.5)"><g transform="matrix(1,0,0,1,132.5,-9)"><path d="M158.421,309.228L165.421,318.228C165.773,318.681 166.303,318.96 166.876,318.996C167.448,319.032 168.009,318.82 168.414,318.414L185.414,301.414C186.195,300.634 186.195,299.366 185.414,298.586C184.634,297.805 183.366,297.805 182.586,298.586L167.188,313.984C167.188,313.984 161.579,306.772 161.579,306.772C160.901,305.901 159.643,305.744 158.772,306.421C157.901,307.099 157.744,308.357 158.421,309.228Z"/></g><g transform="matrix(1.05,0,0,1.05,52.55,265.9)"><path d="M260.905,15.81C260.905,14.294 260.303,12.841 259.231,11.769C258.159,10.697 256.706,10.095 255.19,10.095C247.553,10.095 230.447,10.095 222.81,10.095C221.294,10.095 219.841,10.697 218.769,11.769C217.697,12.841 217.095,14.294 217.095,15.81C217.095,23.447 217.095,40.553 217.095,48.19C217.095,49.706 217.697,51.159 218.769,52.231C219.841,53.303 221.294,53.905 222.81,53.905C230.447,53.905 247.553,53.905 255.19,53.905C256.706,53.905 258.159,53.303 259.231,52.231C260.303,51.159 260.905,49.706 260.905,48.19L260.905,15.81ZM257.095,15.81L257.095,48.19C257.095,48.696 256.895,49.18 256.537,49.537C256.18,49.895 255.696,50.095 255.19,50.095L222.81,50.095C222.304,50.095 221.82,49.895 221.463,49.537C221.105,49.18 220.905,48.696 220.905,48.19L220.905,15.81C220.905,15.304 221.105,14.82 221.463,14.463C221.82,14.105 222.304,13.905 222.81,13.905L255.19,13.905C255.696,13.905 256.18,14.105 256.537,14.463C256.895,14.82 257.095,15.304 257.095,15.81Z"/></g></g></g><text x="0" y="79" fill="#000000" font-size="5px" font-weight="bold" font-family="'Helvetica Neue', Helvetica, Arial-Unicode, Arial, Sans-serif">Created by Alfan Zulkarnain</text><text x="0" y="84" fill="#000000" font-size="5px" font-weight="bold" font-family="'Helvetica Neue', Helvetica, Arial-Unicode, Arial, Sans-serif">from the Noun Project</text></svg>