<?xml version="1.0" encoding="UTF-8" standalone="no"?> <svg id="Layer_1" data-name="Layer 1" xmlns="http://www.w3.org/2000/svg" viewBox="0 0 48 48"><path d="M33,46H7a5.006,5.006,0,0,1-5-5V15a5.006,5.006,0,0,1,5-5H20a1,1,0,0,1,1,1v5.164A3.138,3.138,0,0,1,22,16a3.779,3.779,0,0,1,3.5,4A3.779,3.779,0,0,1,22,24a3.116,3.116,0,0,1-1-.165V27h3.971a1.505,1.505,0,0,1,1.335.809,1.469,1.469,0,0,1-.088,1.519A1.165,1.165,0,0,0,26,30c0,.813.916,1.5,2,1.5s2-.687,2-1.5a1.168,1.168,0,0,0-.217-.672,1.467,1.467,0,0,1-.087-1.52A1.5,1.5,0,0,1,31.03,27H37a1,1,0,0,1,1,1V41A5.006,5.006,0,0,1,33,46ZM21,44H33a3,3,0,0,0,3-3V29H31.835A3.116,3.116,0,0,1,32,30a3.779,3.779,0,0,1-4,3.5A3.779,3.779,0,0,1,24,30a3.116,3.116,0,0,1,.165-1H21v3.97a1.5,1.5,0,0,1-.808,1.334,1.467,1.467,0,0,1-1.519-.086A1.168,1.168,0,0,0,18,34c-.813,0-1.5.916-1.5,2s.687,2,1.5,2a1.169,1.169,0,0,0,.674-.219,1.467,1.467,0,0,1,1.517-.087A1.505,1.505,0,0,1,21,39.029ZM4,29V41a3,3,0,0,0,3,3H19V39.835A3.116,3.116,0,0,1,18,40a3.779,3.779,0,0,1-3.5-4A3.779,3.779,0,0,1,18,32a3.116,3.116,0,0,1,1,.165V29H15.03a1.5,1.5,0,0,1-1.334-.808,1.467,1.467,0,0,1,.086-1.519A1.168,1.168,0,0,0,14,26c0-.813-.916-1.5-2-1.5s-2,.687-2,1.5a1.169,1.169,0,0,0,.219.674,1.467,1.467,0,0,1,.087,1.517A1.505,1.505,0,0,1,8.971,29ZM19.809,39.429h0ZM24.57,28.193v0Zm-16-.387v0ZM15.835,27H19V23.029a1.506,1.506,0,0,1,.809-1.335,1.469,1.469,0,0,1,1.519.088A1.165,1.165,0,0,0,22,22c.813,0,1.5-.916,1.5-2s-.687-2-1.5-2a1.174,1.174,0,0,0-.672.216,1.469,1.469,0,0,1-1.52.088A1.5,1.5,0,0,1,19,16.97V12H7a3,3,0,0,0-3,3V27H8.165A3.116,3.116,0,0,1,8,26a3.779,3.779,0,0,1,4-3.5A3.779,3.779,0,0,1,16,26,3.116,3.116,0,0,1,15.835,27Zm4.357-3.571h0Z"/><path d="M37.034,26.359a4.054,4.054,0,0,1-1.242-.191,3.28,3.28,0,0,1-2.1-1.888,3.115,3.115,0,0,1-.221-.989l-3.861,1.561a1,1,0,0,1-1.3-.553L26.449,19.69a1.5,1.5,0,0,1,.249-1.54,1.472,1.472,0,0,1,1.441-.488,1.141,1.141,0,0,0,.7-.05,1.312,1.312,0,0,0,.734-.855,2.445,2.445,0,0,0-1.11-2.748,1.314,1.314,0,0,0-1.12-.106,1.172,1.172,0,0,0-.543.453,1.466,1.466,0,0,1-1.377.65,1.5,1.5,0,0,1-1.248-.933L21.942,8.537a1,1,0,0,1,.552-1.3l12.054-4.87a5,5,0,0,1,6.509,2.763l4.87,12.054a1,1,0,0,1-.552,1.3l-4.789,1.935a3.111,3.111,0,0,1,.528.866,3.778,3.778,0,0,1-2.4,4.742A4.476,4.476,0,0,1,37.034,26.359Zm-3-5.334a1.508,1.508,0,0,1,.977.36,1.466,1.466,0,0,1,.487,1.441,1.169,1.169,0,0,0,.05.7,1.314,1.314,0,0,0,.854.733,2.3,2.3,0,0,0,1.562-.092,1.829,1.829,0,0,0,1.293-2.139,1.164,1.164,0,0,0-.453-.543,1.469,1.469,0,0,1-.65-1.377,1.5,1.5,0,0,1,.935-1.248L43.7,17,39.2,5.877A3,3,0,0,0,35.3,4.22l-11.127,4.5,1.56,3.861a3.132,3.132,0,0,1,.866-.527,3.276,3.276,0,0,1,2.814.2,4.442,4.442,0,0,1,2.07,5.124,3.274,3.274,0,0,1-1.888,2.1,3.11,3.11,0,0,1-.988.222l1.186,2.935,3.681-1.488A1.5,1.5,0,0,1,34.036,21.025Z"/></svg>