<svg width="32" height="32" viewBox="0 0 32 32" fill="none" xmlns="http://www.w3.org/2000/svg">
<path d="M29.0875 28.174H27.8701V21.7825C27.8701 20.2721 26.6413 19.0433 25.1309 19.0433H24.2178V12.6519C24.2178 11.1415 22.989 9.91267 21.4786 9.91267H16.9133V9.14692C18.5265 8.57482 19.2273 6.67855 18.3742 5.19884C18.3742 5.19873 18.3741 5.19862 18.374 5.19846L16.7911 2.4561C16.4398 1.84763 15.56 1.84861 15.2095 2.45615L13.6266 5.19862C12.7714 6.68057 13.477 8.57586 15.0872 9.14692V9.91267H10.5219C9.01152 9.91267 7.78272 11.1415 7.78272 12.6519V19.0433H6.86969C5.3593 19.0433 4.1305 20.2721 4.1305 21.7825C4.1305 22.0084 4.1305 26.254 4.1305 28.174H2.91308C2.4088 28.174 2 28.5828 2 29.087C2 29.5913 2.4088 30.0001 2.91308 30.0001C3.46237 30.0001 26.6484 30.0001 29.0875 30.0001C29.5918 30.0001 30.0006 29.5913 30.0006 29.087C30.0006 28.5828 29.5918 28.174 29.0875 28.174ZM15.2082 6.11143L16.0003 4.73907L16.7922 6.1111C17.1406 6.71497 16.702 7.47788 16.0003 7.47788C15.2967 7.47788 14.8612 6.713 15.2082 6.11143ZM9.60883 12.6519C9.60883 12.1484 10.0184 11.7388 10.5219 11.7388H21.4787C21.9821 11.7388 22.3917 12.1484 22.3917 12.6519V15.2829C22.3066 15.1968 22.2145 15.0987 22.1112 14.9863C21.5817 14.4102 20.8565 13.6213 19.6124 13.6213C18.3688 13.6213 17.6438 14.41 17.1145 14.9859C16.6084 15.5364 16.3623 15.7607 15.9601 15.7607C15.5449 15.7607 15.2778 15.4939 14.803 14.9827C14.2693 14.4082 13.5385 13.6213 12.3078 13.6213C11.0644 13.6213 10.3393 14.4101 9.80992 14.986C9.73833 15.0638 9.67205 15.1353 9.60883 15.2015V12.6519ZM9.60883 17.414C10.3015 17.1492 10.7783 16.6309 11.1544 16.2218C11.6601 15.6715 11.9061 15.4474 12.3078 15.4474C12.723 15.4474 12.9901 15.7141 13.465 16.2254C13.9986 16.7999 14.7294 17.5867 15.9601 17.5867C17.2041 17.5867 17.9294 16.7978 18.4589 16.2217C18.9647 15.6714 19.2107 15.4473 19.6124 15.4473C20.0146 15.4473 20.2607 15.6715 20.7667 16.2221C21.158 16.6478 21.6564 17.1893 22.3917 17.4431V19.0433H9.60883V17.414ZM5.95661 28.174V25.1518C5.9571 25.1524 5.95765 25.1529 5.95814 25.1535C6.59313 25.8502 7.38344 26.7174 8.65555 26.7174C9.89961 26.7174 10.6248 25.9284 11.1544 25.3524C11.6601 24.8021 11.9061 24.578 12.3078 24.578C12.723 24.578 12.9901 24.8447 13.465 25.356C13.9986 25.9305 14.7294 26.7173 15.9601 26.7173C17.2041 26.7173 17.9294 25.9284 18.4589 25.3523C18.9647 24.802 19.2107 24.5779 19.6124 24.5779C20.0146 24.5779 20.2607 24.8021 20.7667 25.3527C21.2961 25.9286 22.0211 26.7173 23.2646 26.7173C24.5087 26.7173 25.2339 25.9284 25.7635 25.3523C25.8668 25.2399 25.9589 25.1418 26.044 25.0557V28.174H5.95661ZM26.044 22.8955C25.3086 23.1493 24.8102 23.6909 24.4189 24.1165C23.9129 24.667 23.6668 24.8913 23.2646 24.8913C22.8628 24.8913 22.6169 24.6672 22.1111 24.1169C21.5816 23.5408 20.8564 22.7519 19.6123 22.7519C18.3688 22.7519 17.6438 23.5406 17.1144 24.1165C16.6084 24.667 16.3623 24.8913 15.96 24.8913C15.5449 24.8913 15.2778 24.6245 14.8029 24.1133C14.2693 23.5388 13.5385 22.7519 12.3078 22.7519C11.0643 22.7519 10.3392 23.5407 9.80986 24.1166C9.30383 24.6671 9.05773 24.8913 8.65549 24.8913C8.2211 24.8913 7.85655 24.5257 7.30775 23.9236C6.9229 23.5013 6.50065 23.0395 5.9565 22.735V21.7826C5.9565 21.2791 6.36612 20.8695 6.86958 20.8695C7.35095 20.8695 24.6249 20.8695 25.1308 20.8695C25.6343 20.8695 26.0439 21.2791 26.0439 21.7826V22.8955H26.044Z" fill="black"/>
</svg>
