<svg width="32" height="32" viewBox="0 0 32 32" fill="none" xmlns="http://www.w3.org/2000/svg">
<path d="M20.4516 2H11.5484C9.67976 2.00228 7.88835 2.72157 6.56703 4.00011C5.24571 5.27866 4.50236 7.01208 4.5 8.82021V27.4861C4.50029 27.9451 4.63043 28.3953 4.87633 28.7878C5.12223 29.1803 5.4745 29.5002 5.89493 29.7128C6.31537 29.9254 6.78792 30.0225 7.26136 29.9937C7.7348 29.9649 8.19105 29.8112 8.58065 29.5494L15.7908 24.7149C15.853 24.6736 15.9267 24.6515 16.0022 24.6515C16.0777 24.6515 16.1514 24.6736 16.2137 24.7149L23.4194 29.5494C23.8088 29.8118 24.2652 29.9659 24.7388 29.995C25.2124 30.024 25.6852 29.927 26.1059 29.7143C26.5265 29.5016 26.8788 29.1815 27.1246 28.7886C27.3704 28.3958 27.5002 27.9453 27.5 27.4861V8.82021C27.4976 7.01208 26.7543 5.27866 25.433 4.00011C24.1117 2.72157 22.3202 2.00228 20.4516 2ZM25.2742 27.4861C25.2744 27.5518 25.2561 27.6163 25.221 27.6726C25.186 27.7289 25.1356 27.7748 25.0755 27.8053C25.0153 27.8358 24.9476 27.8498 24.8798 27.8456C24.8121 27.8415 24.7467 27.8194 24.691 27.7818L17.4839 22.9445C17.0487 22.6546 16.5328 22.4993 16.0045 22.4993C15.4761 22.4993 14.9602 22.6546 14.525 22.9445L7.30748 27.7732C7.2524 27.81 7.18805 27.8317 7.12126 27.836C7.05446 27.8403 6.98771 27.827 6.92808 27.7976C6.86845 27.7682 6.81817 27.7237 6.78256 27.6688C6.74695 27.614 6.72734 27.5508 6.72581 27.4861V8.82021C6.72738 7.58306 7.23597 6.39701 8.14004 5.5222C9.04411 4.6474 10.2698 4.15527 11.5484 4.15375H20.4516C21.7302 4.15527 22.9559 4.6474 23.86 5.5222C24.764 6.39701 25.2726 7.58306 25.2742 8.82021V27.4861Z" fill="black"/>
</svg>
