<svg width="32" height="32" viewBox="0 0 32 32" fill="none" xmlns="http://www.w3.org/2000/svg">
<path d="M5.48514 3.001C3.57358 3.04628 2 4.60803 2 6.5357V22.0836C2 23.8421 3.33963 25.3697 5.12168 25.5899L5.1094 25.5883L5.48705 25.6397C5.48839 25.6399 5.48974 25.6401 5.49109 25.6402C8.12656 25.9883 12.5083 27.4101 14.8411 28.6709C14.8516 28.6765 14.8622 28.682 14.8729 28.6873L14.925 28.7131L14.8875 28.6935C15.624 29.0978 16.3579 29.1091 17.1002 28.6858L17.0842 28.6948C19.4147 27.4232 23.8083 25.9889 26.4546 25.6406L26.8747 25.5903C26.8759 25.5902 26.8771 25.59 26.8783 25.5899C28.6604 25.3697 30 23.8421 30 22.0836V6.54859C30 4.47855 28.1916 2.85293 26.1154 3.02536L26.1972 3.02197H26.1191C26.0912 3.02198 26.0634 3.02316 26.0356 3.02551C23.0565 3.27788 18.9175 4.64984 16.3915 6.22061C16.3879 6.2228 16.3844 6.22502 16.3809 6.22725L16.1748 6.35908C16.2064 6.33914 15.7923 6.3391 15.8249 6.35908C15.8207 6.35651 15.8165 6.35397 15.8123 6.35146L15.4868 6.1584L15.501 6.16707C12.9771 4.61159 8.85166 3.25141 5.87049 3.01247C5.74078 3.00173 5.61222 2.99799 5.48514 3.001ZM5.70803 4.9363C5.70903 4.93638 5.71002 4.93646 5.71101 4.93653C8.19946 5.13562 12.3555 6.50372 14.4674 7.80524C14.4721 7.80817 14.4768 7.81106 14.4816 7.81391L14.8072 8.00697L14.7947 7.99943C14.8704 8.04585 14.9468 8.0838 15.0233 8.1213V26.5989C12.3422 25.2958 8.50119 24.0901 5.74985 23.7267L5.37625 23.6758C5.37216 23.6752 5.36806 23.6746 5.36396 23.6741C4.64553 23.5853 3.95348 22.7963 3.95348 22.0836V6.5357C3.95348 5.52867 4.6897 4.85173 5.70803 4.9363ZM26.279 4.9492C27.3023 4.86421 28.0465 5.52964 28.0465 6.54859V22.0836C28.0465 22.7963 27.3545 23.5853 26.636 23.6741L26.6397 23.6737L26.2099 23.7251C26.2062 23.7256 26.2024 23.7261 26.1986 23.7266C23.4619 24.0864 19.6575 25.2814 16.9767 26.5819V8.12129C17.0532 8.08379 17.1297 8.04585 17.2054 7.99942C17.2106 7.99621 17.2158 7.99294 17.2209 7.98962L17.4337 7.8535C19.5358 6.54708 23.6766 5.17236 26.1699 4.95259H26.1972C26.2245 4.95259 26.2518 4.95146 26.279 4.9492ZM7.53492 10.5C7.27588 10.5 7.02744 10.6017 6.84426 10.7827C6.66109 10.9637 6.55818 11.2092 6.55818 11.4653C6.55818 11.7213 6.66109 11.9668 6.84426 12.1478C7.02744 12.3289 7.27588 12.4306 7.53492 12.4306H10.4652C10.7242 12.4306 10.9726 12.3289 11.1558 12.1478C11.339 11.9668 11.4419 11.7213 11.4419 11.4653C11.4419 11.2092 11.339 10.9637 11.1558 10.7827C10.9726 10.6017 10.7242 10.5 10.4652 10.5H7.53492ZM7.53492 14.3612C7.27588 14.3612 7.02744 14.4629 6.84426 14.6439C6.66109 14.825 6.55818 15.0705 6.55818 15.3265C6.55818 15.4533 6.58345 15.5788 6.63253 15.6959C6.68162 15.813 6.75356 15.9194 6.84426 16.0091C6.93496 16.0987 7.04264 16.1698 7.16114 16.2183C7.27964 16.2668 7.40666 16.2918 7.53492 16.2918H11.4419C11.5702 16.2918 11.6972 16.2668 11.8157 16.2183C11.9342 16.1698 12.0419 16.0987 12.1326 16.0091C12.2233 15.9194 12.2952 15.813 12.3443 15.6959C12.3934 15.5788 12.4186 15.4533 12.4186 15.3265C12.4186 15.0705 12.3157 14.825 12.1326 14.6439C11.9494 14.4629 11.7009 14.3612 11.4419 14.3612H7.53492Z" fill="black"/>
</svg>
