<svg width="32" height="32" viewBox="0 0 32 32" fill="none" xmlns="http://www.w3.org/2000/svg">
<path d="M27.5 8.63164V27.7897C27.5 28.1931 27.3851 28.5888 27.1677 28.9339C26.9504 29.2791 26.639 29.5605 26.2672 29.7476C25.8954 29.9348 25.4773 30.0206 25.0584 29.9958C24.6395 29.971 24.2356 29.8364 23.8905 29.6068L16.4339 24.6448C16.3056 24.5593 16.1531 24.5134 15.9969 24.5134C15.8407 24.5134 15.6883 24.5593 15.5599 24.6448L8.10947 29.6038C7.76462 29.8333 7.36102 29.9679 6.94235 29.9928C6.52368 30.0178 6.10589 29.9322 5.73417 29.7454C5.36246 29.5586 5.05098 29.2776 4.83345 28.9329C4.61591 28.5882 4.5006 28.1929 4.5 27.7897V8.63164C4.50203 6.87341 5.22964 5.18777 6.5232 3.94452C7.81677 2.70126 9.57063 2.00195 11.4 2H20.6C22.4294 2.00195 24.1832 2.70126 25.4768 3.94452C26.7704 5.18777 27.498 6.87341 27.5 8.63164Z" fill="black"/>
</svg>
