<svg width="32" height="32" viewBox="0 0 32 32" fill="none" xmlns="http://www.w3.org/2000/svg">
<path d="M30 6.16339V23.4964C30 24.9105 28.8946 26.2079 27.5374 26.3828L27.1037 26.4412C24.809 26.7619 21.5769 27.7532 18.9745 28.8902C18.065 29.2838 17.0576 28.5695 17.0576 27.5345V7.25673C17.0576 6.71735 17.3514 6.2217 17.8131 5.9593C20.3736 4.51609 24.2494 3.23325 26.8798 3H26.9638C28.6428 3 30 4.41405 30 6.16339Z" fill="black"/>
<path d="M14.2009 5.9593C11.6404 4.51609 7.76462 3.23325 5.13416 3H5.03622C3.3572 3 2 4.41405 2 6.16339V23.4964C2 24.9105 3.10535 26.2079 4.46256 26.3828L4.8963 26.4412C7.19096 26.7619 10.4231 27.7532 13.0255 28.8902C13.935 29.2838 14.9424 28.5695 14.9424 27.5345V7.25673C14.9424 6.70277 14.6626 6.2217 14.2009 5.9593ZM6.21153 10.3764H9.35969C9.93335 10.3764 10.4091 10.872 10.4091 11.4697C10.4091 12.082 9.93335 12.5631 9.35969 12.5631H6.21153C5.63787 12.5631 5.16215 12.082 5.16215 11.4697C5.16215 10.872 5.63787 10.3764 6.21153 10.3764ZM10.4091 16.9364H6.21153C5.63787 16.9364 5.16215 16.4553 5.16215 15.8431C5.16215 15.2454 5.63787 14.7497 6.21153 14.7497H10.4091C10.9827 14.7497 11.4585 15.2454 11.4585 15.8431C11.4585 16.4553 10.9827 16.9364 10.4091 16.9364Z" fill="black"/>
</svg>
