<svg width="32" height="32" viewBox="0 0 32 32" fill="none" xmlns="http://www.w3.org/2000/svg">
<path d="M22.1786 18.6666C22.8979 18.6666 23.4809 18.0697 23.4809 17.3333C23.4809 16.5969 22.8979 15.9999 22.1786 15.9999C21.4593 15.9999 20.8763 16.5969 20.8763 17.3333C20.8763 18.0697 21.4593 18.6666 22.1786 18.6666Z" fill="black"/>
<path d="M22.1786 23.9999C22.8979 23.9999 23.4809 23.403 23.4809 22.6666C23.4809 21.9302 22.8979 21.3333 22.1786 21.3333C21.4593 21.3333 20.8763 21.9302 20.8763 22.6666C20.8763 23.403 21.4593 23.9999 22.1786 23.9999Z" fill="black"/>
<path d="M16.9693 17.3333C16.9693 18.0697 16.3863 18.6666 15.667 18.6666C14.9477 18.6666 14.3647 18.0697 14.3647 17.3333C14.3647 16.5969 14.9477 15.9999 15.667 15.9999C16.3863 15.9999 16.9693 16.5969 16.9693 17.3333Z" fill="black"/>
<path d="M16.9693 22.6666C16.9693 23.403 16.3863 23.9999 15.667 23.9999C14.9477 23.9999 14.3647 23.403 14.3647 22.6666C14.3647 21.9302 14.9477 21.3333 15.667 21.3333C16.3863 21.3333 16.9693 21.9302 16.9693 22.6666Z" fill="black"/>
<path d="M9.15536 18.6666C9.87463 18.6666 10.4577 18.0697 10.4577 17.3333C10.4577 16.5969 9.87463 15.9999 9.15536 15.9999C8.43612 15.9999 7.85304 16.5969 7.85304 17.3333C7.85304 18.0697 8.43612 18.6666 9.15536 18.6666Z" fill="black"/>
<path d="M9.15536 23.9999C9.87463 23.9999 10.4577 23.403 10.4577 22.6666C10.4577 21.9302 9.87463 21.3333 9.15536 21.3333C8.43612 21.3333 7.85304 21.9302 7.85304 22.6666C7.85304 23.403 8.43612 23.9999 9.15536 23.9999Z" fill="black"/>
<path fill-rule="evenodd" clip-rule="evenodd" d="M9.15536 2.33325C9.6948 2.33325 10.1321 2.78097 10.1321 3.33325V4.35021C10.9942 4.33324 11.9441 4.33324 12.9887 4.33325H18.3451C19.3898 4.33324 20.3397 4.33324 21.2019 4.35021V3.33325C21.2019 2.78097 21.6392 2.33325 22.1786 2.33325C22.718 2.33325 23.1554 2.78097 23.1554 3.33325V4.43604C23.4938 4.46247 23.8145 4.49568 24.1178 4.53743C25.6446 4.7476 26.8805 5.19043 27.8552 6.18824C28.8297 7.18607 29.2622 8.45132 29.4676 10.0146C29.667 11.5335 29.667 13.4743 29.667 15.9246V18.7418C29.667 21.1921 29.667 23.133 29.4676 24.6519C29.2622 26.2151 28.8297 27.4805 27.8552 28.4783C26.8805 29.4761 25.6446 29.9189 24.1178 30.1291C22.6342 30.3333 20.7385 30.3333 18.3452 30.3333H12.9889C10.5955 30.3333 8.69979 30.3333 7.21618 30.1291C5.6893 29.9189 4.45346 29.4761 3.47884 28.4783C2.50423 27.4805 2.0717 26.2151 1.86643 24.6519C1.66695 23.133 1.66697 21.1922 1.66699 18.7418V15.9247C1.66697 13.4743 1.66695 11.5335 1.86643 10.0146C2.0717 8.45132 2.50423 7.18607 3.47884 6.18824C4.45346 5.19043 5.6893 4.7476 7.21618 4.53743C7.51951 4.49568 7.84009 4.46247 8.17862 4.43604V3.33325C8.17862 2.78097 8.61593 2.33325 9.15536 2.33325ZM7.47647 6.5196C6.16621 6.69994 5.41132 7.03817 4.86016 7.60245C4.30901 8.16673 3.97865 8.9396 3.80249 10.2811C3.77266 10.5082 3.74772 10.7474 3.72686 10.9999H27.6071C27.5863 10.7474 27.5613 10.5082 27.5314 10.2811C27.3554 8.9396 27.025 8.16673 26.4738 7.60245C25.9227 7.03817 25.1677 6.69994 23.8576 6.5196C22.5192 6.33537 20.7549 6.33325 18.2716 6.33325H13.0623C10.579 6.33325 8.81482 6.33537 7.47647 6.5196ZM3.62048 15.9999C3.62048 14.8613 3.6209 13.8702 3.63753 12.9999H27.6964C27.7131 13.8702 27.7135 14.8613 27.7135 15.9999V18.6666C27.7135 21.209 27.7114 23.0153 27.5314 24.3855C27.3554 25.7269 27.025 26.4998 26.4738 27.0641C25.9227 27.6283 25.1677 27.9666 23.8576 28.1469C22.5192 28.3311 20.7549 28.3333 18.2716 28.3333H13.0623C10.579 28.3333 8.81482 28.3311 7.47647 28.1469C6.16621 27.9666 5.41132 27.6283 4.86016 27.0641C4.30901 26.4998 3.97865 25.7269 3.80249 24.3855C3.62255 23.0153 3.62048 21.209 3.62048 18.6666V15.9999Z" fill="black"/>
</svg>
