<svg width="32" height="32" viewBox="0 0 32 32" fill="none" xmlns="http://www.w3.org/2000/svg">
<path d="M29.0882 21.4371L20.5058 6.17881C19.3525 4.12583 17.7567 3 16 3C14.2433 3 12.6475 4.12583 11.4942 6.17881L2.91177 21.4371C1.82556 23.3841 1.70487 25.2517 2.57652 26.7219C3.44818 28.1921 5.16466 29 7.41755 29H24.5825C26.8353 29 28.5518 28.1921 29.4235 26.7219C30.2951 25.2517 30.1744 23.3709 29.0882 21.4371ZM14.9943 12.2715C14.9943 11.7285 15.4502 11.2781 16 11.2781C16.5498 11.2781 17.0058 11.7285 17.0058 12.2715V18.894C17.0058 19.4371 16.5498 19.8874 16 19.8874C15.4502 19.8874 14.9943 19.4371 14.9943 18.894V12.2715ZM16.9521 23.8079C16.8851 23.8609 16.818 23.9139 16.751 23.9669C16.6705 24.0199 16.5901 24.0596 16.5096 24.0861C16.4291 24.1258 16.3487 24.1523 16.2548 24.1656C16.1744 24.1788 16.0805 24.1921 16 24.1921C15.9196 24.1921 15.8257 24.1788 15.7318 24.1656C15.6514 24.1523 15.5709 24.1258 15.4904 24.0861C15.41 24.0596 15.3295 24.0199 15.2491 23.9669C15.182 23.9139 15.115 23.8609 15.0479 23.8079C14.8065 23.5563 14.659 23.2119 14.659 22.8676C14.659 22.5232 14.8065 22.1788 15.0479 21.9272C15.115 21.8742 15.182 21.8212 15.2491 21.7682C15.3295 21.7152 15.41 21.6755 15.4904 21.649C15.5709 21.6093 15.6514 21.5828 15.7318 21.5695C15.9062 21.5298 16.0939 21.5298 16.2548 21.5695C16.3487 21.5828 16.4291 21.6093 16.5096 21.649C16.5901 21.6755 16.6705 21.7152 16.751 21.7682C16.818 21.8212 16.8851 21.8742 16.9521 21.9272C17.1935 22.1788 17.341 22.5232 17.341 22.8676C17.341 23.2119 17.1935 23.5563 16.9521 23.8079Z" fill="black"/>
</svg>
