<svg width="32" height="32" viewBox="0 0 32 32" fill="none" xmlns="http://www.w3.org/2000/svg">
<path d="M14.3834 29.5C13.9919 29.5 13.6005 29.4332 13.2361 29.2995C11.5489 28.7515 10.4691 26.9069 10.847 25.196L11.5084 20.9856C11.5219 20.8921 11.5219 20.7584 11.4274 20.6515C11.3918 20.6169 11.3496 20.5896 11.3032 20.5713C11.2569 20.5529 11.2074 20.5438 11.1575 20.5446H5.75845C4.4357 20.5446 3.28841 19.9965 2.61353 19.0475C1.95215 18.1252 1.81718 16.9089 2.2491 15.7327L5.475 6.00198C5.97441 4.06386 8.06653 2.5 10.2261 2.5H15.3552C16.1111 2.5 17.7577 2.72723 18.6351 3.59604L22.7248 6.72376L21.4831 8.31436L17.2988 5.10644C16.9614 4.77228 16.1111 4.50495 15.3552 4.50495H10.2261C9.01135 4.50495 7.7021 5.46733 7.43215 6.55L4.16575 16.3743C3.94979 16.9624 3.99028 17.497 4.27373 17.8847C4.57067 18.299 5.11057 18.5396 5.77195 18.5396H11.171C11.8728 18.5396 12.5207 18.8337 12.9661 19.3416C13.425 19.8629 13.6275 20.5579 13.5195 21.2797L12.8447 25.5703C12.6827 26.3188 13.1956 27.1609 13.9245 27.4015C14.5723 27.6421 15.4362 27.2946 15.7331 26.8668L21.2671 18.7134L22.9408 19.8361L17.4068 27.9896C16.7724 28.9252 15.5711 29.5 14.3834 29.5Z" fill="black"/>
<path d="M26.2882 24.1561H24.9384C22.4414 24.1561 21.2266 22.9933 21.2266 20.6141V7.51505C21.2266 5.13584 22.4414 3.97297 24.9384 3.97297H26.2882C28.7852 3.97297 30 5.13584 30 7.51505V20.6141C30 22.9933 28.7852 24.1561 26.2882 24.1561ZM24.9384 5.97792C23.4672 5.97792 23.2512 6.32545 23.2512 7.51505V20.6141C23.2512 21.8037 23.4672 22.1512 24.9384 22.1512H26.2882C27.7594 22.1512 27.9754 21.8037 27.9754 20.6141V7.51505C27.9754 6.32545 27.7594 5.97792 26.2882 5.97792H24.9384Z" fill="black"/>
</svg>
