<svg width="32" height="32" viewBox="0 0 32 32" fill="none" xmlns="http://www.w3.org/2000/svg">
<path d="M21.0517 6.98263V21.0828C21.0517 21.6379 20.8837 22.1792 20.5757 22.6372L16.7533 28.2717C16.1513 29.1737 14.6531 29.8121 13.379 29.3403C12.0069 28.8823 11.0968 27.3557 11.3908 25.9957L12.1189 21.4575C12.1749 21.0412 12.0629 20.6665 11.8249 20.375C11.7032 20.2402 11.5544 20.1323 11.3879 20.0582C11.2215 19.984 11.0412 19.9454 10.8588 19.9448H5.10422C3.99811 19.9448 3.04602 19.5007 2.48597 18.7235C1.95392 17.9741 1.85591 17.0026 2.20594 16.0173L5.65027 5.62258C6.08431 3.90169 7.97449 2.5 9.85067 2.5H15.3112C16.2493 2.5 17.5654 2.8192 18.1675 3.41596L19.9596 4.78989C20.2985 5.04846 20.5731 5.38053 20.7624 5.76063C20.9518 6.14072 21.0507 6.55874 21.0517 6.98263ZM25.5056 23.7863H26.9477C29.1179 23.7863 30 22.9536 30 20.8996V6.9521C30 4.89814 29.1179 4.06545 26.9477 4.06545H25.5056C23.3354 4.06545 22.4533 4.89814 22.4533 6.9521V20.9135C22.4533 22.9536 23.3354 23.7863 25.5056 23.7863Z" fill="black"/>
</svg>
