<svg width="32" height="32" viewBox="0 0 32 32" fill="none" xmlns="http://www.w3.org/2000/svg">
<path d="M21.8759 2H10.1381C5.03951 2 2 5.038 2 10.134V21.852C2 26.962 5.03951 30 10.1381 30H21.8619C26.9604 30 30 26.962 30 21.866V10.134C30.014 5.038 26.9744 2 21.8759 2ZM21.2596 21.25H10.7544C10.1801 21.25 9.70384 20.774 9.70384 20.2C9.70384 19.626 10.1801 19.15 10.7544 19.15H21.2596C21.8339 19.15 22.3101 19.626 22.3101 20.2C22.3101 20.774 21.8339 21.25 21.2596 21.25ZM21.2596 12.85H10.7544C10.1801 12.85 9.70384 12.374 9.70384 11.8C9.70384 11.226 10.1801 10.75 10.7544 10.75H21.2596C21.8339 10.75 22.3101 11.226 22.3101 11.8C22.3101 12.374 21.8339 12.85 21.2596 12.85Z" fill="black"/>
</svg>
