<svg width="32" height="32" viewBox="0 0 32 32" fill="none" xmlns="http://www.w3.org/2000/svg">
<path d="M12.0807 2C8.68962 2 6.11157 2.6827 4.39714 4.39714C2.6827 6.11157 2 8.68962 2 12.0807V19.9193C2 23.3104 2.6827 25.8884 4.39714 27.6029C6.11157 29.3173 8.68962 30 12.0807 30H19.9193C23.3104 30 25.8884 29.3173 27.6029 27.6029C29.3173 25.8884 30 23.3104 30 19.9193V12.0807C30 8.68962 29.3173 6.11157 27.6029 4.39714C25.8884 2.6827 23.3104 2 19.9193 2H12.0807ZM12.0807 3.86667H19.9193C23.0615 3.86667 25.0575 4.49136 26.2831 5.71693C27.5086 6.94249 28.1333 8.93851 28.1333 12.0807V19.9193C28.1333 23.0615 27.5086 25.0575 26.2831 26.2831C25.0575 27.5086 23.0615 28.1333 19.9193 28.1333H12.0807C8.93851 28.1333 6.94249 27.5086 5.71693 26.2831C4.49136 25.0575 3.86667 23.0615 3.86667 19.9193V12.0807C3.86667 8.93851 4.49136 6.94249 5.71693 5.71693C6.94249 4.49136 8.93851 3.86667 12.0807 3.86667ZM11.1 11.1474C10.8525 11.1474 10.6151 11.2457 10.44 11.4208C10.265 11.5958 10.1667 11.8332 10.1667 12.0807C10.1667 12.3283 10.265 12.5657 10.44 12.7407C10.6151 12.9157 10.8525 13.0141 11.1 13.0141H20.9C21.1475 13.0141 21.3849 12.9157 21.56 12.7407C21.735 12.5657 21.8333 12.3283 21.8333 12.0807C21.8333 11.8332 21.735 11.5958 21.56 11.4208C21.3849 11.2457 21.1475 11.1474 20.9 11.1474H11.1ZM11.1 18.9859C10.8525 18.9859 10.6151 19.0843 10.44 19.2593C10.265 19.4343 10.1667 19.6717 10.1667 19.9193C10.1667 20.1668 10.265 20.4042 10.44 20.5792C10.6151 20.7543 10.8525 20.8526 11.1 20.8526H20.9C21.1475 20.8526 21.3849 20.7543 21.56 20.5792C21.735 20.4042 21.8333 20.1668 21.8333 19.9193C21.8333 19.6717 21.735 19.4343 21.56 19.2593C21.3849 19.0843 21.1475 18.9859 20.9 18.9859H11.1Z" fill="black"/>
</svg>
