<svg width="32" height="32" viewBox="0 0 32 32" fill="none" xmlns="http://www.w3.org/2000/svg">
<path d="M16 2C15.8124 2 15.6266 2.03621 15.4533 2.10656C15.28 2.17692 15.1225 2.28005 14.9898 2.41005C14.8572 2.54006 14.7519 2.69439 14.6801 2.86425C14.6084 3.03411 14.5714 3.21617 14.5714 3.40002V19.6201L9.86726 15.01C9.59936 14.7475 9.23601 14.6 8.85715 14.6C8.47829 14.6 8.11494 14.7475 7.84704 15.01C7.71438 15.1401 7.60915 15.2944 7.53736 15.4642C7.46557 15.6341 7.42862 15.8161 7.42862 16C7.42862 16.1839 7.46557 16.3659 7.53736 16.5358C7.60915 16.7056 7.71438 16.8599 7.84704 16.99L14.9898 23.9899C15.1225 24.1199 15.28 24.2231 15.4533 24.2934C15.8034 24.4355 16.1966 24.4355 16.5467 24.2934C16.72 24.2231 16.8775 24.1199 17.0102 23.9899L24.153 16.99C24.2856 16.8599 24.3908 16.7056 24.4626 16.5358C24.5344 16.3659 24.5714 16.1839 24.5714 16C24.5714 15.8161 24.5344 15.6341 24.4626 15.4642C24.3908 15.2944 24.2856 15.1401 24.153 15.01C23.8851 14.7475 23.5217 14.6 23.1429 14.6C22.764 14.6 22.4006 14.7475 22.1327 15.01L17.4286 19.6201V3.40002C17.4286 3.21617 17.3917 3.03411 17.3199 2.86425C17.2481 2.69439 17.1428 2.54006 17.0102 2.41005C16.8775 2.28005 16.72 2.17692 16.5467 2.10656C16.3734 2.03621 16.1876 2 16 2ZM7.4286 27.2C7.24099 27.1999 7.05522 27.2362 6.88189 27.3065C6.70856 27.3769 6.55108 27.48 6.41842 27.61C6.28576 27.74 6.18053 27.8943 6.10874 28.0642C6.03695 28.2341 6 28.4161 6 28.6C6 28.7838 6.03695 28.9659 6.10874 29.1357C6.18053 29.3056 6.28576 29.4599 6.41842 29.5899C6.55108 29.72 6.70856 29.8231 6.88189 29.8934C7.05522 29.9638 7.24099 30 7.4286 30H24.5714C24.759 30 24.9448 29.9638 25.1181 29.8934C25.2914 29.8231 25.4489 29.72 25.5816 29.5899C25.7142 29.4599 25.8195 29.3056 25.8913 29.1357C25.9631 28.9659 26 28.7838 26 28.6C26 28.4161 25.9631 28.2341 25.8913 28.0642C25.8195 27.8943 25.7142 27.74 25.5816 27.61C25.4489 27.48 25.2914 27.3769 25.1181 27.3065C24.9448 27.2362 24.759 27.1999 24.5714 27.2H7.4286Z" fill="black"/>
</svg>
