<svg width="32" height="32" viewBox="0 0 32 32" fill="none" xmlns="http://www.w3.org/2000/svg">
<path d="M21.8759 2H10.1381C5.03951 2 2 5.038 2 10.134V21.852C2 26.962 5.03951 30 10.1381 30H21.8619C26.9604 30 30 26.962 30 21.866V10.134C30.014 5.038 26.9744 2 21.8759 2ZM14.5362 23.714C14.13 24.12 13.3597 24.512 12.7994 24.596L9.35366 25.086C9.2276 25.1 9.10154 25.114 8.97548 25.114C8.40119 25.114 7.86892 24.918 7.49074 24.54C7.02851 24.078 6.83241 23.406 6.94446 22.664L7.43471 19.22C7.51875 18.646 7.89694 17.89 8.31715 17.484L14.5643 11.24C14.7869 11.8671 15.0683 12.4718 15.4047 13.046C15.5447 13.284 15.6988 13.508 15.8249 13.676C15.979 13.914 16.1611 14.138 16.2731 14.264C16.3431 14.362 16.3992 14.432 16.4272 14.46C16.7774 14.88 17.1836 15.272 17.5337 15.566C17.6318 15.664 17.6878 15.72 17.7158 15.734C17.9259 15.902 18.136 16.07 18.3181 16.196C18.5422 16.364 18.7664 16.518 19.0045 16.644C19.2846 16.812 19.5928 16.966 19.9009 17.12C20.2231 17.26 20.5172 17.386 20.8114 17.484L14.5362 23.714ZM23.5287 14.726L22.2401 16.028C22.1995 16.0682 22.1514 16.1001 22.0986 16.1217C22.0457 16.1433 21.9891 16.1543 21.9319 16.154C21.8899 16.154 21.8339 16.154 21.8059 16.14C20.3988 15.7323 19.1177 14.9756 18.0818 13.9402C17.0459 12.9048 16.2888 11.6244 15.8809 10.218C15.8389 10.064 15.8809 9.896 15.993 9.798L17.2956 8.496C19.4247 6.368 21.4557 6.41 23.5427 8.496C24.6073 9.56 25.1255 10.582 25.1255 11.646C25.1115 12.654 24.5933 13.662 23.5287 14.726Z" fill="black"/>
</svg>
