<svg width="32" height="32" viewBox="0 0 32 32" fill="none" xmlns="http://www.w3.org/2000/svg">
<path d="M28 30H4C3.45333 30 3 29.5238 3 28.9496C3 28.3753 3.45333 27.8991 4 27.8991H28C28.5467 27.8991 29 28.3753 29 28.9496C29 29.5238 28.5467 30 28 30ZM25.36 4.06418C22.7733 1.34707 20.24 1.27704 17.5867 4.06418L15.9733 5.75887C15.84 5.89893 15.7867 6.12302 15.84 6.3191C16.3499 8.15719 17.2929 9.83051 18.5817 11.1843C19.8705 12.5381 21.4635 13.5286 23.2133 14.0643C23.3078 14.0968 23.4091 14.1009 23.5057 14.0761C23.6023 14.0514 23.6904 13.9988 23.76 13.9242L25.36 12.2295C26.68 10.857 27.32 9.52641 27.32 8.18186C27.3333 6.7953 26.6933 5.45075 25.36 4.06418ZM20.8133 15.336C20.4267 15.1399 20.0533 14.9438 19.6933 14.7197C19.4009 14.5368 19.1162 14.3405 18.84 14.1315C18.6133 13.9774 18.3467 13.7533 18.0933 13.5293C18.0117 13.4668 17.9359 13.3964 17.8667 13.3192C17.4267 12.927 16.9333 12.4228 16.4933 11.8626C16.4533 11.8346 16.3867 11.7365 16.2933 11.6105C16.16 11.4424 15.9333 11.1623 15.7333 10.8402C15.5433 10.5767 15.3696 10.3007 15.2133 10.0138C15 9.63566 14.8133 9.2575 14.6267 8.86534C14.5989 8.80263 14.5718 8.7396 14.5453 8.67627C14.348 8.20988 13.768 8.07402 13.4253 8.43397L5.78667 16.4579C5.61333 16.6399 5.45333 16.9901 5.41333 17.2282L4.69333 22.5924C4.56 23.5448 4.81333 24.4411 5.37333 25.0434C5.85333 25.5336 6.52 25.7997 7.24 25.7997C7.4 25.7997 7.56 25.7857 7.72 25.7577L12.84 25.0014C13.08 24.9593 13.4133 24.7913 13.5733 24.6092L21.2027 16.5965C21.5493 16.2324 21.4173 15.6091 20.968 15.406C20.9164 15.3828 20.8648 15.3595 20.8133 15.336Z" fill="black"/>
</svg>
