<svg width="32" height="32" viewBox="0 0 32 32" fill="none" xmlns="http://www.w3.org/2000/svg">
<path fill-rule="evenodd" clip-rule="evenodd" d="M19.59 3.78607C21.9714 1.40464 25.8325 1.40464 28.214 3.78607C30.5954 6.1675 30.5954 10.0286 28.214 12.41L15.861 24.7629C15.1553 25.4687 14.7397 25.8842 14.2775 26.2447C13.7329 26.6695 13.1434 27.0339 12.5197 27.3311C11.9906 27.5832 11.4332 27.7691 10.4862 28.0846L6.14805 29.5307L5.10348 29.879C4.25624 30.1613 3.32215 29.9408 2.69065 29.3093C2.05915 28.6778 1.83864 27.7437 2.12106 26.8965L3.9153 21.5138C4.23092 20.5668 4.4167 20.0094 4.66888 19.4803C4.96611 18.8566 5.33039 18.2672 5.7553 17.7224C6.1158 17.2602 6.53129 16.8448 7.23713 16.1389L19.59 3.78607ZM6.10298 27.4866L9.80356 26.253C10.8338 25.9096 11.2716 25.7619 11.6793 25.5676C12.1749 25.3315 12.6433 25.042 13.0762 24.7043C13.4323 24.4265 13.7601 24.1011 14.5281 23.3331L24.386 13.4753C23.3589 13.113 22.0357 12.4416 20.7971 11.2029C19.5585 9.96421 18.887 8.64106 18.5248 7.61399L8.66682 17.4719C7.89889 18.2398 7.57341 18.5676 7.29564 18.9238C6.958 19.3567 6.66852 19.825 6.43234 20.3207C6.23804 20.7283 6.09034 21.1662 5.7469 22.1964L4.51338 25.897L6.10298 27.4866ZM20.1093 6.02944C20.1539 6.2573 20.2292 6.56704 20.3547 6.92913C20.6376 7.74433 21.1718 8.8149 22.1785 9.82156C23.185 10.8282 24.2557 11.3624 25.0708 11.6453C25.433 11.7709 25.7427 11.8462 25.9706 11.8907L26.8326 11.0286C28.4511 9.41011 28.4511 6.78594 26.8326 5.16739C25.2141 3.54885 22.5899 3.54885 20.9713 5.16739L20.1093 6.02944Z" fill="black"/>
</svg>
