<svg width="32" height="32" viewBox="0 0 32 32" fill="none" xmlns="http://www.w3.org/2000/svg">
<path d="M15.1601 24.6256L25.5144 14.2714C24.1051 13.6849 22.436 12.7215 20.8575 11.1429C19.2788 9.56416 18.3152 7.8948 17.7287 6.48546L7.37434 16.8398C6.56636 17.6479 6.16229 18.052 5.81485 18.4973C5.40497 19.0229 5.05359 19.5914 4.76687 20.193C4.52382 20.703 4.34315 21.2451 3.98178 22.3291L2.07623 28.0458C1.8984 28.5792 2.03724 29.1674 2.43488 29.5651C2.83252 29.9627 3.42069 30.1016 3.95417 29.9238L9.67084 28.0181C10.7549 27.6568 11.297 27.4762 11.807 27.2331C12.4085 26.9464 12.9771 26.595 13.5027 26.1851C13.948 25.8376 14.3522 25.4336 15.1601 24.6256Z" fill="black"/>
<path d="M28.3874 11.3983C30.5374 9.24828 30.5374 5.76247 28.3874 3.61249C26.2375 1.4625 22.7516 1.4625 20.6016 3.61249L19.3598 4.85435C19.3769 4.9057 19.3944 4.95775 19.4127 5.01049C19.8679 6.3225 20.7268 8.04241 22.3424 9.65802C23.958 11.2736 25.6779 12.1325 26.99 12.5877C27.0425 12.6059 27.0943 12.6234 27.1454 12.6403L28.3874 11.3983Z" fill="black"/>
</svg>
