<svg width="32" height="32" viewBox="0 0 32 32" fill="none" xmlns="http://www.w3.org/2000/svg">
<path d="M7.38667 25.7587C6.57333 25.7587 5.81333 25.483 5.26667 24.9709C4.57333 24.3275 4.24 23.3558 4.36 22.3053L4.85333 18.0509C4.94667 17.2499 5.44 16.1863 6.01333 15.6086L16.96 4.19782C19.6933 1.34842 22.5467 1.26963 25.44 3.96146C28.3333 6.6533 28.4133 9.4633 25.68 12.3127L14.7333 23.7234C14.1733 24.3143 13.1333 24.8658 12.32 24.9971L8.02667 25.7193C7.8 25.7325 7.6 25.7587 7.38667 25.7587ZM21.24 3.94833C20.2133 3.94833 19.32 4.57862 18.4133 5.52404L7.46667 16.9479C7.2 17.2237 6.89333 17.8802 6.84 18.261L6.34667 22.5154C6.29333 22.9487 6.4 23.3033 6.64 23.5265C6.88 23.7497 7.24 23.8285 7.68 23.7628L11.9733 23.0406C12.36 22.975 13 22.6336 13.2667 22.3578L24.2133 10.9471C25.8667 9.21382 26.4667 7.61185 24.0533 5.3796C22.9867 4.36852 22.0667 3.94833 21.24 3.94833Z" fill="black"/>
<path d="M23.12 14.5042H23.0267C21.006 14.3091 19.1087 13.4573 17.6337 12.0832C16.1587 10.7091 15.19 8.89071 14.88 6.9146C14.8 6.37623 15.1733 5.87726 15.72 5.78534C16.2667 5.70656 16.7733 6.07422 16.8667 6.61259C17.1108 8.15763 17.8693 9.57899 19.0229 10.6533C20.1765 11.7276 21.66 12.394 23.24 12.5477C23.7867 12.6003 24.1867 13.0861 24.1333 13.6245C24.0667 14.1235 23.6267 14.5042 23.12 14.5042ZM28 30H4C3.45333 30 3 29.5536 3 29.0152C3 28.4768 3.45333 28.0304 4 28.0304H28C28.5467 28.0304 29 28.4768 29 29.0152C29 29.5536 28.5467 30 28 30Z" fill="black"/>
</svg>
