<svg width="32" height="32" viewBox="0 0 32 32" fill="none" xmlns="http://www.w3.org/2000/svg">
<path fill-rule="evenodd" clip-rule="evenodd" d="M29.4078 8.08295C29.9036 8.30545 30.1332 8.90668 29.9208 9.42584L29.023 9.02297C29.9208 9.42584 29.9209 9.4256 29.9208 9.42584L29.9199 9.42813L29.9185 9.43152L29.9143 9.44156L29.9004 9.47438C29.8886 9.50184 29.872 9.54031 29.8504 9.58898C29.807 9.68627 29.7437 9.82443 29.6597 9.99681C29.4918 10.3413 29.2413 10.8239 28.9038 11.3908C28.3496 12.3222 27.5546 13.4924 26.4991 14.655L27.7603 15.9754C28.1416 16.3748 28.1416 17.0223 27.7603 17.4217C27.3788 17.8211 26.7603 17.8211 26.3789 17.4217L25.0758 16.0573C24.2167 16.811 23.2314 17.5183 22.1143 18.0995L23.3302 20.056C23.6244 20.5293 23.4963 21.1628 23.0442 21.4708C22.592 21.7789 21.987 21.6448 21.6928 21.1714L20.2743 18.8888C19.2594 19.2359 18.1605 19.4718 16.9765 19.5563V21.9773C16.9765 22.5421 16.5392 23 15.9998 23C15.4604 23 15.0231 22.5421 15.0231 21.9773V19.5563C13.8757 19.4744 12.8081 19.2503 11.8193 18.9206L10.4205 21.1715C10.1263 21.645 9.52123 21.779 9.06908 21.471C8.61694 21.1629 8.4889 20.5294 8.78309 20.056L9.97135 18.1439C8.84564 17.5682 7.85238 16.864 6.98583 16.1113L5.73432 17.4217C5.35289 17.8211 4.73446 17.8211 4.35301 17.4217C3.97157 17.0223 3.97157 16.3749 4.35301 15.9755L5.55605 14.7158C4.48221 13.5435 3.67381 12.3591 3.11058 11.4157C2.76816 10.8421 2.5139 10.3534 2.34366 10.0043C2.25849 9.82972 2.19418 9.68971 2.15025 9.59111C2.12828 9.5418 2.11139 9.5028 2.09951 9.47498L2.08546 9.44174L2.08124 9.43158L2.07982 9.42815L2.07929 9.42686C2.0792 9.42661 2.07887 9.42584 2.97664 9.02297L2.07929 9.42686C1.8668 8.90769 2.09606 8.30545 2.59188 8.08295C3.0873 7.86064 3.66097 8.10056 3.87388 8.61882C3.8738 8.61865 3.87396 8.619 3.87388 8.61882L3.87512 8.62181L3.88304 8.64052C3.89071 8.6585 3.90321 8.6874 3.92056 8.72636C3.95529 8.8043 4.00943 8.9224 4.0834 9.07408C4.23146 9.37765 4.45829 9.81423 4.76707 10.3315C5.38646 11.369 6.32575 12.7144 7.60728 13.9614C8.73496 15.0587 10.1168 16.0696 11.7695 16.7353C13.0126 17.236 14.4181 17.5456 15.9998 17.5456C17.6169 17.5456 19.05 17.2221 20.3137 16.7012C21.9565 16.0242 23.329 15.0068 24.4476 13.9074C25.7103 12.6665 26.6357 11.3345 27.246 10.3091C27.5502 9.79792 27.7736 9.36697 27.9194 9.06752C27.9923 8.91792 28.0456 8.80148 28.0799 8.72468C28.0969 8.68628 28.1093 8.65784 28.1168 8.64012L28.1245 8.62174L28.1253 8.6201C28.1252 8.62024 28.1253 8.61998 28.1253 8.6201M29.4078 8.08295C28.912 7.86052 28.3378 8.10122 28.1253 8.6201L29.4078 8.08295ZM3.87388 8.61882C3.8738 8.61865 3.87396 8.619 3.87388 8.61882V8.61882Z" fill="black"/>
</svg>
