<svg width="32" height="32" viewBox="0 0 32 32" fill="none" xmlns="http://www.w3.org/2000/svg">
<path fill-rule="evenodd" clip-rule="evenodd" d="M16 10.8571C13.3028 10.8571 11.1163 13.1597 11.1163 16C11.1163 18.8404 13.3028 21.1429 16 21.1429C18.6972 21.1429 20.8837 18.8404 20.8837 16C20.8837 13.1597 18.6972 10.8571 16 10.8571ZM13.0698 16C13.0698 14.2959 14.3817 12.9143 16 12.9143C17.6183 12.9143 18.9302 14.2959 18.9302 16C18.9302 17.7041 17.6183 19.0857 16 19.0857C14.3817 19.0857 13.0698 17.7041 13.0698 16Z" fill="black"/>
<path fill-rule="evenodd" clip-rule="evenodd" d="M16 4C10.1211 4 6.16131 7.70862 3.86307 10.8528L3.82161 10.9095C3.30186 11.6204 2.82315 12.2751 2.49839 13.0492C2.1506 13.8783 2 14.7818 2 16C2 17.2182 2.1506 18.1217 2.49839 18.9508C2.82315 19.7249 3.30186 20.3797 3.82163 21.0905L3.86307 21.1471C6.16131 24.2914 10.1211 28 16 28C21.8788 28 25.8387 24.2914 28.1369 21.1471L28.1783 21.0905C28.6982 20.3797 29.1768 19.7249 29.5016 18.9508C29.8494 18.1217 30 17.2182 30 16C30 14.7818 29.8494 13.8783 29.5016 13.0492C29.1768 12.2751 28.6982 11.6204 28.1783 10.9095L28.1369 10.8528C25.8387 7.70862 21.8788 4 16 4ZM5.41108 12.1076C7.53311 9.20446 10.9865 6.05714 16 6.05714C21.0134 6.05714 24.4669 9.20446 26.5889 12.1076C27.1601 12.889 27.4947 13.356 27.7147 13.8805C27.9204 14.3707 28.0465 14.9699 28.0465 16C28.0465 17.0301 27.9204 17.6293 27.7147 18.1195C27.4947 18.644 27.1601 19.1109 26.5889 19.8924C24.4669 22.7956 21.0134 25.9429 16 25.9429C10.9865 25.9429 7.53311 22.7956 5.41108 19.8924C4.8399 19.1109 4.50534 18.644 4.28527 18.1195C4.07961 17.6293 3.95349 17.0301 3.95349 16C3.95349 14.9699 4.07961 14.3707 4.28527 13.8805C4.50534 13.356 4.83989 12.889 5.41108 12.1076Z" fill="black"/>
</svg>
