<svg width="32" height="32" viewBox="0 0 32 32" fill="none" xmlns="http://www.w3.org/2000/svg">
<path fill-rule="evenodd" clip-rule="evenodd" d="M2.5 4.21757C2.5 2.99284 3.50735 2 4.75 2H27.25C28.4926 2 29.5 2.99284 29.5 4.21757V7.30116C29.5 8.08534 29.184 8.83741 28.6213 9.3919L20.5 17.3961V28.3716C20.5 29.5805 19.2092 30.3669 18.1122 29.8262L12.5365 27.0785C11.9012 26.7655 11.5 26.1257 11.5 25.4257V17.3961L3.37868 9.3919C2.81606 8.83741 2.5 8.08534 2.5 7.30116V4.21757ZM5.5 4.95676V7.30116L13.8411 15.5219C14.263 15.9379 14.5 16.5019 14.5 17.09V24.7404L17.5 26.2188V17.09C17.5 16.5019 17.737 15.9379 18.1589 15.5219L26.5 7.30116V4.95676H5.5Z" fill="black"/>
</svg>
