<svg width="32" height="32" viewBox="0 0 32 32" fill="none" xmlns="http://www.w3.org/2000/svg">
<path d="M15.9997 2C8.26249 2 1.99805 8.47107 1.99805 16.3933V26.0609C1.99805 28.4486 4.5618 30.0913 6.67739 29.0016C7.57046 28.5416 8.61667 28.6079 9.45031 29.1804V29.1805C11.0417 30.2732 13.1429 30.2732 14.7343 29.1805L14.7345 29.1804L15.1936 28.865C15.6903 28.5239 16.3093 28.5239 16.806 28.865L17.2652 29.1804L17.2652 29.1805C18.8567 30.2731 20.9578 30.2731 22.5492 29.1805H22.5493L22.5494 29.1804C23.3829 28.6079 24.429 28.5416 25.3222 29.0016C27.4378 30.0913 30.0015 28.4486 30.0015 26.0609V16.3933C30.0015 8.47106 23.737 2 15.9997 2ZM15.9997 3.95373C22.6493 3.95373 28.0478 9.49613 28.0478 16.3933V26.0609C28.0478 27.1178 27.0923 27.7156 26.2168 27.2647H26.2168C24.6922 26.4795 22.8585 26.5979 21.4432 27.5699C20.5045 28.2144 19.3099 28.2144 18.3712 27.5698L17.912 27.2544L17.9119 27.2543C16.7625 26.4651 15.2371 26.4651 14.0877 27.2543L14.0876 27.2544L13.6282 27.57C12.6895 28.2144 11.4949 28.2143 10.5563 27.5698V27.5699C9.14096 26.5979 7.30726 26.4795 5.78279 27.2646C4.90729 27.7156 3.95177 27.1178 3.95177 26.0609V16.3933C3.95177 9.49612 9.3501 3.95373 15.9997 3.95373ZM12.0923 9.815C11.3367 9.815 10.7214 10.2778 10.3585 10.8222C9.99558 11.3665 9.81297 12.0301 9.81297 12.7456C9.81297 13.4611 9.99558 14.1246 10.3585 14.669C10.7214 15.2133 11.3366 15.6762 12.0923 15.6762C12.8479 15.6762 13.4632 15.2133 13.8261 14.669C14.1891 14.1246 14.3717 13.4611 14.3717 12.7456C14.3717 12.0301 14.1891 11.3665 13.8261 10.8222C13.4632 10.2778 12.8479 9.815 12.0923 9.815ZM19.9072 9.815C19.1516 9.815 18.5363 10.2778 18.1734 10.8222C17.8105 11.3665 17.6279 12.0301 17.6279 12.7456C17.6279 13.4611 17.8105 14.1246 18.1734 14.669C18.5363 15.2133 19.1516 15.6762 19.9072 15.6762C20.6628 15.6762 21.2781 15.2133 21.6411 14.669C22.004 14.1246 22.1866 13.4611 22.1866 12.7456C22.1866 12.0301 22.004 11.3665 21.6411 10.8222C21.2781 10.2778 20.6628 9.815 19.9072 9.815ZM12.0924 11.7765C12.1104 11.7905 12.1464 11.8247 12.2006 11.906C12.3091 12.0687 12.4179 12.3821 12.4179 12.7456C12.4179 13.1091 12.3091 13.4224 12.2006 13.5852C12.1464 13.6664 12.1104 13.7006 12.0924 13.7146C12.0743 13.7006 12.0383 13.6664 11.9841 13.5852C11.8756 13.4224 11.7667 13.1091 11.7667 12.7456C11.7667 12.3821 11.8756 12.0687 11.9841 11.906C12.0383 11.8247 12.0743 11.7905 12.0924 11.7765ZM19.9073 11.7765C19.9253 11.7905 19.9614 11.8247 20.0155 11.906C20.124 12.0687 20.2329 12.3821 20.2329 12.7456C20.2329 13.1091 20.124 13.4224 20.0155 13.5852C19.9614 13.6664 19.9253 13.7006 19.9073 13.7146C19.8892 13.7006 19.8532 13.6664 19.7991 13.5852C19.6906 13.4224 19.5816 13.1091 19.5816 12.7456C19.5816 12.3821 19.6906 12.0687 19.7991 11.906C19.8532 11.8247 19.8892 11.7905 19.9073 11.7765ZM12.2037 18.9387C12.0333 18.9191 11.8608 18.9448 11.7035 19.013C11.5462 19.0813 11.4096 19.1898 11.3075 19.3275C11.1532 19.5357 11.088 19.7966 11.1261 20.0528C11.1642 20.3091 11.3025 20.5397 11.5107 20.694C12.7759 21.6318 14.3311 22.1885 15.9997 22.1885C17.6684 22.1885 19.2237 21.6318 20.4889 20.694C20.697 20.5397 20.8354 20.3091 20.8735 20.0528C20.9116 19.7966 20.8463 19.5357 20.6921 19.3275C20.5378 19.1194 20.3071 18.9811 20.0509 18.943C19.7946 18.9049 19.5337 18.9702 19.3256 19.1245C18.3756 19.8286 17.2367 20.2348 15.9997 20.2348C14.7628 20.2348 13.624 19.8286 12.674 19.1245C12.5362 19.0223 12.374 18.9583 12.2037 18.9387Z" fill="black"/>
</svg>
