<svg width="32" height="32" viewBox="0 0 32 32" fill="none" xmlns="http://www.w3.org/2000/svg">
<path fill-rule="evenodd" clip-rule="evenodd" d="M30 16.4208V26.8122C30 28.6635 28.1086 29.8675 26.5011 29.0396C25.2018 28.3705 23.6541 28.4697 22.4455 29.2998C21.0856 30.2334 19.3144 30.2334 17.9545 29.2998L17.4609 28.9608C16.5762 28.3532 15.4238 28.3532 14.5391 28.9608L14.0455 29.2998C12.6857 30.2334 10.9143 30.2334 9.5546 29.2998C8.34592 28.4697 6.79816 28.3705 5.49888 29.0396C3.89137 29.8675 2 28.6635 2 26.8122V16.4208C2 8.45642 8.26801 2 16 2C23.7319 2 30 8.45642 30 16.4208ZM12.4253 19.8782C11.9594 19.5225 11.3018 19.6231 10.9565 20.1031C10.6111 20.583 10.7089 21.2603 11.1747 21.6159C12.5361 22.6554 14.201 23.2707 16 23.2707C17.799 23.2707 19.4639 22.6554 20.8252 21.6159C21.2912 21.2603 21.3889 20.583 21.0435 20.1031C20.6983 19.6231 20.0407 19.5225 19.5748 19.8782C18.555 20.6567 17.3243 21.1076 16 21.1076C14.6757 21.1076 13.445 20.6567 12.4253 19.8782ZM21.6 12.8156C21.6 14.0102 20.9732 14.9788 20.2 14.9788C19.4268 14.9788 18.8 14.0102 18.8 12.8156C18.8 11.621 19.4268 10.6525 20.2 10.6525C20.9732 10.6525 21.6 11.621 21.6 12.8156ZM11.8 14.9788C12.5732 14.9788 13.2 14.0102 13.2 12.8156C13.2 11.621 12.5732 10.6525 11.8 10.6525C11.0268 10.6525 10.4 11.621 10.4 12.8156C10.4 14.0102 11.0268 14.9788 11.8 14.9788Z" fill="black"/>
</svg>
