<svg width="32" height="32" viewBox="0 0 32 32" fill="none" xmlns="http://www.w3.org/2000/svg">
<path fill-rule="evenodd" clip-rule="evenodd" d="M7.69684 6.42353C5.5363 7.39597 3.95349 9.70895 3.95349 12.4671C3.95349 15.2849 5.12457 17.4568 6.80335 19.3183C8.18698 20.8523 9.86193 22.1238 11.4954 23.3638C11.8834 23.6584 12.269 23.9511 12.6479 24.2452C13.3329 24.777 13.944 25.2436 14.5331 25.5825C15.1224 25.9217 15.5968 26.0765 16 26.0765C16.4032 26.0765 16.8776 25.9217 17.4669 25.5825C18.056 25.2436 18.667 24.777 19.3522 24.2452C19.731 23.9511 20.1167 23.6584 20.5046 23.3638C22.1381 22.1238 23.813 20.8523 25.1966 19.3183C26.8755 17.4568 28.0465 15.2849 28.0465 12.4671C28.0465 9.70895 26.4637 7.39597 24.3031 6.42353C22.2042 5.47881 19.3838 5.729 16.7038 8.47086C16.5196 8.65922 16.2655 8.76565 16 8.76565C15.7345 8.76565 15.4804 8.65922 15.2962 8.47086C12.6161 5.729 9.79581 5.47881 7.69684 6.42353ZM16 6.46794C12.989 3.81531 9.61725 3.44423 6.88471 4.67412C3.99869 5.97308 2 8.9893 2 12.4671C2 15.8852 3.44623 18.4928 5.34271 20.5955C6.86141 22.2793 8.72029 23.6888 10.362 24.9334C10.7342 25.2155 11.0952 25.4893 11.4385 25.7558C12.1056 26.2736 12.8217 26.8258 13.5475 27.2433C14.273 27.6607 15.1009 28 16 28C16.8991 28 17.727 27.6607 18.4525 27.2433C19.1783 26.8258 19.8943 26.2736 20.5615 25.7558C20.9048 25.4893 21.2658 25.2155 21.638 24.9334C23.2797 23.6888 25.1385 22.2793 26.6573 20.5955C28.5538 18.4928 30 15.8852 30 12.4671C30 8.9893 28.0013 5.97308 25.1152 4.67412C22.3827 3.44423 19.0111 3.81531 16 6.46794Z" fill="black"/>
</svg>
