<svg width="32" height="32" viewBox="0 0 32 32" fill="none" xmlns="http://www.w3.org/2000/svg">
<path fill-rule="evenodd" clip-rule="evenodd" d="M13.3219 4.60461H18.6781C21.0715 4.60459 22.9672 4.60458 24.4508 4.80405C25.9776 5.00933 27.2135 5.44185 28.1882 6.41646C29.1627 7.39108 29.5952 8.62693 29.8006 10.1538C30 11.6374 30 13.5331 30 15.9265V16.0734C30 18.4668 30 20.3625 29.8006 21.8461C29.5952 23.3729 29.1627 24.6089 28.1882 25.5835C27.2135 26.558 25.9776 26.9906 24.4508 27.1959C22.9672 27.3953 21.0715 27.3953 18.6781 27.3953H13.3219C10.9285 27.3953 9.03281 27.3953 7.54918 27.1959C6.02231 26.9906 4.78647 26.558 3.81185 25.5835C2.83724 24.6089 2.40471 23.3729 2.19944 21.8461C1.99996 20.3625 1.99997 18.4668 2 16.0734V15.9265C1.99997 13.5331 1.99996 11.6374 2.19944 10.1538C2.40471 8.62693 2.83724 7.39108 3.81185 6.41646C4.78647 5.44185 6.02231 5.00933 7.54918 4.80405C9.03281 4.60458 10.9285 4.60459 13.3219 4.60461ZM7.80948 6.74012C6.49922 6.91627 5.74433 7.24663 5.19317 7.79779C4.64202 8.34894 4.31165 9.10384 4.1355 10.4141C3.95556 11.7524 3.95349 13.5167 3.95349 16C3.95349 18.4832 3.95556 20.2475 4.1355 21.5859C4.31165 22.896 4.64202 23.651 5.19317 24.2021C5.74433 24.7533 6.49922 25.0837 7.80948 25.2598C9.14783 25.4397 10.912 25.4418 13.3953 25.4418H18.6047C21.0879 25.4418 22.8522 25.4397 24.1906 25.2598C25.5007 25.0837 26.2557 24.7533 26.8068 24.2021C27.358 23.651 27.6884 22.896 27.8644 21.5859C28.0444 20.2475 28.0465 18.4832 28.0465 16C28.0465 13.5167 28.0444 11.7524 27.8644 10.4141C27.6884 9.10384 27.358 8.34894 26.8068 7.79779C26.2557 7.24663 25.5007 6.91627 24.1906 6.74012C22.8522 6.56017 21.0879 6.5581 18.6047 6.5581H13.3953C10.912 6.5581 9.14783 6.56017 7.80948 6.74012ZM7.43569 10.1654C7.78104 9.75095 8.39693 9.69496 8.81135 10.0403L11.6229 12.3833C12.8379 13.3958 13.6815 14.0965 14.3937 14.5545C15.083 14.998 15.5506 15.1468 16 15.1468C16.4494 15.1468 16.917 14.998 17.6063 14.5545C18.3185 14.0965 19.162 13.3958 20.3771 12.3833L23.1887 10.0403C23.6031 9.69496 24.219 9.75095 24.5644 10.1654C24.9096 10.5798 24.8536 11.1957 24.4392 11.541L21.5786 13.9248C20.4244 14.8867 19.4888 15.6664 18.663 16.1975C17.8028 16.7508 16.9652 17.1003 16 17.1003C15.0348 17.1003 14.1972 16.7508 13.337 16.1975C12.5112 15.6664 11.5756 14.8867 10.4213 13.9248L7.56075 11.541C7.14634 11.1957 7.09035 10.5798 7.43569 10.1654Z" fill="black"/>
</svg>
