<svg width="32" height="32" viewBox="0 0 32 32" fill="none" xmlns="http://www.w3.org/2000/svg">
<path d="M21.7739 29.5H16.6448C15.8889 29.5 14.2423 29.2728 13.3649 28.4041L9.27516 25.2767L10.5169 23.6862L14.7012 26.8938C15.0386 27.2146 15.8889 27.4819 16.6448 27.4819H21.7739C22.9886 27.4819 24.2979 26.5196 24.5679 25.437L27.8343 15.6138C28.0502 15.0257 28.0097 14.4911 27.7263 14.1035C27.4293 13.6892 26.8894 13.4487 26.2281 13.4487H20.829C20.1272 13.4487 19.4793 13.1546 19.0339 12.6468C18.575 12.1255 18.3725 11.4305 18.4805 10.7088L19.1553 6.41867C19.3173 5.67023 18.8044 4.82824 18.0755 4.58767C17.4142 4.3471 16.5638 4.69459 16.2669 5.12226L10.7329 13.2749L9.0592 12.1656L14.5932 4.01297C15.4435 2.75666 17.3062 2.15524 18.7639 2.7032C20.4511 3.25117 21.5309 5.09553 21.153 6.80625L20.4916 11.0162C20.4781 11.1098 20.4781 11.2434 20.5726 11.3503C20.6401 11.4172 20.7346 11.4573 20.8425 11.4573H26.2415C27.5643 11.4573 28.7116 12.0052 29.3865 12.9541C30.0478 13.8763 30.1828 15.0925 29.7509 16.2687L26.525 25.9984C26.0256 27.9363 23.947 29.5 21.7739 29.5Z" fill="black"/>
<path d="M7.06157 28.0272H5.71182C3.21478 28.0272 2 26.8644 2 24.4855V11.3878C2 9.0088 3.21478 7.84605 5.71182 7.84605H7.06157C9.55861 7.84605 10.7734 9.0088 10.7734 11.3878V24.4855C10.7734 26.8644 9.55861 28.0272 7.06157 28.0272ZM5.71182 9.8508C4.24059 9.8508 4.02463 10.1983 4.02463 11.3878V24.4855C4.02463 25.6749 4.24059 26.0224 5.71182 26.0224H7.06157C8.5328 26.0224 8.74876 25.6749 8.74876 24.4855V11.3878C8.74876 10.1983 8.5328 9.8508 7.06157 9.8508H5.71182Z" fill="black"/>
</svg>
