<svg width="32" height="32" viewBox="0 0 32 32" fill="none" xmlns="http://www.w3.org/2000/svg">
<path d="M10.9473 25.0174V10.9172C10.9473 10.3621 11.1153 9.82082 11.4234 9.36285L15.2459 3.72833C15.848 2.82625 17.3462 2.18786 18.6204 2.65971C19.9926 3.11769 20.9028 4.64428 20.6087 6.00434L19.8806 10.5425C19.8246 10.9588 19.9366 11.3335 20.1746 11.625C20.4127 11.8887 20.7627 12.0552 21.1408 12.0552H26.8956C28.0018 12.0552 28.9539 12.4993 29.514 13.2765C30.0461 14.0259 30.1441 14.9974 29.7941 15.9827L26.3495 26.3774C25.9155 28.0983 24.0252 29.5 22.1489 29.5H16.6881C15.75 29.5 14.4338 29.1808 13.8317 28.584L12.0395 27.2101C11.3534 26.6966 10.9473 25.8778 10.9473 25.0174ZM6.49466 8.20957H5.05244C2.88213 8.20957 2 9.04226 2 11.0962V25.0576C2 27.1116 2.88213 27.9443 5.05244 27.9443H6.49466C8.66497 27.9443 9.5471 27.1116 9.5471 25.0576V11.0962C9.5471 9.04226 8.66497 8.20957 6.49466 8.20957Z" fill="black"/>
</svg>
