<svg width="32" height="32" viewBox="0 0 32 32" fill="none" xmlns="http://www.w3.org/2000/svg">
<path d="M5.5 3C3.58082 3 2 4.53174 2 6.39133V19.9566C2 21.8162 3.58079 23.348 5.5 23.348H6.66667V27.8697C6.66672 28.0846 6.72995 28.2949 6.84894 28.4762C6.96794 28.6575 7.13777 28.8021 7.33856 28.8933C7.53934 28.9844 7.76276 29.0182 7.98266 28.9907C8.20255 28.9632 8.40982 28.8756 8.58018 28.7381L15.2557 23.348H26.5C28.4192 23.348 30 21.8162 30 19.9566V6.39133C30 4.53171 28.4192 3 26.5 3H5.5ZM5.5 5.26088H26.5C27.1581 5.26088 27.6667 5.75366 27.6667 6.39133V19.9566C27.6667 20.5942 27.158 21.0871 26.5 21.0871H14.8333C14.5604 21.0871 14.2961 21.1798 14.0865 21.3491L9 25.4562V22.2175C8.99997 21.9177 8.87704 21.6302 8.65826 21.4182C8.43947 21.2062 8.14274 21.0871 7.83333 21.0871H5.5C4.8419 21.0871 4.33333 20.5943 4.33333 19.9566V6.39133C4.33333 5.75363 4.84187 5.26088 5.5 5.26088ZM10.1667 9.78265C9.85725 9.78265 9.5605 9.90175 9.34171 10.1138C9.12292 10.3258 9 10.6133 9 10.9131C9 11.2129 9.12292 11.5004 9.34171 11.7124C9.5605 11.9244 9.85725 12.0435 10.1667 12.0435H14.8333C15.1428 12.0435 15.4395 11.9244 15.6583 11.7124C15.8771 11.5004 16 11.2129 16 10.9131C16 10.6133 15.8771 10.3258 15.6583 10.1138C15.4395 9.90175 15.1428 9.78265 14.8333 9.78265H10.1667ZM10.1667 14.3044C9.85725 14.3044 9.5605 14.4235 9.34171 14.6355C9.12292 14.8475 9 15.1351 9 15.4349C9 15.7347 9.12292 16.0222 9.34171 16.2342C9.5605 16.4462 9.85725 16.5653 10.1667 16.5653H19.5C19.8094 16.5653 20.1062 16.4462 20.325 16.2342C20.5438 16.0222 20.6667 15.7347 20.6667 15.4349C20.6667 15.1351 20.5438 14.8475 20.325 14.6355C20.1062 14.4235 19.8094 14.3044 19.5 14.3044H10.1667Z" fill="black"/>
</svg>
