<svg width="32" height="32" viewBox="0 0 32 32" fill="none" xmlns="http://www.w3.org/2000/svg">
<path fill-rule="evenodd" clip-rule="evenodd" d="M13.9952 2H18.0048C20.0929 1.99999 21.7299 1.99999 23.0377 2.12433C24.3706 2.25108 25.4621 2.51386 26.4244 3.10349C27.432 3.72095 28.2792 4.56811 28.8966 5.57571C29.4862 6.5379 29.749 7.62939 29.8757 8.96239C30.0001 10.2702 30.0001 11.9071 30.0001 13.9952V15.3851C30.0001 16.8714 30.0001 18.0369 29.9359 18.9782C29.8705 19.9361 29.7354 20.7332 29.43 21.4703C28.67 23.3052 27.2122 24.763 25.3773 25.5231C24.3291 25.9572 23.135 26.0536 21.5002 26.0818C20.9283 26.0917 20.5661 26.0989 20.29 26.1294C20.032 26.1581 19.932 26.1999 19.8734 26.234C19.8117 26.2698 19.7276 26.3353 19.5816 26.5356C19.4235 26.7526 19.2449 27.0522 18.9618 27.5307L18.2558 28.7234C17.2483 30.4255 14.7518 30.4255 13.7443 28.7234L13.0383 27.5307C12.7551 27.0522 12.5765 26.7526 12.4184 26.5356C12.2724 26.3353 12.1883 26.2698 12.1265 26.234C12.068 26.1999 11.968 26.1581 11.71 26.1294C11.4339 26.0989 11.0717 26.0917 10.4999 26.0818C8.86507 26.0536 7.67104 25.9572 6.62271 25.5231C4.78784 24.763 3.33004 23.3052 2.57002 21.4703C2.26467 20.7332 2.12958 19.9361 2.06423 18.9782C1.99999 18.0369 2 16.8714 2 15.3851V13.9952C1.99999 11.9072 1.99999 10.2702 2.12433 8.96239C2.25108 7.62939 2.51386 6.5379 3.10349 5.57571C3.72095 4.56811 4.56811 3.72095 5.57571 3.10349C6.5379 2.51386 7.62939 2.25108 8.96239 2.12433C10.2702 1.99999 11.9072 1.99999 13.9952 2ZM9.1473 4.06905C7.95729 4.1822 7.20008 4.39919 6.59641 4.76912C5.85166 5.2255 5.2255 5.85166 4.76912 6.59641C4.39919 7.20008 4.1822 7.95729 4.06905 9.1473C3.95452 10.3518 3.95349 11.8961 3.95349 14.0465V15.3489C3.95349 16.8792 3.95403 17.9781 4.01319 18.8452C4.07176 19.7036 4.18449 20.2633 4.37481 20.7228C4.93657 22.079 6.01408 23.1565 7.37028 23.7183C8.0418 23.9965 8.89851 24.1004 10.5335 24.1286L10.5749 24.1293C11.0933 24.1383 11.5475 24.146 11.925 24.1878C12.3307 24.2327 12.7274 24.3235 13.1087 24.5453C13.4868 24.7652 13.7594 25.0589 13.9972 25.385C14.2168 25.6865 14.4424 26.0678 14.6982 26.4998L15.4253 27.7284C15.6764 28.1525 16.3237 28.1525 16.5746 27.7284L17.3018 26.4998C17.5575 26.0678 17.7832 25.6865 18.0029 25.385C18.2406 25.0589 18.5133 24.7652 18.8913 24.5453C19.2727 24.3235 19.6693 24.2327 20.075 24.1878C20.4526 24.146 20.9067 24.1383 21.425 24.1293L21.4666 24.1286C23.1015 24.1004 23.9583 23.9965 24.6298 23.7183C25.986 23.1565 27.0634 22.079 27.6253 20.7228C27.8155 20.2633 27.9283 19.7036 27.9869 18.8452C28.0461 17.9781 28.0466 16.8792 28.0466 15.3489V14.0465C28.0466 11.8961 28.0455 10.3518 27.9311 9.1473C27.8179 7.95729 27.6009 7.20008 27.2309 6.59641C26.7746 5.85166 26.1484 5.2255 25.4036 4.76912C24.8 4.39919 24.0428 4.1822 22.8528 4.06905C21.6482 3.95452 20.1039 3.95349 17.9535 3.95349H14.0465C11.8961 3.95349 10.3518 3.95452 9.1473 4.06905ZM9.81397 12.093C9.81397 11.5536 10.2513 11.1163 10.7907 11.1163H21.2093C21.7488 11.1163 22.1861 11.5536 22.1861 12.093C22.1861 12.6325 21.7488 13.0698 21.2093 13.0698H10.7907C10.2513 13.0698 9.81397 12.6325 9.81397 12.093ZM9.81397 16.6512C9.81397 16.1118 10.2513 15.6745 10.7907 15.6745H17.9535C18.493 15.6745 18.9303 16.1118 18.9303 16.6512C18.9303 17.1906 18.493 17.6279 17.9535 17.6279H10.7907C10.2513 17.6279 9.81397 17.1906 9.81397 16.6512Z" fill="black"/>
</svg>
