<svg width="32" height="32" viewBox="0 0 32 32" fill="none" xmlns="http://www.w3.org/2000/svg">
<path fill-rule="evenodd" clip-rule="evenodd" d="M5.5 3C3.567 3 2 4.51834 2 6.3913V19.9565C2 21.8294 3.567 23.3478 5.5 23.3478H6.66667V27.8696C6.66667 28.3082 6.92854 28.7073 7.33848 28.8933C7.74843 29.0793 8.23246 29.0188 8.58022 28.738L15.2557 23.3478H26.5C28.4329 23.3478 30 21.8294 30 19.9565V6.3913C30 4.51834 28.4329 3 26.5 3H5.5ZM9 15.4348C9 14.8105 9.52234 14.3043 10.1667 14.3043H19.5C20.1443 14.3043 20.6667 14.8105 20.6667 15.4348C20.6667 16.0591 20.1443 16.5652 19.5 16.5652H10.1667C9.52234 16.5652 9 16.0591 9 15.4348ZM10.1667 9.78261C9.52234 9.78261 9 10.2887 9 10.913C9 11.5373 9.52234 12.0435 10.1667 12.0435H14.8333C15.4776 12.0435 16 11.5373 16 10.913C16 10.2887 15.4776 9.78261 14.8333 9.78261H10.1667Z" fill="black"/>
</svg>
