<svg width="32" height="32" viewBox="0 0 32 32" fill="none" xmlns="http://www.w3.org/2000/svg">
<path d="M16 2C8.27954 2 2 8.27954 2 16C2 18.2362 2.5261 20.3563 3.4613 22.234H3.46138C3.59864 22.5096 3.6315 22.7971 3.56615 23.0413L2.79048 25.9404C2.27159 27.8796 4.12035 29.7283 6.05952 29.2095L8.95862 28.4338C9.20284 28.3685 9.49037 28.4014 9.76612 28.5386C11.6437 29.4739 13.7638 30 16 30C23.7204 30 30 23.7204 30 16C30 8.27953 23.7204 2 16 2ZM16 3.95349C22.6646 3.95349 28.0465 9.33528 28.0465 16C28.0465 22.6646 22.6646 28.0465 16 28.0465C14.0695 28.0465 12.2516 27.5943 10.6369 26.7899H10.6368L10.6367 26.7899C9.98432 26.4651 9.21099 26.3441 8.45361 26.5467L5.55466 27.3223C4.97688 27.4769 4.523 27.023 4.67757 26.4453L5.45325 23.5463V23.5462C5.65589 22.7889 5.5349 22.0156 5.2099 21.3631C4.40562 19.7483 3.95349 17.9304 3.95349 16C3.95349 9.33528 9.33528 3.95349 16 3.95349ZM10.7907 13.0697C10.5317 13.0697 10.2832 13.1726 10.1 13.3558C9.91687 13.539 9.81396 13.7874 9.81396 14.0465C9.81396 14.3055 9.91687 14.554 10.1 14.7371C10.2832 14.9203 10.5317 15.0232 10.7907 15.0232H21.2093C21.4683 15.0232 21.7168 14.9203 21.9 14.7371C22.0831 14.554 22.186 14.3055 22.186 14.0465C22.186 13.7874 22.0831 13.539 21.9 13.3558C21.7168 13.1726 21.4683 13.0697 21.2093 13.0697H10.7907ZM10.7907 17.6279C10.5317 17.6279 10.2832 17.7308 10.1 17.914C9.91687 18.0972 9.81396 18.3456 9.81396 18.6047C9.81396 18.8637 9.91687 19.1122 10.1 19.2953C10.2832 19.4785 10.5317 19.5814 10.7907 19.5814H17.9535C18.2125 19.5814 18.4609 19.4785 18.6441 19.2953C18.8273 19.1122 18.9302 18.8637 18.9302 18.6047C18.9302 18.3456 18.8273 18.0972 18.6441 17.914C18.4609 17.7308 18.2125 17.6279 17.9535 17.6279H10.7907Z" fill="black"/>
</svg>
