<svg width="32" height="32" viewBox="0 0 32 32" fill="none" xmlns="http://www.w3.org/2000/svg">
<path fill-rule="evenodd" clip-rule="evenodd" d="M18.2804 27.8606L17.5214 29.1429C16.845 30.2857 15.1551 30.2857 14.4787 29.1429L13.7197 27.8606C13.1311 26.8661 12.8367 26.3689 12.3639 26.0938C11.8912 25.8189 11.2959 25.8086 10.1054 25.7882C8.34793 25.7578 7.24567 25.6502 6.32123 25.2672C4.60603 24.5567 3.2433 23.1941 2.53284 21.4788C2 20.1925 2 18.5616 2 15.3001V13.9C2 9.31723 2 7.02581 3.03152 5.34253C3.60872 4.40063 4.40063 3.60872 5.34253 3.03152C7.02581 2 9.31722 2 13.9 2H18.1001C22.6828 2 24.9742 2 26.6576 3.03152C27.5995 3.60872 28.3914 4.40063 28.9686 5.34253C30.0001 7.02581 30.0001 9.31723 30.0001 13.9V15.3001C30.0001 18.5616 30.0001 20.1925 29.4673 21.4788C28.7568 23.1941 27.3941 24.5567 25.6789 25.2672C24.7544 25.6502 23.6522 25.7578 21.8946 25.7882C20.7041 25.8086 20.1089 25.8189 19.6361 26.0938C19.1634 26.3688 18.8689 26.8661 18.2804 27.8606ZM10.4 15.6501C9.82014 15.6501 9.35003 16.1202 9.35003 16.7001C9.35003 17.2799 9.82014 17.7501 10.4 17.7501H18.1001C18.6799 17.7501 19.1501 17.2799 19.1501 16.7001C19.1501 16.1202 18.6799 15.6501 18.1001 15.6501H10.4ZM9.35003 11.8C9.35003 11.2201 9.82014 10.75 10.4 10.75H21.6001C22.18 10.75 22.6501 11.2201 22.6501 11.8C22.6501 12.3799 22.18 12.85 21.6001 12.85H10.4C9.82014 12.85 9.35003 12.3799 9.35003 11.8Z" fill="black"/>
</svg>
