<svg width="32" height="32" viewBox="0 0 32 32" fill="none" xmlns="http://www.w3.org/2000/svg">
<path fill-rule="evenodd" clip-rule="evenodd" d="M26.5 3C28.4329 3 30 4.51834 30 6.3913V19.9565C30 21.8294 28.4329 23.3478 26.5 23.3478H25.3333V27.8696C25.3333 28.3082 25.0715 28.7073 24.6615 28.8933C24.2516 29.0793 23.7675 29.0188 23.4198 28.738L16.7443 23.3478H5.5C3.567 23.3478 2 21.8294 2 19.9565V6.3913C2 4.51834 3.567 3 5.5 3H26.5ZM6.66667 10.913C6.66667 10.2887 7.18901 9.78261 7.83333 9.78261H14.8333C15.4776 9.78261 16 10.2887 16 10.913C16 11.5373 15.4776 12.0435 14.8333 12.0435H7.83333C7.18901 12.0435 6.66667 11.5373 6.66667 10.913ZM7.83333 14.3043C7.18901 14.3043 6.66667 14.8105 6.66667 15.4348C6.66667 16.0591 7.18901 16.5652 7.83333 16.5652H19.5C20.1443 16.5652 20.6667 16.0591 20.6667 15.4348C20.6667 14.8105 20.1443 14.3043 19.5 14.3043H7.83333Z" fill="black"/>
</svg>
