<svg width="32" height="32" viewBox="0 0 32 32" fill="none" xmlns="http://www.w3.org/2000/svg">
<path d="M14.7122 4.40261C9.57087 4.95594 5.31487 8.97728 4.48953 14.0759C4.09739 16.43 4.43713 18.8478 5.46287 21.0026C5.56948 21.2042 5.60158 21.437 5.55353 21.6599L4.62287 25.3826C4.55421 25.6583 4.55813 25.9471 4.63424 26.2209C4.71036 26.4947 4.85607 26.744 5.05719 26.9448C5.25831 27.1455 5.50798 27.2907 5.78189 27.3662C6.0558 27.4418 6.34462 27.4452 6.6202 27.3759L10.3295 26.4493C10.5581 26.4002 10.7967 26.4323 11.0042 26.5399C13.1574 27.5632 15.5725 27.9019 17.9242 27.5106C23.0242 26.6839 27.0469 22.4293 27.5975 17.2866C27.7866 15.5772 27.5955 13.8471 27.0379 12.2201C26.4804 10.5932 25.5701 9.10952 24.3723 7.87538C23.1744 6.64124 21.7187 5.6871 20.1091 5.08121C18.4995 4.47532 16.7758 4.23267 15.0615 4.37061L14.7122 4.40261ZM25.6095 17.0733C25.1535 21.3213 21.8135 24.8546 17.6055 25.5359C15.6543 25.8626 13.6498 25.5824 11.8629 24.7333L11.6202 24.6293C11.0542 24.4073 10.4335 24.3654 9.84287 24.5093L6.70687 25.2919L7.49353 22.1453C7.65597 21.4711 7.57621 20.7613 7.2682 20.1399C6.418 18.3529 6.13733 16.3478 6.4642 14.3959C7.1442 10.1879 10.6775 6.84794 14.9269 6.39061C16.3688 6.2301 17.8284 6.39604 19.1975 6.87614C20.5666 7.35624 21.8101 8.1382 22.836 9.1641C23.8619 10.19 24.6439 11.4336 25.124 12.8027C25.6041 14.1718 25.77 15.6313 25.6095 17.0733Z" fill="black"/>
</svg>
