<svg width="32" height="32" viewBox="0 0 32 32" fill="none" xmlns="http://www.w3.org/2000/svg">
<path fill-rule="evenodd" clip-rule="evenodd" d="M16 30C23.7319 30 30 23.7319 30 16C30 8.26801 23.7319 2 16 2C8.26801 2 2 8.26801 2 16C2 18.2396 2.52587 20.3562 3.46084 22.2335C3.70932 22.7323 3.79201 23.3025 3.64797 23.8408L2.81411 26.9574C2.45213 28.3102 3.68981 29.5478 5.04269 29.1859L8.15915 28.3521C8.6975 28.208 9.26769 28.2907 9.76654 28.5391C11.6437 29.4742 13.7604 30 16 30ZM10.4 17.75C9.82011 17.75 9.35 18.2201 9.35 18.8C9.35 19.3799 9.82011 19.85 10.4 19.85H18.1C18.6799 19.85 19.15 19.3799 19.15 18.8C19.15 18.2201 18.6799 17.75 18.1 17.75H10.4ZM9.35 13.9C9.35 13.3201 9.82011 12.85 10.4 12.85H21.6C22.1799 12.85 22.65 13.3201 22.65 13.9C22.65 14.4799 22.1799 14.95 21.6 14.95H10.4C9.82011 14.95 9.35 14.4799 9.35 13.9Z" fill="black"/>
</svg>
