<svg width="32" height="32" viewBox="0 0 32 32" fill="none" xmlns="http://www.w3.org/2000/svg">
<path d="M5.50002 3C3.58083 3 2 4.46791 2 6.25002V19.2501C2 21.0322 3.5808 22.5001 5.50002 22.5001H16.6835L23.3418 28.6828C23.505 28.8343 23.7129 28.9374 23.9392 28.9792C24.1655 29.021 24.4 28.9995 24.6132 28.9175C24.8263 28.8355 25.0085 28.6967 25.1368 28.5186C25.265 28.3405 25.3334 28.1311 25.3335 27.9168V22.5001H26.5001C28.4193 22.5001 30.0002 21.0322 30.0002 19.2501V6.25002C30.0002 4.46789 28.4193 3 26.5001 3H5.50002ZM5.50002 5.16668H26.5001C27.1582 5.16668 27.6668 5.63892 27.6668 6.25002V19.2501C27.6668 19.8611 27.1582 20.3334 26.5001 20.3334H24.1668C23.8574 20.3335 23.5607 20.4476 23.3419 20.6508C23.1231 20.8539 23.0002 21.1295 23.0001 21.4168V25.3014L17.9917 20.6507C17.7729 20.4476 17.4762 20.3334 17.1668 20.3334H5.50002C4.84192 20.3334 4.33335 19.8611 4.33335 19.2501V6.25002C4.33335 5.6389 4.84189 5.16668 5.50002 5.16668ZM10.1667 9.50004C9.85729 9.50004 9.56054 9.61417 9.34175 9.81734C9.12296 10.0205 9.00004 10.2961 9.00004 10.5834C9.00004 10.8707 9.12296 11.1462 9.34175 11.3494C9.56054 11.5526 9.85729 11.6667 10.1667 11.6667H14.8334C15.1428 11.6667 15.4396 11.5526 15.6584 11.3494C15.8772 11.1462 16.0001 10.8707 16.0001 10.5834C16.0001 10.2961 15.8772 10.0205 15.6584 9.81734C15.4396 9.61417 15.1428 9.50004 14.8334 9.50004H10.1667ZM10.1667 13.8334C9.85729 13.8334 9.56054 13.9475 9.34175 14.1507C9.12296 14.3539 9.00004 14.6294 9.00004 14.9167C9.00004 15.2041 9.12296 15.4796 9.34175 15.6828C9.56054 15.8859 9.85729 16.0001 10.1667 16.0001H19.5001C19.8095 16.0001 20.1063 15.8859 20.3251 15.6828C20.5439 15.4796 20.6668 15.2041 20.6668 14.9167C20.6668 14.6294 20.5439 14.3539 20.3251 14.1507C20.1063 13.9475 19.8095 13.8334 19.5001 13.8334H10.1667Z" fill="black"/>
</svg>
