<svg width="32" height="32" viewBox="0 0 32 32" fill="none" xmlns="http://www.w3.org/2000/svg">
<path d="M16 2C13.2311 2 10.5243 2.82109 8.22202 4.35942C5.91973 5.89776 4.12532 8.08426 3.06569 10.6424C2.00607 13.2006 1.72882 16.0155 2.26901 18.7313C2.80921 21.447 4.14258 23.9416 6.10051 25.8995C8.05844 27.8574 10.553 29.1908 13.2687 29.731C15.9845 30.2712 18.7994 29.9939 21.3576 28.9343C23.9157 27.8747 26.1022 26.0803 27.6406 23.778C29.1789 21.4757 30 18.7689 30 16C29.9965 12.288 28.5204 8.72913 25.8956 6.10438C23.2709 3.47963 19.712 2.00351 16 2ZM16 24.4737C15.6357 24.4737 15.2795 24.3656 14.9766 24.1632C14.6737 23.9608 14.4375 23.6731 14.2981 23.3365C14.1587 22.9999 14.1222 22.6295 14.1933 22.2722C14.2644 21.9149 14.4398 21.5866 14.6974 21.329C14.9551 21.0714 15.2833 20.8959 15.6406 20.8249C15.998 20.7538 16.3683 20.7903 16.7049 20.9297C17.0415 21.0691 17.3292 21.3052 17.5317 21.6082C17.7341 21.9111 17.8421 22.2672 17.8421 22.6316C17.8421 23.1201 17.648 23.5887 17.3026 23.9341C16.9571 24.2796 16.4886 24.4737 16 24.4737ZM16 17.8421C15.6357 17.8421 15.2795 17.7341 14.9766 17.5316C14.6737 17.3292 14.4375 17.0415 14.2981 16.7049C14.1587 16.3683 14.1222 15.998 14.1933 15.6406C14.2644 15.2833 14.4398 14.9551 14.6974 14.6974C14.9551 14.4398 15.2833 14.2644 15.6406 14.1933C15.998 14.1222 16.3683 14.1587 16.7049 14.2981C17.0415 14.4375 17.3292 14.6736 17.5317 14.9766C17.7341 15.2795 17.8421 15.6357 17.8421 16C17.8421 16.4886 17.648 16.9571 17.3026 17.3026C16.9571 17.648 16.4886 17.8421 16 17.8421ZM16 11.2105C15.6357 11.2105 15.2795 11.1025 14.9766 10.9001C14.6737 10.6977 14.4375 10.41 14.2981 10.0734C14.1587 9.73676 14.1222 9.36637 14.1933 9.00904C14.2644 8.65171 14.4398 8.32348 14.6974 8.06585C14.9551 7.80823 15.2833 7.63279 15.6406 7.56171C15.998 7.49063 16.3683 7.52711 16.7049 7.66654C17.0415 7.80596 17.3292 8.04207 17.5317 8.345C17.7341 8.64793 17.8421 9.00408 17.8421 9.36842C17.8421 9.85698 17.648 10.3255 17.3026 10.671C16.9571 11.0164 16.4886 11.2105 16 11.2105Z" fill="black"/>
</svg>
