<svg width="32" height="32" viewBox="0 0 32 32" fill="none" xmlns="http://www.w3.org/2000/svg">
<path d="M16 2C13.2311 2 10.5243 2.82109 8.22202 4.35942C5.91973 5.89776 4.12532 8.08426 3.06569 10.6424C2.00607 13.2006 1.72882 16.0155 2.26901 18.7313C2.80921 21.447 4.14258 23.9416 6.10051 25.8995C8.05844 27.8574 10.553 29.1908 13.2687 29.731C15.9845 30.2712 18.7994 29.9939 21.3576 28.9343C23.9157 27.8747 26.1022 26.0803 27.6406 23.778C29.1789 21.4757 30 18.7689 30 16C29.9965 12.288 28.5204 8.72913 25.8956 6.10438C23.2709 3.47963 19.712 2.00351 16 2ZM9.36843 17.8421C9.00409 17.8421 8.64794 17.7341 8.34501 17.5316C8.04207 17.3292 7.80597 17.0415 7.66654 16.7049C7.52712 16.3683 7.49064 15.998 7.56172 15.6406C7.63279 15.2833 7.80824 14.9551 8.06586 14.6974C8.32348 14.4398 8.65172 14.2644 9.00905 14.1933C9.36638 14.1222 9.73677 14.1587 10.0734 14.2981C10.41 14.4375 10.6977 14.6736 10.9001 14.9766C11.1025 15.2795 11.2105 15.6357 11.2105 16C11.2105 16.4886 11.0165 16.9571 10.671 17.3026C10.3255 17.648 9.85698 17.8421 9.36843 17.8421ZM16 17.8421C15.6357 17.8421 15.2795 17.7341 14.9766 17.5316C14.6737 17.3292 14.4375 17.0415 14.2981 16.7049C14.1587 16.3683 14.1222 15.998 14.1933 15.6406C14.2644 15.2833 14.4398 14.9551 14.6974 14.6974C14.9551 14.4398 15.2833 14.2644 15.6406 14.1933C15.998 14.1222 16.3683 14.1587 16.7049 14.2981C17.0415 14.4375 17.3292 14.6736 17.5317 14.9766C17.7341 15.2795 17.8421 15.6357 17.8421 16C17.8421 16.4886 17.648 16.9571 17.3026 17.3026C16.9571 17.648 16.4886 17.8421 16 17.8421ZM22.6316 17.8421C22.2672 17.8421 21.9111 17.7341 21.6082 17.5316C21.3052 17.3292 21.0691 17.0415 20.9297 16.7049C20.7903 16.3683 20.7538 15.998 20.8249 15.6406C20.8959 15.2833 21.0714 14.9551 21.329 14.6974C21.5866 14.4398 21.9149 14.2644 22.2722 14.1933C22.6295 14.1222 22.9999 14.1587 23.3365 14.2981C23.6731 14.4375 23.9608 14.6736 24.1632 14.9766C24.3656 15.2795 24.4737 15.6357 24.4737 16C24.4737 16.4886 24.2796 16.9571 23.9341 17.3026C23.5887 17.648 23.1201 17.8421 22.6316 17.8421Z" fill="black"/>
</svg>
