<svg width="32" height="32" viewBox="0 0 32 32" fill="none" xmlns="http://www.w3.org/2000/svg">
<path d="M17.6547 2.00171C16.6844 1.98351 15.7937 2.10996 14.9739 2.40646C13.4728 2.94935 12.2988 4.09467 11.4643 5.68376C11.078 5.78067 10.6906 5.8919 10.2974 6.02257C10.2941 6.0237 10.2907 6.02485 10.2874 6.02601L8.23391 6.73429C5.52268 7.65038 3.60165 8.93402 2.65368 10.8858C1.7057 12.8376 1.843 15.2216 2.71667 18.0614C2.71682 18.0619 2.71698 18.0623 2.71713 18.0628L4.38519 23.4573C4.38527 23.4576 4.38535 23.4579 4.38542 23.4581C5.26595 26.298 6.48907 28.3123 8.34929 29.3097C10.2095 30.3072 12.4832 30.1673 15.1934 29.2516C15.1953 29.2509 15.1972 29.2503 15.1991 29.2496L17.2557 28.5402C18.4146 28.1439 19.4084 27.6884 20.2617 27.1327C22.3148 27.2758 24.0851 26.8183 25.4268 25.615C26.8428 24.3452 27.7181 22.3897 28.291 19.8092L28.2907 19.8109L29.5678 14.1023C30.2362 11.1149 30.1784 8.6626 29.0477 6.75261C27.9169 4.84262 25.8448 3.69738 22.9875 2.99702C22.9874 2.997 22.9873 2.99697 22.9871 2.99694L20.8135 2.46504L20.8128 2.46488C19.6746 2.18277 18.6248 2.01991 17.6547 2.00171ZM17.6316 4.05507C18.4194 4.07058 19.3258 4.2013 20.3636 4.45854C20.3645 4.45879 20.3654 4.45903 20.3663 4.45926L22.5427 4.99189C25.1455 5.62994 26.6375 6.56737 27.3866 7.83259C28.1356 9.09787 28.2734 10.9134 27.6646 13.6347L26.3875 19.3433C26.3874 19.3439 26.3873 19.3444 26.3872 19.345C25.8654 21.6947 25.1117 23.2014 24.1559 24.0586C23.2001 24.9158 21.9749 25.26 20.1087 25.0719C20.1035 25.0714 20.0983 25.0709 20.0931 25.0705C20.093 25.0705 20.0929 25.0705 20.0929 25.0705C19.9452 25.0581 19.7935 25.0418 19.6379 25.0214C19.6378 25.0214 19.6378 25.0214 19.6377 25.0214C19.4821 25.001 19.3227 24.9765 19.1593 24.948C19.1593 24.948 19.1592 24.948 19.1592 24.948C18.8324 24.8909 18.4904 24.8175 18.1333 24.7271C18.1333 24.7271 18.1332 24.7271 18.1332 24.7271C18.1322 24.7269 18.1313 24.7266 18.1303 24.7264H18.1302L15.9409 24.1801C15.9409 24.1801 15.9409 24.1801 15.9409 24.1801C15.9407 24.18 15.9405 24.18 15.9403 24.1799C15.9403 24.1799 15.9403 24.1799 15.9403 24.1799C15.6164 24.0994 15.3098 24.0142 15.0196 23.9244C15.0196 23.9244 15.0195 23.9244 15.0194 23.9244C14.7293 23.8346 14.4556 23.7401 14.1977 23.641C14.1977 23.641 14.1977 23.641 14.1977 23.641C13.6818 23.4426 13.2292 23.2254 12.834 22.9889C12.834 22.9889 12.834 22.9889 12.834 22.9889C12.0437 22.5158 11.4836 21.965 11.1089 21.3327C10.3594 20.0681 10.2192 18.257 10.8279 15.5363C10.8279 15.5361 10.8279 15.5359 10.8279 15.5357L12.1047 9.8148V9.81472L12.1051 9.81344C12.3547 8.70199 12.651 7.76021 12.9948 7.02764C12.9958 7.02559 12.9967 7.02353 12.9977 7.02148C13.6805 5.5415 14.4852 4.75035 15.6115 4.34299C16.1747 4.1393 16.8439 4.03956 17.6316 4.05507ZM11.2392 6.12684C11.239 6.12725 11.2388 6.12771 11.2386 6.12812C11.2384 6.12867 11.238 6.12916 11.2378 6.12972L11.2392 6.12684ZM10.5221 8.1017C10.4075 8.50114 10.2992 8.91182 10.2018 9.34556C10.2017 9.34598 10.2016 9.34641 10.2015 9.34684L8.92442 15.0692C8.25608 18.0569 8.31794 20.5065 9.44824 22.4136C9.80148 23.0096 10.2462 23.5312 10.7774 23.9882C10.7774 23.9882 10.7775 23.9882 10.7775 23.9882C10.8837 24.0796 10.9934 24.1684 11.1065 24.2547C11.1065 24.2548 11.1066 24.2547 11.1066 24.2547C11.2197 24.3411 11.3362 24.425 11.4562 24.5063C11.4562 24.5064 11.4562 24.5063 11.4563 24.5063C11.5762 24.5877 11.6995 24.6667 11.8261 24.7433C11.8262 24.7433 11.8262 24.7433 11.8262 24.7433C12.0795 24.8965 12.3462 25.0404 12.626 25.1756C12.626 25.1756 12.626 25.1756 12.6261 25.1756C12.9059 25.3107 13.1988 25.4371 13.5044 25.5554C13.81 25.6737 14.1284 25.784 14.4591 25.8867C14.4592 25.8867 14.4593 25.8867 14.4593 25.8867C14.7899 25.9894 15.1329 26.0846 15.4881 26.173H15.4882L15.4885 26.173C15.4886 26.1731 15.4886 26.1731 15.4887 26.1731H15.4889L16.8591 26.5151C16.7873 26.5406 16.7231 26.5675 16.6494 26.5928C16.6486 26.593 16.6478 26.5933 16.647 26.5936L14.5928 27.3021C12.1298 28.1341 10.4549 28.1376 9.23973 27.486C8.02454 26.8345 7.04533 25.4074 6.24478 22.8259L6.24455 22.8251L4.57718 17.4328C3.78274 14.8507 3.77662 13.0897 4.39573 11.815C5.01484 10.5403 6.37135 9.51596 8.83378 8.68394C8.83564 8.6833 8.8375 8.68266 8.83936 8.68202L10.5221 8.1017ZM17.1015 10.2672C16.8503 10.2004 16.584 10.2409 16.3613 10.3799C16.1385 10.5189 15.9776 10.7449 15.9139 11.0082C15.8823 11.1386 15.8756 11.2742 15.894 11.4073C15.9125 11.5404 15.9558 11.6684 16.0215 11.784C16.0871 11.8996 16.1739 12.0005 16.2767 12.0809C16.3796 12.1613 16.4966 12.2198 16.621 12.2528L22.9415 13.9327C23.1927 13.9994 23.459 13.9589 23.6818 13.8199C23.9045 13.681 24.0654 13.455 24.1292 13.1916C24.1929 12.9283 24.1542 12.6493 24.0216 12.4159C23.889 12.1824 23.6733 12.0138 23.4221 11.947L17.1015 10.2672ZM15.8258 15.5528C15.5746 15.4856 15.3083 15.5258 15.0854 15.6644C14.8625 15.803 14.7012 16.0288 14.6371 16.292C14.5731 16.5552 14.6114 16.8344 14.7437 17.068C14.8759 17.3016 15.0914 17.4706 15.3425 17.5377L19.1218 18.5484C19.3729 18.6155 19.6393 18.5754 19.8622 18.4368C20.0851 18.2981 20.2464 18.0724 20.3105 17.8092C20.3422 17.6788 20.3491 17.5432 20.3309 17.4101C20.3126 17.2769 20.2695 17.1488 20.204 17.0332C20.1385 16.9175 20.0519 16.8164 19.9491 16.7358C19.8463 16.6552 19.7294 16.5966 19.605 16.5634L15.8258 15.5528ZM19.9216 27.1111C19.9234 27.1113 19.9251 27.1113 19.927 27.1115C19.927 27.1115 19.9271 27.1115 19.9271 27.1115C19.9303 27.1117 19.9335 27.1122 19.9367 27.1125L19.9216 27.1111Z" fill="black"/>
</svg>
