<svg width="32" height="32" viewBox="0 0 32 32" fill="none" xmlns="http://www.w3.org/2000/svg">
<path d="M10.6667 7.52721C10.12 7.52721 9.66667 7.08442 9.66667 6.55047V2.64349C9.66667 2.10954 10.12 1.66675 10.6667 1.66675C11.2133 1.66675 11.6667 2.10954 11.6667 2.64349V6.55047C11.6667 7.08442 11.2133 7.52721 10.6667 7.52721ZM21.3333 7.52721C20.7867 7.52721 20.3333 7.08442 20.3333 6.55047V2.64349C20.3333 2.10954 20.7867 1.66675 21.3333 1.66675C21.88 1.66675 22.3333 2.10954 22.3333 2.64349V6.55047C22.3333 7.08442 21.88 7.52721 21.3333 7.52721ZM20 17.9458H9.33333C8.78667 17.9458 8.33333 17.503 8.33333 16.9691C8.33333 16.4351 8.78667 15.9923 9.33333 15.9923H20C20.5467 15.9923 21 16.4351 21 16.9691C21 17.503 20.5467 17.9458 20 17.9458ZM16 23.1551H9.33333C8.78667 23.1551 8.33333 22.7123 8.33333 22.1784C8.33333 21.6444 8.78667 21.2016 9.33333 21.2016H16C16.5467 21.2016 17 21.6444 17 22.1784C17 22.7123 16.5467 23.1551 16 23.1551Z" fill="black"/>
<path d="M20 29.6667H12C4.50667 29.6667 3 26.2156 3 20.6416V12.6063C3 6.43326 5.13333 3.91977 10.6133 3.62024H21.3867C26.8667 3.91977 29 6.43326 29 12.6063V20.6416C29 26.2156 27.4933 29.6667 20 29.6667ZM10.6667 5.57372C6.93333 5.7821 5 6.92814 5 12.6063V20.6416C5 25.6295 5.97333 27.7133 12 27.7133H20C26.0267 27.7133 27 25.6295 27 20.6416V12.6063C27 6.94117 25.08 5.7821 21.3067 5.57372H10.6667Z" fill="black"/>
</svg>
