<svg width="32" height="32" viewBox="0 0 32 32" fill="none" xmlns="http://www.w3.org/2000/svg">
<path d="M10.9232 8.006C10.3484 8.006 9.89684 7.53 9.89684 6.956V3.05C9.89684 2.77152 10.005 2.50445 10.1974 2.30754C10.3899 2.11062 10.651 2 10.9232 2C11.1954 2 11.4564 2.11062 11.6489 2.30754C11.8413 2.50445 11.9495 2.77152 11.9495 3.05V6.942C11.9495 7.53 11.4979 8.006 10.9232 8.006ZM21.0768 8.006C20.5021 8.006 20.0505 7.53 20.0505 6.956V3.05C20.0505 2.77152 20.1587 2.50445 20.3511 2.30754C20.5436 2.11062 20.8046 2 21.0768 2C21.349 2 21.6101 2.11062 21.8026 2.30754C21.995 2.50445 22.1032 2.77152 22.1032 3.05V6.942C22.1032 7.53 21.6516 8.006 21.0768 8.006Z" fill="black"/>
<path d="M26.3589 5.5C25.4558 4.814 24.1558 5.472 24.1558 6.634V6.774C24.1558 8.412 23.0063 9.924 21.4053 10.092C19.5579 10.288 17.9979 8.804 17.9979 6.956V5.5C17.9979 4.73 17.3821 4.1 16.6295 4.1H15.3705C14.6179 4.1 14.0021 4.73 14.0021 5.5V6.956C14.0021 8.062 13.4411 9.042 12.5926 9.588C12.4695 9.672 12.3326 9.742 12.1958 9.812C12.0726 9.882 11.9358 9.938 11.7853 9.98C11.6211 10.036 11.4432 10.078 11.2516 10.092C11.0326 10.12 10.8137 10.12 10.5947 10.092C10.4032 10.078 10.2253 10.036 10.0611 9.98C9.77739 9.88331 9.50627 9.75168 9.25368 9.588C8.39158 8.972 7.84421 7.908 7.84421 6.774V6.634C7.84421 5.556 6.72211 4.912 5.83263 5.374C5.81895 5.388 5.80526 5.388 5.79158 5.402C5.73684 5.43 5.69579 5.458 5.64105 5.5C5.6 5.542 5.54526 5.57 5.50421 5.612C5.12105 5.92 4.77895 6.27 4.49158 6.648C4.34105 6.816 4.21789 6.998 4.10842 7.18C3.96942 7.38473 3.84591 7.60003 3.73895 7.824C3.71158 7.852 3.69789 7.866 3.69789 7.894C3.61579 8.062 3.53368 8.23 3.47895 8.412C3.43789 8.482 3.42421 8.538 3.39684 8.608C3.31474 8.818 3.26 9.028 3.20526 9.238C3.15053 9.434 3.10947 9.644 3.08211 9.854C3.03235 10.2065 3.00493 10.5619 3 10.918V23.182C3 24.9902 3.70212 26.7244 4.9519 28.0031C6.20168 29.2817 7.89675 30 9.66421 30H22.3358C23.2109 30 24.0775 29.8236 24.8861 29.481C25.6946 29.1384 26.4293 28.6362 27.0481 28.0031C27.6669 27.3699 28.1578 26.6183 28.4927 25.7911C28.8276 24.9639 29 24.0774 29 23.182V10.918C29 8.692 27.96 6.746 26.3589 5.5ZM16 23.588H9.65053C9.37652 23.588 9.11373 23.4766 8.91997 23.2784C8.72622 23.0802 8.61737 22.8113 8.61737 22.531C8.61737 22.2507 8.72622 21.9818 8.91997 21.7836C9.11373 21.5854 9.37652 21.474 9.65053 21.474H16C16.5747 21.474 17.0263 21.95 17.0263 22.538C17.0263 23.112 16.5747 23.588 16 23.588ZM19.8042 18.394H9.65053C9.37652 18.394 9.11373 18.2826 8.91997 18.0844C8.72622 17.8862 8.61737 17.6173 8.61737 17.337C8.61737 17.0567 8.72622 16.7878 8.91997 16.5896C9.11373 16.3914 9.37652 16.28 9.65053 16.28H19.8042C20.3789 16.28 20.8442 16.756 20.8442 17.344C20.8442 17.918 20.3789 18.394 19.8042 18.394Z" fill="black"/>
</svg>
