<svg width="32" height="32" viewBox="0 0 32 32" fill="none" xmlns="http://www.w3.org/2000/svg">
<path d="M16.9772 27.7232C17.362 27.8174 17.3973 28.3477 17.0225 28.4791L14.8092 29.2452C9.24789 31.1311 6.32016 29.5546 4.5131 23.7054L2.72004 17.8856C0.926986 12.0363 2.41186 8.94228 7.97314 7.05638L8.70716 6.80071C9.27151 6.60415 9.82072 7.19948 9.66048 7.80159C9.58105 8.10005 9.50463 8.41154 9.43 8.73603L8.05719 14.9094C6.51628 21.849 8.77161 25.6797 15.3695 27.3299L16.9772 27.7232Z" fill="black"/>
<path d="M23.2727 3.04394L20.9333 2.46933C16.2546 1.30537 13.4669 2.26306 11.8279 5.82859C11.4077 6.72734 11.0715 7.81762 10.7913 9.06998L9.4185 15.2433C8.04569 21.4019 9.85275 24.4371 15.6942 25.8957L18.0476 26.485C18.8601 26.6913 19.6165 26.8239 20.317 26.8828C24.6875 27.3249 27.0129 25.1737 28.1896 19.8549L29.5624 13.6963C30.9352 7.53769 29.1422 4.48783 23.2727 3.04394ZM20.6391 17.9543C20.5131 18.4552 20.0928 18.7794 19.6165 18.7794C19.5325 18.7794 19.4484 18.7646 19.3504 18.7499L15.274 17.6596C14.7136 17.5123 14.3774 16.9082 14.5175 16.3189C14.6576 15.7295 15.232 15.3759 15.7923 15.5232L19.8687 16.6135C20.443 16.7609 20.7792 17.3649 20.6391 17.9543ZM24.7436 12.9744C24.6175 13.4753 24.1972 13.7994 23.721 13.7994C23.6369 13.7994 23.5529 13.7847 23.4548 13.7699L16.6608 11.9578C16.1005 11.8104 15.7643 11.2064 15.9043 10.617C16.0444 10.0277 16.6188 9.67406 17.1791 9.82139L23.9731 11.6336C24.5474 11.7662 24.8836 12.3703 24.7436 12.9744Z" fill="black"/>
</svg>
