<svg width="32" height="32" viewBox="0 0 32 32" fill="none" xmlns="http://www.w3.org/2000/svg">
<path d="M13.0564 27.0917H18.9392C18.9392 27.863 18.6293 28.6028 18.0777 29.1482C17.5261 29.6936 16.7779 30 15.9978 30C15.2177 30 14.4695 29.6936 13.9179 29.1482C13.3663 28.6028 13.0564 27.863 13.0564 27.0917ZM28.1193 20.9479L26.4912 18.2649C25.8753 17.2487 25.55 16.0862 25.55 14.9015V11.0814C25.4531 8.64059 24.4043 6.33166 22.6235 4.63865C20.8428 2.94563 18.4682 2 15.9978 2C13.5274 2 11.1528 2.94563 9.37204 4.63865C7.59125 6.33166 6.54248 8.64059 6.4456 11.0814V14.9015C6.44558 16.0862 6.12026 17.2487 5.50436 18.2649L3.87629 20.9479C3.63577 21.3448 3.506 21.7978 3.5002 22.2605C3.49441 22.7233 3.6128 23.1793 3.8433 23.582C4.0738 23.9848 4.40819 24.3199 4.81236 24.5533C5.21654 24.7867 5.67607 24.9099 6.14411 24.9104H25.8515C26.3199 24.9107 26.78 24.788 27.1848 24.5549C27.5896 24.3219 27.9246 23.9868 28.1556 23.5839C28.3866 23.181 28.5054 22.7247 28.4998 22.2616C28.4942 21.7985 28.3644 21.3452 28.1237 20.9479H28.1193Z" fill="black"/>
</svg>
