<svg width="32" height="32" viewBox="0 0 32 32" fill="none" xmlns="http://www.w3.org/2000/svg">
<path d="M28.0823 21.2375L26.5019 18.5875C25.9363 17.6405 25.6375 16.5568 25.6375 15.4523V11.6826C25.6375 9.11465 24.622 6.65183 22.8146 4.83598C21.0071 3.02013 18.5557 2 15.9996 2C13.4434 2 10.992 3.02013 9.18454 4.83598C7.37708 6.65183 6.36166 9.11465 6.36166 11.6826V15.4538C6.36379 16.5576 6.06746 17.6412 5.50433 18.589L3.91682 21.2375C3.6505 21.6839 3.50675 22.1932 3.50023 22.7135C3.49371 23.2339 3.62465 23.7467 3.8797 24.1996C4.13476 24.6525 4.5048 25.0294 4.9521 25.2918C5.39941 25.5543 5.90798 25.6928 6.42597 25.6934H12.113C12.1015 25.814 12.0658 25.9303 12.0658 26.0523C12.0658 27.0993 12.4798 28.1034 13.2167 28.8437C13.9536 29.5841 14.9531 30 15.9953 30C17.0374 30 18.0369 29.5841 18.7738 28.8437C19.5107 28.1034 19.9247 27.0993 19.9247 26.0523C19.9247 25.9303 19.889 25.814 19.8776 25.6934H25.5732C26.0907 25.693 26.5988 25.5548 27.0459 25.293C27.493 25.0312 27.8631 24.6551 28.1184 24.2029C28.3738 23.7507 28.5054 23.2386 28.4998 22.7188C28.4942 22.1989 28.3517 21.6898 28.0866 21.2433L28.0823 21.2375ZM17.7857 26.0523C17.7857 26.5282 17.5975 26.9846 17.2625 27.3211C16.9276 27.6577 16.4733 27.8467 15.9996 27.8467C15.5259 27.8467 15.0715 27.6577 14.7366 27.3211C14.4016 26.9846 14.2134 26.5282 14.2134 26.0523C14.2169 25.9314 14.2327 25.8111 14.2606 25.6934H17.7385C17.7664 25.8111 17.7822 25.9314 17.7857 26.0523ZM26.2547 23.1396C26.187 23.2623 26.0875 23.3643 25.9667 23.4348C25.846 23.5053 25.7085 23.5417 25.5689 23.5401H6.42597C6.28676 23.5408 6.14988 23.5042 6.02939 23.4341C5.9089 23.3641 5.80914 23.2631 5.74034 23.1415C5.67154 23.0199 5.63618 22.8822 5.63789 22.7423C5.63961 22.6025 5.67834 22.4656 5.7501 22.3458L7.33188 19.6958C8.09636 18.4141 8.50032 16.948 8.50072 15.4538V11.6826C8.50072 9.68574 9.29032 7.77062 10.6958 6.35859C12.1013 4.94656 14.0076 4.15329 15.9953 4.15329C17.983 4.15329 19.8892 4.94656 21.2947 6.35859C22.7002 7.77062 23.4898 9.68574 23.4898 11.6826V15.4538C23.4902 16.948 23.8942 18.4141 24.6587 19.6958L26.2405 22.3458C26.3137 22.4645 26.3537 22.601 26.3562 22.7407C26.3587 22.8804 26.3237 23.0182 26.2547 23.1396Z" fill="black"/>
</svg>
