<svg width="32" height="32" viewBox="0 0 32 32" fill="none" xmlns="http://www.w3.org/2000/svg">
<path fill-rule="evenodd" clip-rule="evenodd" d="M15.9999 3.95347C9.34924 3.95347 3.95347 9.35965 3.95347 16.0339C3.95347 22.236 8.61395 27.3446 14.6098 28.0348C15.212 28.1041 15.8566 27.8515 16.3721 27.3347C16.8429 26.8628 16.8429 26.0965 16.3721 25.6245C15.9659 25.2171 15.5585 24.6745 15.3356 24.0576C15.1073 23.4257 15.0509 22.633 15.5141 21.8962C15.9346 21.2274 16.5652 20.8692 17.2268 20.6951C17.8639 20.5275 18.5699 20.518 19.2479 20.5592C19.8782 20.5974 20.5568 20.6854 21.215 20.7707C21.2705 20.7779 21.3258 20.7851 21.381 20.7921C22.1063 20.8858 22.8146 20.9732 23.4987 21.0059C24.8978 21.0729 25.9755 20.8966 26.7119 20.2944C27.4169 19.7183 28.0463 18.5483 28.0463 16.0339C28.0463 9.35965 22.6505 3.95347 15.9999 3.95347ZM2 16.0339C2 8.28558 8.26557 2 15.9999 2C23.7342 2 29.9998 8.28558 29.9998 16.0339C29.9998 18.8276 29.3007 20.7014 27.9484 21.8069C26.6278 22.8864 24.9201 23.0298 23.4052 22.9571C22.6324 22.9201 21.8517 22.8227 21.1309 22.7296C21.0802 22.7231 21.0301 22.7166 20.9801 22.7101C20.3035 22.6225 19.69 22.5431 19.1296 22.5091C18.5225 22.4723 18.0612 22.4956 17.724 22.5843C17.4112 22.6666 17.2605 22.7885 17.1678 22.936C17.1173 23.0164 17.0817 23.1414 17.1729 23.3938C17.2695 23.6613 17.4804 23.9694 17.7551 24.245C18.9865 25.4794 18.9865 27.4798 17.7551 28.7143C16.9084 29.5632 15.698 30.1265 14.3863 29.9755C7.41196 29.1725 2 23.2358 2 16.0339ZM12.8548 8.51127C12.3154 8.51127 11.8781 8.94858 11.8781 9.48801C11.8781 10.0275 12.3154 10.4647 12.8548 10.4647C13.3942 10.4647 13.8315 10.0275 13.8315 9.48801C13.8315 8.94858 13.3942 8.51127 12.8548 8.51127ZM9.92458 9.48801C9.92458 7.8697 11.2365 6.5578 12.8548 6.5578C14.473 6.5578 15.785 7.8697 15.785 9.48801C15.785 11.1063 14.473 12.4182 12.8548 12.4182C11.2365 12.4182 9.92458 11.1063 9.92458 9.48801ZM19.2557 8.51157C18.7162 8.51157 18.2789 8.94888 18.2789 9.48831C18.2789 10.0277 18.7162 10.465 19.2557 10.465C19.7951 10.465 20.2324 10.0277 20.2324 9.48831C20.2324 8.94888 19.7951 8.51157 19.2557 8.51157ZM16.3255 9.48831C16.3255 7.87 17.6374 6.5581 19.2557 6.5581C20.8739 6.5581 22.1859 7.87 22.1859 9.48831C22.1859 11.1066 20.8739 12.4185 19.2557 12.4185C17.6374 12.4185 16.3255 11.1066 16.3255 9.48831ZM8.83715 14.372C8.29772 14.372 7.86042 14.8093 7.86042 15.3487C7.86042 15.8881 8.29772 16.3255 8.83715 16.3255C9.37658 16.3255 9.81389 15.8881 9.81389 15.3487C9.81389 14.8093 9.37658 14.372 8.83715 14.372ZM5.90694 15.3487C5.90694 13.7305 7.21884 12.4185 8.83715 12.4185C10.4555 12.4185 11.7674 13.7305 11.7674 15.3487C11.7674 16.967 10.4555 18.2789 8.83715 18.2789C7.21884 18.2789 5.90694 16.967 5.90694 15.3487ZM23.1626 14.372C22.6232 14.372 22.1859 14.8093 22.1859 15.3487C22.1859 15.8881 22.6232 16.3255 23.1626 16.3255C23.702 16.3255 24.1393 15.8881 24.1393 15.3487C24.1393 14.8093 23.702 14.372 23.1626 14.372ZM20.2324 15.3487C20.2324 13.7305 21.5444 12.4185 23.1626 12.4185C24.7809 12.4185 26.0928 13.7305 26.0928 15.3487C26.0928 16.967 24.7809 18.2789 23.1626 18.2789C21.5444 18.2789 20.2324 16.967 20.2324 15.3487Z" fill="black"/>
</svg>
