<svg width="32" height="32" viewBox="0 0 32 32" fill="none" xmlns="http://www.w3.org/2000/svg">
<path fill-rule="evenodd" clip-rule="evenodd" d="M14.3855 29.9808C7.41398 29.1782 2 23.2413 2 16.0366C2 8.28438 8.26801 2 16 2C23.7319 2 30 8.28438 30 16.0366C30 23.2745 25.4042 22.6794 21.4789 22.171C19.215 21.8777 17.174 21.6134 16.3667 22.8976C15.8144 23.7758 16.4113 24.8709 17.1435 25.605C18.0584 26.5223 18.0584 28.0093 17.1435 28.9266C16.4113 29.6607 15.4142 30.0992 14.3855 29.9808ZM14.719 9.01795C14.719 10.1808 13.7788 11.1234 12.619 11.1234C11.4592 11.1234 10.519 10.1808 10.519 9.01795C10.519 7.85512 11.4592 6.91246 12.619 6.91246C13.7788 6.91246 14.719 7.85512 14.719 9.01795ZM8.3 17.4402C9.4598 17.4402 10.4 16.4975 10.4 15.3347C10.4 14.1719 9.4598 13.2292 8.3 13.2292C7.1402 13.2292 6.2 14.1719 6.2 15.3347C6.2 16.4975 7.1402 17.4402 8.3 17.4402ZM23.7 17.4402C24.8598 17.4402 25.8 16.4975 25.8 15.3347C25.8 14.1719 24.8598 13.2292 23.7 13.2292C22.5402 13.2292 21.6 14.1719 21.6 15.3347C21.6 16.4975 22.5402 17.4402 23.7 17.4402ZM19.5 11.1237C20.6598 11.1237 21.6 10.1811 21.6 9.01826C21.6 7.85544 20.6598 6.91277 19.5 6.91277C18.3402 6.91277 17.4 7.85544 17.4 9.01826C17.4 10.1811 18.3402 11.1237 19.5 11.1237Z" fill="black"/>
</svg>
