<svg width="32" height="32" viewBox="0 0 32 32" fill="none" xmlns="http://www.w3.org/2000/svg">
<path fill-rule="evenodd" clip-rule="evenodd" d="M27.7666 16.5951C27.4618 22.946 22.3037 28 15.9853 28C14.0447 28 12.2135 27.5229 10.5987 26.6781C11.73 26.2947 12.9597 25.7932 14.2842 25.1733C15.9117 24.4117 17.6823 23.4713 19.5894 22.3512C21.497 21.2307 23.1834 20.1407 24.6458 19.0873C25.8344 18.2312 26.8751 17.3992 27.7666 16.5951ZM15.9853 4C18.9021 4 21.5716 5.07701 23.6306 6.86144L24.046 6.76595C24.1177 6.75032 24.1905 6.73491 24.2642 6.71983L24.7176 6.6343L25.1884 6.56227C26.8594 6.34018 28.7353 6.46686 29.6055 8.0002C30.6042 9.75993 29.5291 11.7116 28.3518 13.1498L28.0565 13.4983L27.7637 13.8229C25.9365 15.7937 22.911 18.0907 18.6064 20.6191C14.302 23.1473 10.8339 24.6644 8.24254 25.2888L8.03423 25.3375L7.60005 25.4289L7.14703 25.5082C5.38138 25.7831 3.32191 25.6866 2.36486 24.0003C1.49488 22.4673 2.32446 20.7516 3.34857 19.3906L3.64517 19.0119C3.69505 18.9506 3.74505 18.8901 3.795 18.8307L4.09285 18.4861L4.38179 18.1679C4.25563 17.4645 4.18969 16.7393 4.18969 16C4.18969 9.37259 9.47085 4 15.9853 4ZM5.33197 21.158L5.12992 21.4425C4.91279 21.7558 4.67516 22.143 4.63974 22.4927L4.63991 22.664C4.82363 22.9969 5.47404 23.0006 5.95291 22.9641L6.35096 22.9251C5.96415 22.3691 5.62267 21.7783 5.33197 21.158ZM27.3306 9.33652C27.0649 9.13561 26.6318 9.11782 26.2375 9.14237L25.8639 9.17582C25.8063 9.18201 25.7517 9.18808 25.7011 9.19336C26.0812 9.75372 26.4155 10.3486 26.6989 10.9724L26.9101 10.6722C27.1567 10.3082 27.4599 9.78929 27.3778 9.44238L27.3356 9.33356L27.3306 9.33652Z" fill="black"/>
</svg>
