<svg width="32" height="32" viewBox="0 0 32 32" fill="none" xmlns="http://www.w3.org/2000/svg">
<path fill-rule="evenodd" clip-rule="evenodd" d="M15.9822 4C18.9006 4 21.5741 5.07791 23.6341 6.86147C24.8553 6.56769 25.9758 6.43204 26.9224 6.51383C27.919 6.59993 29.0257 6.96347 29.6147 8.00024C30.1476 8.93839 30.0761 9.98576 29.7138 10.9388C29.3577 11.8749 28.6819 12.8415 27.7711 13.8231C27.7222 13.8757 27.6725 13.9287 27.6218 13.9819C27.7314 14.6388 27.7883 15.3131 27.7883 16C27.7883 22.6275 22.5025 28 15.9822 28C13.1177 28 10.4889 26.9615 8.44468 25.2364C8.37333 25.2545 8.30262 25.272 8.23256 25.2889C6.94091 25.5999 5.77946 25.7115 4.80383 25.5567C3.81014 25.3992 2.88109 24.9359 2.34971 24.0003C1.76097 22.9639 2.00433 21.808 2.42897 20.888C2.83238 20.014 3.50798 19.0956 4.36851 18.1677C4.24206 17.4637 4.17614 16.7392 4.17614 16C4.17614 9.37259 9.4619 4 15.9822 4ZM4.62899 22.6787C4.44098 21.734 5.94104 20.3441 6.4736 19.7892C6.94835 19.2947 7.13492 18.5977 6.99845 17.9419C6.86838 17.3165 6.79971 16.6672 6.79971 16C6.79971 10.8453 10.9109 6.66667 15.9822 6.66667C18.345 6.66667 20.4968 7.57203 22.1247 9.06223C22.6157 9.51164 23.3036 9.69612 23.9629 9.52532C24.7022 9.33379 26.6377 8.70764 27.349 9.3458C27.7891 10.2834 26.0751 11.7879 25.5396 12.3303C25.5353 12.3347 25.531 12.3392 25.5267 12.3436C23.9036 13.984 21.2215 16.0049 17.294 18.3097C13.3686 20.6132 10.307 21.9635 8.09813 22.5724C8.0917 22.5741 8.08529 22.5759 8.07887 22.5776C7.38743 22.7673 5.1815 23.4959 4.62899 22.6787ZM11.565 24.1848C13.5835 23.3664 15.9336 22.1872 18.6058 20.6191C21.2771 19.0515 23.4563 17.5728 25.1625 16.2056C25.0549 21.2653 20.9859 25.3333 15.9822 25.3333C14.3802 25.3333 12.8754 24.9172 11.565 24.1848Z" fill="black"/>
</svg>
