<svg width="32" height="32" viewBox="0 0 32 32" fill="none" xmlns="http://www.w3.org/2000/svg">
<path d="M14.2043 10.3222C13.7363 10.3466 13.2891 10.4698 12.8842 10.7025C11.8045 11.323 11.2464 12.5988 11.2464 14.0726V17.9274C11.2464 19.396 11.8048 20.6699 12.8828 21.2919C13.9608 21.9139 15.3432 21.7608 16.6176 21.027C16.6181 21.0267 16.6186 21.0264 16.6191 21.0261L19.9515 19.0995C21.2263 18.3656 22.0526 17.2453 22.0526 16C22.0526 14.7548 21.2263 13.6345 19.9515 12.9006L16.6191 10.974C16.6186 10.9737 16.6181 10.9734 16.6176 10.9731C15.8219 10.5149 14.9842 10.2814 14.2043 10.3222ZM14.3395 12.2636C14.6665 12.2487 15.0955 12.3509 15.6428 12.6661L15.6414 12.6651L18.9753 14.5926C18.9758 14.5929 18.9763 14.5932 18.9768 14.5935C19.8509 15.0967 20.0991 15.6109 20.0991 16C20.0991 16.3892 19.8509 16.9034 18.9768 17.4066C18.9763 17.4069 18.9758 17.4072 18.9753 17.4075L15.6414 19.3349L15.6428 19.334C14.7684 19.8375 14.1974 19.7951 13.8591 19.5999C13.5207 19.4047 13.1999 18.9333 13.1999 17.9274V14.0726C13.1999 13.059 13.521 12.5896 13.8576 12.3962C13.9838 12.3236 14.1433 12.2725 14.3395 12.2636Z" fill="black"/>
<path d="M16 2C8.27953 2 2 8.27961 2 16C2 23.7204 8.27953 30 16 30C23.7204 30 30 23.7204 30 16C30 8.2796 23.7204 2 16 2ZM16 3.95349C22.6646 3.95349 28.0465 9.33536 28.0465 16C28.0465 22.6646 22.6646 28.0465 16 28.0465C9.33528 28.0465 3.95349 22.6646 3.95349 16C3.95349 9.33535 9.33528 3.95349 16 3.95349Z" fill="black"/>
</svg>
