<svg width="32" height="32" viewBox="0 0 32 32" fill="none" xmlns="http://www.w3.org/2000/svg">
<path fill-rule="evenodd" clip-rule="evenodd" d="M16 3.95349C9.3469 3.95349 3.95349 9.3469 3.95349 16C3.95349 22.6531 9.3469 28.0465 16 28.0465C22.6531 28.0465 28.0465 22.6531 28.0465 16C28.0465 9.3469 22.6531 3.95349 16 3.95349ZM2 16C2 8.26802 8.26802 2 16 2C23.732 2 30 8.26802 30 16C30 23.732 23.732 30 16 30C8.26802 30 2 23.732 2 16ZM16 10.4651C15.1909 10.4651 14.5349 11.1211 14.5349 11.9302C14.5349 12.4697 14.0976 12.907 13.5581 12.907C13.0187 12.907 12.5814 12.4697 12.5814 11.9302C12.5814 10.0422 14.112 8.51163 16 8.51163C17.888 8.51163 19.4186 10.0422 19.4186 11.9302C19.4186 13.1848 18.7422 14.2804 17.739 14.874C17.4827 15.0256 17.2712 15.1911 17.1334 15.3535C16.9995 15.5111 16.9767 15.614 16.9767 15.6744V17.3023C16.9767 17.8417 16.5394 18.2791 16 18.2791C15.4606 18.2791 15.0233 17.8417 15.0233 17.3023V15.6744C15.0233 15.0156 15.3117 14.481 15.6439 14.0895C15.9721 13.7027 16.3815 13.4073 16.7443 13.1927C17.1778 12.9361 17.4651 12.4662 17.4651 11.9302C17.4651 11.1211 16.8091 10.4651 16 10.4651ZM16 22.5116C16.7193 22.5116 17.3023 21.9286 17.3023 21.2093C17.3023 20.49 16.7193 19.907 16 19.907C15.2807 19.907 14.6977 20.49 14.6977 21.2093C14.6977 21.9286 15.2807 22.5116 16 22.5116Z" fill="black"/>
</svg>
