<svg width="32" height="32" viewBox="0 0 32 32" fill="none" xmlns="http://www.w3.org/2000/svg">
<path d="M16 2C13.2311 2 10.5243 2.82109 8.22202 4.35942C5.91973 5.89776 4.12532 8.08426 3.06569 10.6424C2.00607 13.2006 1.72882 16.0155 2.26901 18.7313C2.80921 21.447 4.14258 23.9416 6.10051 25.8995C8.05844 27.8574 10.553 29.1908 13.2687 29.731C15.9845 30.2712 18.7994 29.9939 21.3576 28.9343C23.9157 27.8747 26.1022 26.0803 27.6406 23.778C29.1789 21.4757 30 18.7689 30 16C29.9941 12.2888 28.5172 8.73127 25.893 6.10705C23.2687 3.48282 19.7112 2.00592 16 2ZM16 24.4C15.7231 24.4 15.4524 24.3179 15.2222 24.1641C14.992 24.0102 14.8125 23.7916 14.7066 23.5357C14.6006 23.2799 14.5729 22.9984 14.6269 22.7269C14.6809 22.4553 14.8143 22.2058 15.0101 22.01C15.2058 21.8143 15.4553 21.6809 15.7269 21.6269C15.9985 21.5729 16.2799 21.6006 16.5358 21.7066C16.7916 21.8125 17.0102 21.992 17.1641 22.2222C17.3179 22.4524 17.4 22.7231 17.4 23C17.4 23.3713 17.2525 23.7274 16.99 23.9899C16.7274 24.2525 16.3713 24.4 16 24.4ZM18.856 17.848C17.568 18.702 17.358 19.164 17.33 19.248C17.2361 19.5261 17.0571 19.7676 16.8185 19.9384C16.5798 20.1092 16.2935 20.2008 16 20.2C15.8482 20.1973 15.6974 20.1737 15.552 20.13C15.2021 20.0073 14.9139 19.7527 14.7492 19.4205C14.5844 19.0883 14.556 18.7048 14.67 18.352C15.2338 17.1562 16.1529 16.1637 17.302 15.51C17.8215 15.2639 18.2456 14.8536 18.5087 14.3425C18.7719 13.8314 18.8595 13.2478 18.758 12.682C18.6493 12.1284 18.3782 11.6197 17.9792 11.2208C17.5803 10.8218 17.0716 10.5507 16.518 10.442C16.113 10.3658 15.6961 10.3799 15.2972 10.4833C14.8983 10.5867 14.5271 10.777 14.2102 11.0404C13.8932 11.3039 13.6384 11.634 13.4637 12.0073C13.2891 12.3806 13.1991 12.7879 13.2 13.2C13.2 13.5713 13.0525 13.9274 12.79 14.1899C12.5274 14.4525 12.1713 14.6 11.8 14.6C11.4287 14.6 11.0726 14.4525 10.8101 14.1899C10.5475 13.9274 10.4 13.5713 10.4 13.2C10.3993 12.3828 10.5783 11.5755 10.9243 10.8352C11.2702 10.0949 11.7747 9.4397 12.402 8.916C13.1515 8.28252 14.0545 7.85741 15.0203 7.68334C15.9861 7.50928 16.9807 7.5924 17.9042 7.92435C18.8277 8.25631 19.6476 8.82541 20.2816 9.5745C20.9156 10.3236 21.3413 11.2263 21.516 12.192C21.7036 13.2936 21.5493 14.4263 21.0737 15.4375C20.5981 16.4487 19.8242 17.29 18.856 17.848Z" fill="black"/>
</svg>
