<svg width="32" height="32" viewBox="0 0 32 32" fill="none" xmlns="http://www.w3.org/2000/svg">
<path d="M29.9087 3.63473L27.3538 9.57256C26.5959 11.3575 24.8569 12.5004 22.932 12.5004C21.975 12.5004 21.1242 13.0254 20.6921 13.8774L17.8573 19.5593C17.1923 20.9013 15.9095 21.8693 14.4155 22.1372L5.25799 23.8052C4.651 26.0572 4.41807 27.9121 4.33602 28.9271C4.27806 29.5341 3.77603 30 3.16904 30H3.07608C2.43409 29.942 1.95615 29.382 2.0032 28.74C2.29521 25.3922 3.99804 13.9233 14.1705 6.87762C19.5022 3.19179 25.0549 2.18886 28.7767 2.0018C29.1737 1.97885 29.5587 2.17681 29.7916 2.50383C30.0246 2.83085 30.0596 3.26179 29.9087 3.63586V3.63473Z" fill="black"/>
</svg>
