<svg width="32" height="32" viewBox="0 0 32 32" fill="none" xmlns="http://www.w3.org/2000/svg">
<path d="M3.16808 30C3.13525 30 3.10241 29.9989 3.06854 29.9956C2.42753 29.942 1.9496 29.3776 2.00426 28.7356C2.28539 25.3896 3.99384 13.921 14.1681 6.87359C19.4969 3.18523 25.0523 2.18779 28.7756 2.00186C29.1748 1.9789 29.5631 2.17032 29.7917 2.50062C30.0214 2.83206 30.064 3.25756 29.9054 3.62726L27.3504 9.57646C26.5956 11.3517 24.8598 12.5001 22.9316 12.5001C21.9766 12.5001 21.1202 13.0263 20.6959 13.8739L17.8608 19.5529C17.1892 20.8961 15.9018 21.8631 14.4175 22.1409L5.25479 23.8101C4.64558 26.0589 4.41481 27.9075 4.32836 28.9313C4.27696 29.5394 3.76855 30 3.16808 30ZM26.9939 4.49446C23.7302 4.88934 19.5376 5.99629 15.4982 8.79326C10.352 12.357 7.56505 17.1719 6.05552 21.2935L13.9943 19.8474C14.761 19.7041 15.4272 19.2042 15.7739 18.5119L18.609 12.8329C19.4304 11.1889 21.0864 10.1684 22.9317 10.1684C23.9238 10.1684 24.8163 9.57661 25.2057 8.66108L26.994 4.49588L26.9939 4.49446Z" fill="black"/>
</svg>
