<svg width="32" height="32" viewBox="0 0 32 32" fill="none" xmlns="http://www.w3.org/2000/svg">
<path d="M16.8201 29.1799C17.6402 30 18.9602 30 21.6 30H24.4C27.0398 30 28.3598 30 29.1799 29.1799C30 28.3598 30 27.0398 30 24.4V7.6C30 4.96015 30 3.6402 29.1799 2.82011C28.3598 2 27.0398 2 24.4 2H21.6C18.9602 2 17.6402 2 16.8201 2.82011C16.1168 3.5234 16.0167 4.59428 16.0024 6.55H18.8C19.3799 6.55 19.85 7.02011 19.85 7.6C19.85 8.17989 19.3799 8.65 18.8 8.65H16V10.75H20.2C20.7799 10.75 21.25 11.2201 21.25 11.8C21.25 12.3799 20.7799 12.85 20.2 12.85H16V14.95H18.8C19.3799 14.95 19.85 15.4201 19.85 16C19.85 16.5799 19.3799 17.05 18.8 17.05H16V19.15H20.2C20.7799 19.15 21.25 19.6201 21.25 20.2C21.25 20.7799 20.7799 21.25 20.2 21.25H16V23.35H18.8C19.3799 23.35 19.85 23.8201 19.85 24.4C19.85 24.9799 19.3799 25.45 18.8 25.45H16.0024C16.0167 27.4057 16.1168 28.4767 16.8201 29.1799Z" fill="black"/>
<path d="M10.4 20.4709V9.29982C9.32341 9.74362 7.90331 10.1243 6.20025 10.1243C4.49693 10.1243 3.07666 9.7435 2 9.29961V20.4709C2 21.3425 2 21.7785 2.05288 22.2062C2.11525 22.7108 2.2324 23.2071 2.40226 23.6863C2.54627 24.0926 2.7412 24.4825 3.13106 25.2621L5.18695 29.3739C5.3788 29.7577 5.771 30 6.2 30C6.629 30 7.0212 29.7577 7.21305 29.3739L9.26894 25.2621C9.6588 24.4825 9.85373 24.0926 9.99774 23.6863C10.1676 23.2071 10.2848 22.7108 10.3471 22.2062C10.4 21.7785 10.4 21.3425 10.4 20.4709Z" fill="black"/>
<path d="M10.4 6.2C10.4 3.88041 8.51959 2 6.2 2C3.88041 2 2 3.88041 2 6.2V7.53983C2.03688 7.55835 2.07448 7.57693 2.1128 7.59551C3.06609 8.0577 4.45718 8.52221 6.20025 8.52221C7.94332 8.52221 9.33442 8.0577 10.2877 7.59551C10.3259 7.57701 10.3633 7.55852 10.4 7.54008V6.2Z" fill="black"/>
</svg>
