<svg width="32" height="32" viewBox="0 0 32 32" fill="none" xmlns="http://www.w3.org/2000/svg">
<path fill-rule="evenodd" clip-rule="evenodd" d="M21.1416 2H23.8817C25.0518 1.99996 26.0275 1.99994 26.8021 2.10407C27.6197 2.214 28.3579 2.4558 28.9511 3.04897C29.5442 3.64214 29.786 4.3803 29.8959 5.19789C30.0001 5.9725 30 6.94823 30 8.11834V23.8817C30 25.0518 30.0001 26.0275 29.8959 26.8021C29.786 27.6197 29.5442 28.3579 28.9511 28.951C28.3579 29.5442 27.6197 29.786 26.8021 29.8959C26.0275 30.0001 25.0518 30 23.8817 30H21.1416C19.9714 30 18.9957 30.0001 18.2211 29.8959C17.4035 29.786 16.6654 29.5442 16.0723 28.951C15.4791 28.3579 15.2372 27.6197 15.1273 26.8021C15.0231 26.0275 15.0233 25.0518 15.0233 23.8817V8.11834C15.0233 6.94823 15.0231 5.9725 15.1273 5.19789C15.2372 4.3803 15.4791 3.64214 16.0723 3.04897C16.6654 2.4558 17.4035 2.214 18.2211 2.10407C18.9957 1.99994 19.9714 1.99996 21.1416 2ZM16.9767 13.0698H19.907C20.4464 13.0698 20.8837 12.6325 20.8837 12.093C20.8837 11.5536 20.4464 11.1163 19.907 11.1163H16.9767V9.16279H18.6047C19.1441 9.16279 19.5814 8.7255 19.5814 8.18605C19.5814 7.64661 19.1441 7.2093 18.6047 7.2093H16.9791C16.9846 6.46772 17.0029 5.90815 17.0633 5.4582C17.1442 4.85721 17.2838 4.60002 17.4535 4.4303C17.6232 4.26058 17.8804 4.12094 18.4815 4.04015C19.1105 3.95557 19.9539 3.95349 21.2093 3.95349H23.814C25.0694 3.95349 25.9128 3.95557 26.5418 4.04015C27.1428 4.12094 27.4 4.26058 27.5697 4.4303C27.7394 4.60002 27.879 4.85721 27.9599 5.45818C28.0444 6.08726 28.0465 6.93059 28.0465 8.18605V23.814C28.0465 25.0694 28.0444 25.9128 27.9599 26.5418C27.879 27.1428 27.7394 27.4 27.5697 27.5697C27.4 27.7394 27.1428 27.879 26.5418 27.9599C25.9128 28.0444 25.0694 28.0465 23.814 28.0465H21.2093C19.9539 28.0465 19.1105 28.0444 18.4815 27.9599C17.8804 27.879 17.6232 27.7394 17.4535 27.5697C17.2838 27.4 17.1442 27.1428 17.0633 26.5418C17.0029 26.0919 16.9846 25.5322 16.9791 24.7907H18.6047C19.1441 24.7907 19.5814 24.3534 19.5814 23.814C19.5814 23.2745 19.1441 22.8372 18.6047 22.8372H16.9767V20.8837H19.907C20.4464 20.8837 20.8837 20.4464 20.8837 19.907C20.8837 19.3676 20.4464 18.9302 19.907 18.9302H16.9767V16.9767H18.6047C19.1441 16.9767 19.5814 16.5394 19.5814 16C19.5814 15.4606 19.1441 15.0233 18.6047 15.0233H16.9767V13.0698ZM2 6.68837C2.00002 4.05245 4.23434 2 6.88374 2C9.53312 2 11.7674 4.05245 11.7674 6.68837L11.7675 20.6684C11.7675 21.3759 11.7675 21.8204 11.7101 22.2618C11.6425 22.7817 11.5154 23.2925 11.3316 23.7852C11.1757 24.2031 10.9671 24.5993 10.6337 25.2326L8.69044 28.9249C8.33448 29.6012 7.62661 30 6.88372 30C6.14084 30 5.43299 29.6012 5.07702 28.9249L3.13372 25.2326C2.80033 24.5993 2.59181 24.2032 2.43584 23.7852C2.25202 23.2925 2.125 22.7817 2.05736 22.2618C1.99992 21.8204 1.99995 21.3759 2 20.6684V6.68837ZM6.88374 3.95349C5.21759 3.95349 3.9535 5.22455 3.9535 6.68837V7.41112C4.07901 7.48567 4.23629 7.57095 4.42318 7.65703C4.9931 7.91954 5.83044 8.18605 6.88374 8.18605C7.93702 8.18605 8.77436 7.91954 9.34429 7.65703C9.53117 7.57095 9.68845 7.48567 9.81396 7.41112V6.68837C9.81396 5.22455 8.54987 3.95349 6.88374 3.95349ZM9.81396 9.58088C9.06801 9.8798 8.07635 10.1395 6.88374 10.1395C5.69111 10.1395 4.69945 9.8798 3.9535 9.58088V20.6022C3.9535 21.3967 3.95537 21.7089 3.99451 22.0097C4.04291 22.3817 4.13386 22.748 4.26606 23.1022C4.37326 23.3895 4.51938 23.6711 4.89325 24.3814L6.1554 26.7795H7.61206L8.87421 24.3814C9.24808 23.6711 9.3942 23.3895 9.5014 23.1022C9.6336 22.748 9.72455 22.3817 9.77295 22.0097C9.81209 21.7089 9.81396 21.3967 9.81396 20.6022V9.58088ZM3.60142 7.17471L3.60317 7.17616C3.60098 7.17441 3.60142 7.17471 3.60142 7.17471ZM10.1635 7.17677L10.166 7.17477L10.1635 7.17677Z" fill="black"/>
</svg>
