<svg width="32" height="32" viewBox="0 0 32 32" fill="none" xmlns="http://www.w3.org/2000/svg">
<path d="M16 11.1168C13.1635 11.1168 10.8419 13.3147 10.8419 16C10.8419 18.6854 13.1635 20.8833 16 20.8833C18.8365 20.8833 21.1581 18.6854 21.1581 16C21.1581 13.3147 18.8365 11.1168 16 11.1168ZM16 13.0701C17.7215 13.0701 19.0949 14.3703 19.0949 16C19.0949 17.6298 17.7215 18.93 16 18.93C14.2786 18.93 12.9052 17.6298 12.9052 16C12.9052 14.3703 14.2786 13.0701 16 13.0701Z" fill="black"/>
<path d="M15.1293 2.00042C14.3403 2.00445 13.7698 2.04164 13.177 2.27403H13.1769C12.2505 2.63735 11.5136 3.33493 11.1298 4.21199V4.21214C10.9306 4.6675 10.8765 5.13398 10.8552 5.6736C10.8388 6.08905 10.6237 6.44011 10.2834 6.62614V6.62606C9.9432 6.81202 9.51456 6.81289 9.12631 6.61866L9.12623 6.61858C8.62203 6.36627 8.16818 6.17734 7.65199 6.11301H7.65182C6.65766 5.98914 5.65105 6.24446 4.8555 6.82238C4.17681 7.31539 3.83557 7.94977 3.19468 9.00068C2.5538 10.0516 2.14417 10.6485 2.0325 11.4515C1.90163 12.3927 2.17133 13.3457 2.7818 14.0989C3.09877 14.49 3.49844 14.7676 3.98129 15.0547C4.35321 15.2761 4.56683 15.6281 4.56681 16C4.56679 16.372 4.35324 16.7239 3.98129 16.9451L3.98112 16.9452L3.98104 16.9452C3.49824 17.2326 3.09868 17.5101 2.78171 17.9011C2.17125 18.6543 1.90144 19.6072 2.03234 20.5485C2.14399 21.3514 2.55362 21.9485 3.19452 22.9994C3.83542 24.0502 4.17663 24.6846 4.8555 25.1776C5.65107 25.7555 6.65761 26.0108 7.65174 25.887H7.65182L7.6519 25.8869C8.16815 25.8225 8.62175 25.6337 9.1259 25.3815L9.12598 25.3814H9.12607C9.51432 25.1871 9.94301 25.188 10.2833 25.3739C10.6238 25.56 10.8388 25.9109 10.8552 26.3265V26.3266C10.8765 26.8661 10.9306 27.3325 11.1298 27.7879V27.788L11.1299 27.7882C11.5137 28.6651 12.2504 29.3627 13.1768 29.726L13.177 29.7261L13.1771 29.7262C13.9674 30.0359 14.7182 29.9986 16 29.9986C17.2818 29.9986 18.0327 30.0359 18.8229 29.7262L18.823 29.7261L18.8232 29.726C19.7495 29.3627 20.4864 28.6652 20.87 27.7882L20.8701 27.7879C21.0694 27.3326 21.1235 26.8661 21.1449 26.3265V26.3264C21.1612 25.9109 21.3763 25.5599 21.7166 25.3738C22.0568 25.1879 22.4854 25.187 22.874 25.3814V25.3815C23.3782 25.6337 23.832 25.8225 24.348 25.8868L24.3479 25.8867C25.3422 26.0108 26.3489 25.7555 27.1444 25.1775C27.823 24.6846 28.1644 24.0502 28.8053 22.9992L28.8053 22.9991C29.4463 21.9483 29.8559 21.3515 29.9675 20.5485C30.0984 19.6073 29.8287 18.6543 29.2181 17.9011V17.901C28.9012 17.5099 28.5015 17.2323 28.0187 16.9451C27.6469 16.7239 27.4332 16.3718 27.4332 15.9999C27.4332 15.6279 27.6467 15.2763 28.0187 15.055L28.0187 15.0549C28.5016 14.7676 28.9014 14.4902 29.2185 14.0988L29.2183 14.0989C29.8288 13.3457 30.0985 12.3928 29.9677 11.4516C29.8561 10.6486 29.4464 10.0516 28.8054 9.00075L28.8053 9.00067C28.1645 7.9498 27.8232 7.31552 27.1446 6.82252C26.349 6.24452 25.3423 5.98916 24.3481 6.11308C23.8319 6.17741 23.3783 6.3663 22.874 6.61857L22.874 6.61865H22.8739C22.4856 6.81293 22.0569 6.81211 21.7167 6.62613L21.7166 6.62605C21.3762 6.44001 21.1612 6.08911 21.1449 5.67359V5.67344C21.1235 5.13395 21.0693 4.66748 20.8701 4.21221C20.4865 3.33493 19.7495 2.63734 18.8232 2.27402H18.823C18.0327 1.96418 17.2818 2.00141 16 2.00141C15.6796 2.00141 15.3923 1.99907 15.1293 2.00042ZM16 3.9547C17.2818 3.9547 17.8126 3.99205 18.0336 4.07869C18.4551 4.24405 18.7893 4.56047 18.9638 4.95943L18.9639 4.95958L18.964 4.95966C19.0197 5.08692 19.0653 5.29787 19.0831 5.74655C19.124 6.78352 19.6958 7.77701 20.6852 8.31772H20.685C21.6743 8.85851 22.8689 8.83052 23.8379 8.34565L23.838 8.34557C24.2575 8.13574 24.4734 8.06762 24.6174 8.04968H24.6175C25.07 7.99327 25.5265 8.10912 25.8885 8.37212C26.0781 8.50987 26.3777 8.92644 27.0186 9.97733L27.0186 9.97741C27.6596 11.0283 27.8909 11.4823 27.922 11.7065C27.9816 12.1349 27.8593 12.5672 27.5815 12.9099H27.5814L27.5813 12.9099C27.4929 13.0191 27.3227 13.162 26.9209 13.4011C25.993 13.9531 25.37 14.9184 25.37 15.9999C25.37 17.0814 25.9929 18.0469 26.9209 18.599V18.5991C27.3225 18.8379 27.4928 18.981 27.5813 19.0901H27.5813C27.8592 19.4329 27.9815 19.8651 27.9219 20.2935C27.8908 20.5176 27.6594 20.9716 27.0185 22.0225V22.0226H27.0184C26.3776 23.0736 26.078 23.4901 25.8884 23.6279C25.5264 23.8908 25.0699 24.0067 24.6175 23.9503H24.6174L24.6173 23.9502C24.4731 23.9322 24.2572 23.8642 23.8379 23.6544C22.8689 23.1696 21.6742 23.1415 20.6848 23.6824C19.6957 24.2231 19.124 25.2165 19.0831 26.2535C19.0653 26.7022 19.0196 26.9132 18.964 27.0404L18.9639 27.0406L18.9638 27.0407C18.7893 27.4396 18.455 27.7562 18.0334 27.9215C17.8122 28.0081 17.2814 28.0453 16 28.0453C14.7182 28.0453 14.1873 28.0081 13.9663 27.9215C13.5448 27.7561 13.2106 27.4396 13.036 27.0405C12.9803 26.9132 12.9347 26.7021 12.917 26.2536C12.8761 25.2166 12.3042 24.2231 11.3149 23.6824V23.6823H11.3149C10.3256 23.1416 9.13098 23.1696 8.16191 23.6545C7.74274 23.8642 7.52676 23.9323 7.38264 23.9503C6.93006 24.0067 6.47346 23.8909 6.11141 23.6279H6.11133L6.11125 23.6278C5.92191 23.4903 5.62224 23.0736 4.98131 22.0227C4.34045 20.9718 4.1091 20.5178 4.07792 20.2935C4.01834 19.8652 4.14066 19.433 4.41851 19.0902C4.50701 18.981 4.67739 18.838 5.07883 18.5991L5.07907 18.5989C6.00707 18.0468 6.62998 17.0815 6.63004 16.0001C6.63008 14.9186 6.00709 13.9531 5.07899 13.4009V13.4008H5.07891C4.6773 13.1619 4.50716 13.019 4.41868 12.9099C4.14083 12.567 4.01852 12.1349 4.07808 11.7065C4.10927 11.4822 4.34057 11.0282 4.98147 9.97733V9.97726C5.62235 8.92635 5.92198 8.50971 6.11149 8.37205C6.47362 8.10899 6.93012 7.9932 7.38264 8.0496L7.38272 8.04968C7.52691 8.06764 7.7427 8.13563 8.16207 8.3455V8.34557H8.16215C9.13116 8.83042 10.3257 8.85846 11.315 8.31772V8.31765H11.3151C12.3043 7.7769 12.8761 6.7835 12.917 5.74655C12.9347 5.29781 12.9804 5.08679 13.0361 4.95951C13.2107 4.56037 13.5449 4.24404 13.9664 4.0787C14.1874 3.99205 14.7182 3.9547 16 3.9547Z" fill="black"/>
</svg>
