<svg width="32" height="32" viewBox="0 0 32 32" fill="none" xmlns="http://www.w3.org/2000/svg">
<path fill-rule="evenodd" clip-rule="evenodd" d="M18.6214 2.21314C18.0757 2 17.3838 2 16 2C14.6162 2 13.9243 2 13.3786 2.21314C12.6509 2.49732 12.0728 3.04241 11.7713 3.72848C11.6337 4.04168 11.5799 4.4059 11.5588 4.93719C11.5279 5.71795 11.1032 6.44065 10.3855 6.8313C9.66783 7.22194 8.79167 7.20736 8.05903 6.84226C7.56047 6.59382 7.19899 6.45567 6.8425 6.41143C6.0616 6.31449 5.27184 6.51401 4.64697 6.96608C4.17831 7.30513 3.83236 7.87006 3.14048 8.9999C2.4486 10.1298 2.10267 10.6947 2.02557 11.2469C1.92275 11.9831 2.13437 12.7277 2.61386 13.3169C2.83272 13.5858 3.14029 13.8118 3.61766 14.0946C4.31944 14.5104 4.77099 15.2187 4.77095 16C4.7709 16.7813 4.31937 17.4895 3.61766 17.9051C3.14021 18.1881 2.83258 18.4142 2.61371 18.6831C2.13422 19.2722 1.92261 20.0167 2.02542 20.753C2.10252 21.3052 2.44847 21.8702 3.14033 23C3.83221 24.1298 4.17816 24.6948 4.64682 25.0338C5.27169 25.4858 6.06145 25.6853 6.84236 25.5885C7.19883 25.5442 7.56028 25.406 8.05879 25.1577C8.79149 24.7926 9.66772 24.778 10.3854 25.1686C11.1031 25.5593 11.5278 26.282 11.5588 27.0629C11.5799 27.5941 11.6337 27.9584 11.7713 28.2716C12.0728 28.9576 12.6509 29.5027 13.3786 29.7869C13.9243 30 14.6162 30 16 30C17.3838 30 18.0757 30 18.6214 29.7869C19.3491 29.5027 19.9272 28.9576 20.2286 28.2716C20.3662 27.9584 20.4201 27.5941 20.4412 27.0628C20.4722 26.282 20.8967 25.5593 21.6144 25.1686C22.3321 24.7779 23.2084 24.7926 23.9411 25.1577C24.4396 25.406 24.801 25.5441 25.1574 25.5883C25.9384 25.6853 26.7281 25.4858 27.3529 25.0338C27.8217 24.6947 28.1676 24.1298 28.8595 22.9999C29.5514 21.8701 29.8973 21.3052 29.9745 20.753C30.0772 20.0167 29.8656 19.2721 29.3862 18.683C29.1672 18.414 28.8596 18.1879 28.3822 17.9051C27.6805 17.4895 27.229 16.7812 27.229 15.9999C27.229 15.2185 27.6805 14.5105 28.3822 14.0949C28.8598 13.8119 29.1673 13.586 29.3863 13.3169C29.8657 12.7278 30.0773 11.9832 29.9746 11.247C29.8974 10.6948 29.5515 10.1298 28.8596 9C28.1677 7.87016 27.8219 7.30523 27.3531 6.96618C26.7282 6.5141 25.9385 6.31459 25.1576 6.41153C24.8011 6.45577 24.4396 6.5939 23.9412 6.84232C23.2085 7.20743 22.3323 7.22203 21.6146 6.83134C20.8969 6.44067 20.4722 5.71792 20.4411 4.93712C20.42 4.40587 20.3662 4.04166 20.2286 3.72848C19.9272 3.04241 19.3491 2.49732 18.6214 2.21314ZM16 20.2C18.4603 20.2 20.4546 18.3197 20.4546 16C20.4546 13.6803 18.4603 11.8 16 11.8C13.5397 11.8 11.5453 13.6803 11.5453 16C11.5453 18.3197 13.5397 20.2 16 20.2Z" fill="black"/>
</svg>
