<svg width="32" height="32" viewBox="0 0 32 32" fill="none" xmlns="http://www.w3.org/2000/svg">
<path d="M12.0931 2C8.707 2 6.12333 2.68149 4.40241 4.40241C2.68149 6.12333 2 8.707 2 12.0931V19.907C2 23.2931 2.68149 25.8767 4.40241 27.5977C6.12333 29.3186 8.707 30 12.0931 30H19.907C23.2931 30 25.8767 29.3186 27.5977 27.5977C29.3186 25.8768 30 23.2931 30 19.907V12.0931C30 8.707 29.3186 6.12333 27.5977 4.40241C25.8767 2.68149 23.2931 2 19.907 2H12.0931ZM12.0931 3.95349H19.907C23.0326 3.95349 25.007 4.57443 26.2163 5.78374C27.4256 6.99306 28.0465 8.96747 28.0465 12.0931V19.907C28.0465 23.0326 27.4256 25.007 26.2163 26.2163C25.007 27.4256 23.0326 28.0465 19.907 28.0465H12.0931C8.96746 28.0465 6.99306 27.4256 5.78374 26.2163C4.57443 25.007 3.95349 23.0326 3.95349 19.907V12.0931C3.95349 8.96747 4.57443 6.99306 5.78374 5.78374C6.99306 4.57443 8.96747 3.95349 12.0931 3.95349ZM12.3351 9.03966C12.1695 9.08404 12.0185 9.17123 11.8973 9.29247L9.65768 11.532L9.37168 11.246C9.28098 11.1553 9.1733 11.0833 9.0548 11.0342C8.93629 10.9851 8.80928 10.9599 8.68101 10.9599C8.55274 10.9599 8.42573 10.9851 8.30723 11.0342C8.18872 11.0833 8.08105 11.1553 7.99035 11.246C7.89964 11.3367 7.82769 11.4443 7.77859 11.5628C7.7295 11.6813 7.70423 11.8083 7.70422 11.9366C7.70422 12.0649 7.72947 12.1919 7.77855 12.3104C7.82763 12.4289 7.89957 12.5366 7.99027 12.6273L8.96701 13.604C9.1502 13.7872 9.39864 13.8901 9.65768 13.8901C9.91672 13.8901 10.1652 13.7872 10.3483 13.604L13.2786 10.6738C13.3693 10.5831 13.4412 10.4754 13.4903 10.3569C13.5394 10.2384 13.5647 10.1114 13.5647 9.98314C13.5647 9.85487 13.5394 9.72785 13.4903 9.60935C13.4412 9.49085 13.3693 9.38317 13.2786 9.29247C13.1573 9.17123 13.0063 9.08404 12.8407 9.03966C12.6751 8.99529 12.5007 8.99528 12.3351 9.03966ZM16.4818 10.9599C16.2228 10.9599 15.9744 11.0628 15.7912 11.246C15.608 11.4291 15.5051 11.6776 15.5051 11.9366C15.5051 12.1957 15.608 12.4441 15.7912 12.6273C15.9744 12.8105 16.2228 12.9134 16.4818 12.9134H23.3191C23.5781 12.9134 23.8266 12.8105 24.0097 12.6273C24.1929 12.4441 24.2958 12.1957 24.2958 11.9366C24.2958 11.6776 24.1929 11.4291 24.0097 11.246C23.8266 11.0628 23.5781 10.9599 23.3191 10.9599H16.4818ZM12.3351 18.156C12.1695 18.2004 12.0185 18.2875 11.8973 18.4088L9.65768 20.6484L9.37168 20.3623C9.28098 20.2716 9.1733 20.1996 9.0548 20.1505C8.93629 20.1015 8.80928 20.0762 8.68101 20.0762C8.55274 20.0762 8.42573 20.1015 8.30723 20.1505C8.18872 20.1996 8.08105 20.2716 7.99035 20.3623C7.89964 20.453 7.82769 20.5606 7.77859 20.6791C7.7295 20.7976 7.70423 20.9247 7.70422 21.0529C7.70422 21.1812 7.72947 21.3082 7.77855 21.4267C7.82763 21.5452 7.89957 21.6529 7.99027 21.7436L8.96701 22.7203C9.1502 22.9035 9.39864 23.0064 9.65768 23.0064C9.91672 23.0064 10.1652 22.9035 10.3483 22.7203L13.2786 19.7901C13.3693 19.6994 13.4412 19.5917 13.4903 19.4732C13.5394 19.3547 13.5647 19.2277 13.5647 19.0994C13.5647 18.9712 13.5394 18.8442 13.4903 18.7257C13.4412 18.6072 13.3693 18.4995 13.2786 18.4088C13.1573 18.2875 13.0063 18.2004 12.8407 18.156C12.6751 18.1116 12.5007 18.1116 12.3351 18.156ZM16.4818 20.0762C16.2228 20.0762 15.9744 20.1791 15.7912 20.3623C15.608 20.5455 15.5051 20.7939 15.5051 21.0529C15.5051 21.312 15.608 21.5604 15.7912 21.7436C15.9744 21.9268 16.2228 22.0297 16.4818 22.0297H23.3191C23.5781 22.0297 23.8266 21.9268 24.0097 21.7436C24.1929 21.5604 24.2958 21.312 24.2958 21.0529C24.2958 20.7939 24.1929 20.5455 24.0097 20.3623C23.8266 20.1791 23.5781 20.0762 23.3191 20.0762H16.4818Z" fill="black"/>
</svg>
