<svg width="32" height="32" viewBox="0 0 32 32" fill="none" xmlns="http://www.w3.org/2000/svg">
<path d="M21.866 2H10.134C5.038 2 2 5.038 2 10.134V21.866C2 26.962 5.038 30 10.134 30H21.866C26.962 30 30 26.962 30 21.866V10.134C30 5.038 26.962 2 21.866 2ZM13.158 20.06L10.008 23.21C9.798 23.42 9.532 23.518 9.266 23.518C9 23.518 8.72 23.42 8.524 23.21L7.474 22.16C7.054 21.754 7.054 21.082 7.474 20.676C7.88 20.27 8.538 20.27 8.958 20.676L9.266 20.984L11.674 18.576C12.08 18.17 12.738 18.17 13.158 18.576C13.564 18.982 13.564 19.654 13.158 20.06ZM13.158 10.26L10.008 13.41C9.798 13.62 9.532 13.718 9.266 13.718C9 13.718 8.72 13.62 8.524 13.41L7.474 12.36C7.054 11.954 7.054 11.282 7.474 10.876C7.88 10.47 8.538 10.47 8.958 10.876L9.266 11.184L11.674 8.776C12.08 8.37 12.738 8.37 13.158 8.776C13.564 9.182 13.564 9.854 13.158 10.26ZM23.784 22.468H16.434C15.86 22.468 15.384 21.992 15.384 21.418C15.384 20.844 15.86 20.368 16.434 20.368H23.784C24.372 20.368 24.834 20.844 24.834 21.418C24.834 21.992 24.372 22.468 23.784 22.468ZM23.784 12.668H16.434C15.86 12.668 15.384 12.192 15.384 11.618C15.384 11.044 15.86 10.568 16.434 10.568H23.784C24.372 10.568 24.834 11.044 24.834 11.618C24.834 12.192 24.372 12.668 23.784 12.668Z" fill="black"/>
</svg>
