<svg width="32" height="32" viewBox="0 0 32 32" fill="none" xmlns="http://www.w3.org/2000/svg">
<path fill-rule="evenodd" clip-rule="evenodd" d="M13.9 2.78932C14.2859 3.17508 14.2859 3.80053 13.9 4.18629C13.5582 4.52792 13.5582 5.08183 13.9 5.42346C15.0136 6.53663 15.0136 8.34141 13.9 9.45458C13.5141 9.84034 12.8884 9.84034 12.5025 9.45458C12.1165 9.06882 12.1165 8.44337 12.5025 8.05761C12.8442 7.71598 12.8442 7.16207 12.5025 6.82043C11.3889 5.70727 11.3889 3.90248 12.5025 2.78932C12.8884 2.40356 13.5141 2.40356 13.9 2.78932ZM7.97069 4.76493C8.3566 5.15069 8.3566 5.77614 7.97069 6.1619L7.8177 6.31483C7.4972 6.63521 7.46114 7.1424 7.73309 7.50488C8.59516 8.65388 8.48086 10.2617 7.4649 11.2773L7.3119 11.4302C6.926 11.8159 6.30032 11.8159 5.91441 11.4302C5.52851 11.0444 5.52851 10.419 5.91441 10.0332L6.0674 9.88028C6.3879 9.55991 6.42396 9.05271 6.15201 8.69024C5.28995 7.54124 5.40425 5.93344 6.42021 4.91787L6.57319 4.76493C6.95911 4.37917 7.58478 4.37917 7.97069 4.76493ZM20.4875 4.76493C20.8735 5.15069 20.8735 5.77614 20.4875 6.1619L20.3346 6.31483C20.0141 6.63521 19.978 7.1424 20.25 7.50488C21.1121 8.65388 20.9977 10.2617 19.9819 11.2773L19.8288 11.4302C19.4428 11.8159 18.8173 11.8159 18.4314 11.4302C18.0454 11.0444 18.0454 10.419 18.4314 10.0332L18.5843 9.88028C18.9048 9.55991 18.9409 9.05271 18.6689 8.69024C17.8068 7.54124 17.9212 5.93344 18.9372 4.91787L19.0901 4.76493C19.4761 4.37917 20.1016 4.37917 20.4875 4.76493ZM6.14859 13.0366C6.17834 13.0366 6.20854 13.0366 6.23916 13.0366H20.1629C20.1935 13.0366 20.2236 13.0366 20.2534 13.0366C20.7313 13.0363 21.0978 13.0362 21.4147 13.0925C22.2866 13.2474 23.0421 13.7075 23.5755 14.3537H25.0591C27.7879 14.3537 30 16.5649 30 19.2927C30 22.0205 27.7879 24.2317 25.0591 24.2317H23.2775C22.7003 25.7197 21.6976 27.0235 20.3732 27.9675C18.9746 28.9642 17.2996 29.5 15.5817 29.5H10.8202C9.10245 29.5 7.42746 28.9642 6.02876 27.9675C4.13041 26.6144 2.89301 24.522 2.62234 22.2072L2.09442 17.6923C2.09086 17.6619 2.08735 17.6319 2.08388 17.6024C2.0282 17.1279 1.98548 16.764 2.00465 16.4428C2.10445 14.771 3.33778 13.3857 4.98727 13.0925C5.3042 13.0362 5.67076 13.0363 6.14859 13.0366ZM21.7234 22.5473C21.5457 22.7259 21.4358 22.9721 21.4358 23.2439C21.4358 23.3165 21.4436 23.3872 21.4585 23.4553C21.0235 24.613 20.2516 25.6278 19.226 26.3588C18.1622 27.1169 16.8882 27.5244 15.5817 27.5244H10.8202C9.51377 27.5244 8.23986 27.1169 7.17609 26.3588C5.73229 25.3298 4.79119 23.7385 4.58534 21.9779L4.05741 17.4629C3.98649 16.8564 3.97018 16.6832 3.9775 16.5604C4.02285 15.8006 4.58347 15.1709 5.33323 15.0376C5.45426 15.0161 5.6283 15.0122 6.23916 15.0122H20.1629C20.7737 15.0122 20.9478 15.0161 21.0687 15.0376C21.8186 15.1709 22.3792 15.8006 22.4245 16.5604C22.4319 16.6832 22.4155 16.8564 22.3447 17.4629L21.8167 21.9779C21.7942 22.1698 21.7631 22.3599 21.7234 22.5473ZM23.7738 22.2561H25.0591C26.6963 22.2561 28.0236 20.9293 28.0236 19.2927C28.0236 17.6561 26.6963 16.3293 25.0591 16.3293H24.3887C24.3923 16.3669 24.3951 16.4047 24.3973 16.4428C24.4165 16.764 24.3739 17.1279 24.3181 17.6024C24.3147 17.6319 24.3111 17.6619 24.3076 17.6923L23.7796 22.2072C23.7778 22.2236 23.7758 22.2398 23.7738 22.2561Z" fill="black"/>
</svg>
