<svg width="32" height="32" viewBox="0 0 32 32" fill="none" xmlns="http://www.w3.org/2000/svg">
<path fill-rule="evenodd" clip-rule="evenodd" d="M2.00323 17.0334C1.98889 17.2741 2.02298 17.5661 2.09119 18.1502L2.63842 22.8365C2.88539 24.9516 4.01447 26.8634 5.74666 28.0997C7.02293 29.0104 8.55131 29.5 10.1187 29.5H15.0544C16.6219 29.5 18.1502 29.0104 19.4265 28.0997C20.5238 27.3165 21.3791 26.2623 21.9214 25.057H24.8784C27.707 25.057 30 22.7618 30 19.9304C30 17.099 27.707 14.8038 24.8784 14.8038H21.7661C21.5084 14.6609 21.2242 14.5581 20.9214 14.5043C20.6842 14.462 20.3904 14.462 19.803 14.462H5.37012C4.78268 14.462 4.48896 14.462 4.25174 14.5043C3.00825 14.7256 2.07847 15.7713 2.00323 17.0334ZM23.1533 16.8544C23.1608 16.9135 23.1663 16.9732 23.1699 17.0334C23.1842 17.2741 23.1502 17.5661 23.082 18.15L22.5348 22.8365C22.5281 22.8933 22.5208 22.9499 22.5129 23.0063H24.8784C26.5755 23.0063 27.9514 21.6291 27.9514 19.9304C27.9514 18.2316 26.5755 16.8544 24.8784 16.8544H23.1533Z" fill="black"/>
<path fill-rule="evenodd" clip-rule="evenodd" d="M13.3111 2.8003C13.7112 3.20071 13.7112 3.84991 13.3111 4.25032C12.9569 4.60493 12.9569 5.17987 13.3111 5.53448C14.4655 6.68992 14.4655 8.56324 13.3111 9.71868C12.9111 10.1191 12.2625 10.1191 11.8625 9.71868C11.4625 9.31827 11.4625 8.66907 11.8625 8.26866C12.2168 7.91405 12.2168 7.33911 11.8625 6.9845C10.7082 5.82906 10.7082 3.95574 11.8625 2.8003C12.2625 2.3999 12.9111 2.3999 13.3111 2.8003Z" fill="black"/>
<path fill-rule="evenodd" clip-rule="evenodd" d="M7.16501 4.85094C7.56503 5.25134 7.56503 5.90055 7.16501 6.30095L7.00642 6.4597C6.6742 6.79225 6.63683 7.3187 6.91872 7.69493C7.81233 8.88757 7.69383 10.5564 6.64073 11.6106L6.48213 11.7693C6.08212 12.1697 5.43355 12.1697 5.03353 11.7693C4.63351 11.3689 4.63351 10.7197 5.03353 10.3193L5.19212 10.1605C5.52434 9.828 5.56171 9.30155 5.27982 8.92531C4.38622 7.73268 4.50471 6.06382 5.55782 5.00968L5.71641 4.85094C6.11642 4.45053 6.765 4.45053 7.16501 4.85094Z" fill="black"/>
<path fill-rule="evenodd" clip-rule="evenodd" d="M20.1397 4.85094C20.5397 5.25134 20.5397 5.90055 20.1397 6.30095L19.9811 6.4597C19.6489 6.79225 19.6115 7.3187 19.8934 7.69493C20.787 8.88757 20.6685 10.5564 19.6153 11.6106L19.4568 11.7693C19.0567 12.1697 18.4083 12.1697 18.0083 11.7693C17.6082 11.3689 17.6082 10.7197 18.0083 10.3193L18.1668 10.1605C18.499 9.828 18.5364 9.30155 18.2545 8.92531C17.3609 7.73268 17.4794 6.06382 18.5326 5.00968L18.6911 4.85094C19.0912 4.45053 19.7396 4.45053 20.1397 4.85094Z" fill="black"/>
</svg>
