<svg width="32" height="32" viewBox="0 0 32 32" fill="none" xmlns="http://www.w3.org/2000/svg">
<path d="M26.9597 12.7334C26.3863 12.0534 25.5597 11.6667 24.6663 11.6667H19.293V8.00004C19.293 5.97337 17.653 4.33337 15.5197 4.33337C14.5863 4.33337 13.7463 4.89337 13.373 5.76004L9.98634 13.6667H7.49301C5.74634 13.6667 4.33301 15.08 4.33301 16.8267V24.52C4.33301 26.2534 5.75967 27.6667 7.49301 27.6667H22.9063C24.3597 27.6667 25.5997 26.6267 25.853 25.1867L27.613 15.1867C27.7597 14.3067 27.5197 13.4134 26.9463 12.7334H26.9597ZM7.49301 25.6667C6.85301 25.6667 6.33301 25.1467 6.33301 24.52V16.8267C6.33301 16.1867 6.85301 15.6667 7.49301 15.6667H9.63967V25.6667H7.49301ZM23.893 24.84C23.813 25.32 23.3997 25.6667 22.9063 25.6667H11.653V14.8667L15.213 6.53337C15.2663 6.41337 15.3863 6.32004 15.6397 6.32004C16.5597 6.32004 17.293 7.06671 17.293 7.98671V13.6534H24.6663C24.973 13.6534 25.2397 13.7734 25.4263 14C25.613 14.2267 25.693 14.52 25.6397 14.8267L23.8797 24.8267L23.893 24.84Z" fill="black"/>
</svg>
