<svg width="32" height="32" viewBox="0 0 32 32" fill="none" xmlns="http://www.w3.org/2000/svg">
<path d="M24.5069 4.33337H9.08025C7.62692 4.33337 6.38692 5.37337 6.13358 6.81337L4.38692 16.8134C4.24025 17.6934 4.48025 18.5867 5.04025 19.2667C5.61358 19.9467 6.44025 20.3334 7.33358 20.3334H12.7069V24C12.7069 26.0267 14.3469 27.6667 16.4803 27.6667C17.4136 27.6667 18.2536 27.1067 18.6269 26.24L22.0136 18.3334H24.5203C26.2669 18.3334 27.6803 16.92 27.6803 15.1734V7.48004C27.6803 5.74671 26.2669 4.33337 24.5203 4.33337H24.5069ZM20.3469 17.1334L16.7869 25.4667C16.7336 25.5867 16.6136 25.68 16.3603 25.68C15.4403 25.68 14.7069 24.9334 14.7069 24.0134V18.3467H7.33358C7.02692 18.3467 6.76025 18.2267 6.57358 18C6.47666 17.888 6.40697 17.7551 6.36996 17.6117C6.33295 17.4683 6.32963 17.3183 6.36025 17.1734L8.10692 7.17337C8.18692 6.69337 8.60025 6.34671 9.09358 6.34671H20.3469V17.1334ZM25.6669 15.1734C25.6669 15.8134 25.1469 16.3334 24.5069 16.3334H22.3603V6.33337H24.5069C25.1469 6.33337 25.6669 6.85337 25.6669 7.48004V15.1734Z" fill="black"/>
</svg>
