<svg width="32" height="32" viewBox="0 0 32 32" fill="none" xmlns="http://www.w3.org/2000/svg">
<path d="M28.9209 6.30703H23.8113C23.4355 6.30733 23.0691 6.18975 22.7636 5.97083C22.4582 5.75191 22.2291 5.44268 22.1086 5.08671L21.6549 3.72281C21.4898 3.22122 21.1705 2.78459 20.7425 2.47522C20.3145 2.16584 19.7998 1.99953 19.2717 2H12.7279C12.1998 1.99931 11.6849 2.16554 11.2569 2.47494C10.8289 2.78435 10.5096 3.2211 10.3447 3.72281L9.891 5.08383C9.77176 5.44115 9.54319 5.75194 9.23762 5.97222C8.93206 6.1925 8.56497 6.31114 8.18828 6.31134H3.07871C2.79314 6.31134 2.51926 6.42478 2.31733 6.62671C2.1154 6.82864 2.00195 7.10252 2.00195 7.3881C2.00195 7.67367 2.1154 7.94755 2.31733 8.14948C2.51926 8.35141 2.79314 8.46485 3.07871 8.46485H4.94509L6.04625 24.9751C6.14063 26.3367 6.74725 27.612 7.74402 28.5443C8.7408 29.4766 10.0537 29.9967 11.4186 30H20.5868C21.9516 29.9967 23.2645 29.4766 24.2613 28.5443C25.2581 27.612 25.8647 26.3367 25.9591 24.9751L27.0545 8.46055H28.9209C29.2065 8.46055 29.4803 8.3471 29.6823 8.14517C29.8842 7.94324 29.9976 7.66936 29.9976 7.38379C29.9976 7.09822 29.8842 6.82434 29.6823 6.62241C29.4803 6.42048 29.2065 6.30703 28.9209 6.30703ZM12.3862 4.39902C12.4104 4.32758 12.4564 4.26551 12.5177 4.22149C12.579 4.17747 12.6525 4.1537 12.7279 4.15352H19.2717C19.347 4.1536 19.4203 4.17716 19.4816 4.22091C19.5428 4.26465 19.5889 4.32641 19.6134 4.39758L20.0671 5.76147C20.1305 5.94881 20.2077 6.13116 20.2982 6.30703H11.7014C11.7921 6.13079 11.8694 5.94794 11.9325 5.76004L12.3862 4.39902ZM23.807 24.8273C23.7507 25.6443 23.3869 26.4096 22.7888 26.969C22.1907 27.5285 21.4029 27.8405 20.5839 27.8422H11.4157C10.5967 27.8405 9.80886 27.5285 9.21079 26.969C8.61271 26.4096 8.24888 25.6443 8.19259 24.8273L7.0986 8.46055H8.18541C8.33768 8.45727 8.48963 8.44528 8.64052 8.42465C8.69966 8.44187 8.76019 8.45388 8.82142 8.46055H23.1782C23.2384 8.45371 23.298 8.4417 23.3562 8.42465C23.5071 8.44528 23.659 8.45727 23.8113 8.46055H24.901L23.807 24.8273ZM19.9479 14.5622V21.7406C19.9479 22.0261 19.8345 22.3 19.6325 22.5019C19.4306 22.7039 19.1567 22.8173 18.8712 22.8173C18.5856 22.8173 18.3117 22.7039 18.1098 22.5019C17.9078 22.3 17.7944 22.0261 17.7944 21.7406V14.5622C17.7944 14.2766 17.9078 14.0027 18.1098 13.8008C18.3117 13.5989 18.5856 13.4854 18.8712 13.4854C19.1567 13.4854 19.4306 13.5989 19.6325 13.8008C19.8345 14.0027 19.9479 14.2766 19.9479 14.5622ZM14.2052 14.5622V21.7406C14.2052 22.0261 14.0918 22.3 13.8898 22.5019C13.6879 22.7039 13.414 22.8173 13.1284 22.8173C12.8429 22.8173 12.569 22.7039 12.3671 22.5019C12.1651 22.3 12.0517 22.0261 12.0517 21.7406V14.5622C12.0517 14.2766 12.1651 14.0027 12.3671 13.8008C12.569 13.5989 12.8429 13.4854 13.1284 13.4854C13.414 13.4854 13.6879 13.5989 13.8898 13.8008C14.0918 14.0027 14.2052 14.2766 14.2052 14.5622Z" fill="black"/>
</svg>
