<svg width="32" height="32" viewBox="0 0 32 32" fill="none" xmlns="http://www.w3.org/2000/svg">
<path d="M30 7.74359C30 8.12442 29.8525 8.48964 29.59 8.75892C29.3274 9.02821 28.9713 9.17949 28.6 9.17949H3.4C3.0287 9.17949 2.6726 9.02821 2.41005 8.75892C2.1475 8.48964 2 8.12442 2 7.74359C2 7.36277 2.1475 6.99754 2.41005 6.72826C2.6726 6.45898 3.0287 6.30769 3.4 6.30769H8.3826C8.67631 6.30747 8.96251 6.2125 9.2007 6.03624C9.43888 5.85998 9.61699 5.61135 9.7098 5.32554L10.1522 3.96431C10.338 3.39223 10.6946 2.89464 11.1715 2.54208C11.6485 2.18951 12.2215 1.99986 12.8094 2H19.1906C19.7788 1.99915 20.3523 2.18832 20.8298 2.54065C21.3073 2.89299 21.6644 3.3906 21.8506 3.96287L22.293 5.32698C22.3859 5.61205 22.5637 5.86004 22.8013 6.03598C23.0389 6.21193 23.3243 6.30697 23.6174 6.30769H28.6C28.9713 6.30769 29.3274 6.45898 29.59 6.72826C29.8525 6.99754 30 7.36277 30 7.74359ZM26.22 12.0944L25.366 25.3046C25.2767 26.5766 24.7223 27.7671 23.8137 28.6378C22.9051 29.5084 21.7094 29.995 20.466 30H11.534C10.2926 29.9959 9.09847 29.5116 8.19009 28.6438C7.28172 27.776 6.72601 26.5887 6.634 25.319L5.78 12.0944C5.77473 11.9979 5.7881 11.9013 5.81933 11.8101C5.85056 11.7189 5.89905 11.635 5.962 11.5631C6.02923 11.4915 6.10963 11.4344 6.19855 11.395C6.28747 11.3555 6.38313 11.3346 6.48 11.3333H25.52C25.6169 11.3346 25.7125 11.3555 25.8014 11.395C25.8904 11.4344 25.9708 11.4915 26.038 11.5631C26.101 11.635 26.1494 11.7189 26.1807 11.8101C26.2119 11.9013 26.2253 11.9979 26.22 12.0944ZM14.6 16.359C14.6 15.9782 14.4525 15.6129 14.1899 15.3436C13.9274 15.0744 13.5713 14.9231 13.2 14.9231C12.8287 14.9231 12.4726 15.0744 12.2101 15.3436C11.9475 15.6129 11.8 15.9782 11.8 16.359V23.5385C11.8 23.9193 11.9475 24.2845 12.2101 24.5538C12.4726 24.8231 12.8287 24.9744 13.2 24.9744C13.5713 24.9744 13.9274 24.8231 14.1899 24.5538C14.4525 24.2845 14.6 23.9193 14.6 23.5385V16.359ZM20.2 16.359C20.2 15.9782 20.0525 15.6129 19.7899 15.3436C19.5274 15.0744 19.1713 14.9231 18.8 14.9231C18.4287 14.9231 18.0726 15.0744 17.8101 15.3436C17.5475 15.6129 17.4 15.9782 17.4 16.359V23.5385C17.4 23.9193 17.5475 24.2845 17.8101 24.5538C18.0726 24.8231 18.4287 24.9744 18.8 24.9744C19.1713 24.9744 19.5274 24.8231 19.7899 24.5538C20.0525 24.2845 20.2 23.9193 20.2 23.5385V16.359Z" fill="black"/>
</svg>
