<svg width="32" height="32" viewBox="0 0 32 32" fill="none" xmlns="http://www.w3.org/2000/svg">
<path fill-rule="evenodd" clip-rule="evenodd" d="M7.14443 11.4162C4.00438 12.4853 2 14.111 2 15.9318C2 17.6191 3.72141 19.139 6.47283 20.2035L4.59979 23.3181C4.30143 23.8143 4.46268 24.4578 4.95994 24.7555C5.4572 25.0531 6.10217 24.8923 6.40052 24.3962L8.50052 20.9042C8.50894 20.8902 8.51697 20.8761 8.52464 20.8618C10.4096 21.3585 12.5991 21.6728 14.9501 21.7455V25.9524C14.9501 26.5309 15.4203 27 16.0001 27C16.58 27 17.0501 26.5309 17.0501 25.9524V21.7455C19.4012 21.6728 21.5906 21.3584 23.4756 20.8618C23.4833 20.8761 23.4914 20.8902 23.4998 20.9042L25.5998 24.3962C25.8981 24.8923 26.5431 25.0531 27.0404 24.7555C27.5377 24.4578 27.6988 23.8143 27.4005 23.3181L25.5274 20.2035C28.2787 19.1389 30 17.6191 30 15.9318C30 14.111 27.9956 12.4853 24.8556 11.4162C24.6811 11.8217 24.3912 12.232 23.9195 12.5593C22.8159 13.3252 20.6218 14.0793 16 14.0793C11.3782 14.0793 9.1841 13.3252 8.08051 12.5593C7.60881 12.232 7.31885 11.8217 7.14443 11.4162ZM17.4 17.5713C17.4 18.3428 16.7732 18.9682 16 18.9682C15.2268 18.9682 14.6 18.3428 14.6 17.5713C14.6 16.7999 15.2268 16.1745 16 16.1745C16.7732 16.1745 17.4 16.7999 17.4 17.5713ZM9 17.5713C9.77319 17.5713 10.4 16.946 10.4 16.1745C10.4 15.4031 9.77319 14.7777 9 14.7777C8.22681 14.7777 7.6 15.4031 7.6 16.1745C7.6 16.946 8.22681 17.5713 9 17.5713ZM24.4 16.1745C24.4 16.946 23.7732 17.5713 23 17.5713C22.2268 17.5713 21.6 16.946 21.6 16.1745C21.6 15.4031 22.2268 14.7777 23 14.7777C23.7732 14.7777 24.4 15.4031 24.4 16.1745Z" fill="black"/>
<path d="M9.07697 10.5948C9.56442 7.42647 12.3083 5 15.6203 5H16.3797C19.6917 5 22.4355 7.42647 22.923 10.5948C22.8783 10.691 22.8124 10.7754 22.7204 10.8392C22.1407 11.2415 20.4657 11.9841 16 11.9841C11.5342 11.9841 9.85932 11.2415 9.27961 10.8392C9.18756 10.7754 9.12162 10.691 9.07697 10.5948Z" fill="black"/>
</svg>
