<svg width="32" height="32" viewBox="0 0 32 32" fill="none" xmlns="http://www.w3.org/2000/svg">
<path fill-rule="evenodd" clip-rule="evenodd" d="M8.66351 10.7986C9.34164 7.48689 12.2105 5 15.6468 5H16.3532C19.7895 5 22.6584 7.48689 23.3365 10.7986C25.1051 11.2891 26.6429 11.9643 27.7916 12.797C29.0492 13.7087 30 14.9359 30 16.4349C30 17.5511 29.4666 18.5243 28.6858 19.3128C27.9087 20.098 26.8342 20.7591 25.585 21.2928C25.5718 21.2984 25.5585 21.3041 25.5453 21.3097L26.641 23.5527C26.8824 24.0465 26.6869 24.6473 26.2044 24.8944C25.7219 25.1415 25.1352 24.9413 24.8938 24.4473L23.6844 21.9716C21.7315 22.5503 19.4355 22.9093 16.9767 22.9848V26C16.9767 26.5523 16.5394 27 16 27C15.4606 27 15.0233 26.5523 15.0233 26V22.9848C12.5645 22.9093 10.2684 22.5503 8.31565 21.9716L7.10612 24.4473C6.86481 24.9413 6.27807 25.1415 5.79562 24.8944C5.31317 24.6473 5.11768 24.0465 5.359 23.5527L6.45479 21.3097C6.44149 21.3041 6.42821 21.2984 6.41496 21.2928C5.16584 20.7591 4.09129 20.098 3.31414 19.3128C2.53348 18.5243 2 17.5511 2 16.4349C2 14.9359 2.95078 13.7087 4.20839 12.797C5.35713 11.9643 6.89488 11.2891 8.66351 10.7986ZM8.59964 12.8984C7.24219 13.3231 6.13488 13.8511 5.33724 14.4293C4.3122 15.1724 3.95349 15.8743 3.95349 16.4349C3.95349 16.8556 4.14884 17.3464 4.68622 17.8892C5.22708 18.4356 6.05975 18.9737 7.16737 19.4471C9.3784 20.3919 12.5006 20.9999 16 20.9999C19.4993 20.9999 22.6215 20.3919 24.8326 19.4471C25.9403 18.9737 26.773 18.4356 27.3138 17.8892C27.8512 17.3464 28.0465 16.8556 28.0465 16.4349C28.0465 15.8743 27.6879 15.1724 26.6628 14.4293C25.8651 13.8511 24.7577 13.3231 23.4003 12.8984C23.3088 13.1934 23.1319 13.4983 22.8092 13.7281C22.0263 14.2856 20.2268 15 16 15C11.7732 15 9.97368 14.2856 9.19075 13.7281C8.86804 13.4983 8.69123 13.1934 8.59964 12.8984ZM10.4664 12.1849C10.9705 12.4602 12.4241 13 16 13C19.5759 13 21.0295 12.4602 21.5336 12.1849C21.4712 9.31049 19.1757 7 16.3532 7H15.6468C12.8242 7 10.5288 9.31049 10.4664 12.1849Z" fill="black"/>
<path d="M17.3023 18C17.3023 18.7364 16.7193 19.3333 16 19.3333C15.2807 19.3333 14.6977 18.7364 14.6977 18C14.6977 17.2636 15.2807 16.6667 16 16.6667C16.7193 16.6667 17.3023 17.2636 17.3023 18Z" fill="black"/>
<path d="M10.7907 16.6667C10.7907 17.4031 10.2076 18 9.48837 18C8.76912 18 8.18605 17.4031 8.18605 16.6667C8.18605 15.9303 8.76912 15.3333 9.48837 15.3333C10.2076 15.3333 10.7907 15.9303 10.7907 16.6667Z" fill="black"/>
<path d="M23.814 16.6667C23.814 17.4031 23.2309 18 22.5116 18C21.7924 18 21.2093 17.4031 21.2093 16.6667C21.2093 15.9303 21.7924 15.3333 22.5116 15.3333C23.2309 15.3333 23.814 15.9303 23.814 16.6667Z" fill="black"/>
</svg>
