<svg width="32" height="32" viewBox="0 0 32 32" fill="none" xmlns="http://www.w3.org/2000/svg">
<path d="M19.7917 20.3259C21.2414 20.3259 22.4167 21.5725 22.4167 23.1104V24.9692L22.4075 25.1034C22.0449 27.7347 19.8168 29 16.0779 29C12.3525 29 10.0889 27.7492 9.60021 25.1481L9.58333 24.9667V23.1104C9.58333 21.5725 10.7586 20.3259 12.2083 20.3259H19.7917ZM19.7917 22.1822H12.2083C11.7251 22.1822 11.3333 22.5978 11.3333 23.1104V24.8682C11.6598 26.3538 13.1424 27.1437 16.0779 27.1437C19.0133 27.1437 20.4294 26.3623 20.6667 24.8964V23.1104C20.6667 22.5978 20.2749 22.1822 19.7917 22.1822ZM20.9508 12.8991L27.375 12.9005C28.8247 12.9005 30 14.1472 30 15.685V17.5438L29.9908 17.678C29.6283 20.3093 27.4001 21.5746 23.6613 21.5746L23.2939 21.5705C22.9497 20.6874 22.3176 19.9643 21.5222 19.5307C22.1229 19.6556 22.8344 19.7183 23.6613 19.7183C26.5967 19.7183 28.0127 18.937 28.25 17.471V15.685C28.25 15.1724 27.8582 14.7568 27.375 14.7568H21.25C21.25 14.1054 21.1446 13.4802 20.9508 12.8991ZM4.625 12.9005L11.0492 12.8991C10.8877 13.3833 10.7876 13.8982 10.7587 14.4334L10.75 14.7568H4.625C4.14175 14.7568 3.75 15.1724 3.75 15.685V17.4428C4.07642 18.9284 5.55906 19.7183 8.49459 19.7183C9.22034 19.7183 9.85321 19.6705 10.3984 19.5765C9.63914 20.0138 9.03729 20.7187 8.70407 21.5716L8.49459 21.5746C4.76921 21.5746 2.50552 20.3238 2.01687 17.7228L2 17.5414V15.685C2 14.1472 3.17525 12.9005 4.625 12.9005ZM16 10.4254C18.2552 10.4254 20.0833 12.3646 20.0833 14.7568C20.0833 17.149 18.2552 19.0883 16 19.0883C13.7448 19.0883 11.9167 17.149 11.9167 14.7568C11.9167 12.3646 13.7448 10.4254 16 10.4254ZM16 12.2817C14.7113 12.2817 13.6667 13.3899 13.6667 14.7568C13.6667 16.1238 14.7113 17.232 16 17.232C17.2887 17.232 18.3333 16.1238 18.3333 14.7568C18.3333 13.3899 17.2887 12.2817 16 12.2817ZM23.5833 3C25.8385 3 27.6667 4.93926 27.6667 7.33147C27.6667 9.72367 25.8385 11.6629 23.5833 11.6629C21.3282 11.6629 19.5 9.72367 19.5 7.33147C19.5 4.93926 21.3282 3 23.5833 3ZM8.41667 3C10.6718 3 12.5 4.93926 12.5 7.33147C12.5 9.72367 10.6718 11.6629 8.41667 11.6629C6.1615 11.6629 4.33333 9.72367 4.33333 7.33147C4.33333 4.93926 6.1615 3 8.41667 3ZM23.5833 4.85634C22.2947 4.85634 21.25 5.9645 21.25 7.33147C21.25 8.69844 22.2947 9.80659 23.5833 9.80659C24.872 9.80659 25.9167 8.69844 25.9167 7.33147C25.9167 5.9645 24.872 4.85634 23.5833 4.85634ZM8.41667 4.85634C7.128 4.85634 6.08333 5.9645 6.08333 7.33147C6.08333 8.69844 7.128 9.80659 8.41667 9.80659C9.70533 9.80659 10.75 8.69844 10.75 7.33147C10.75 5.9645 9.70533 4.85634 8.41667 4.85634Z" fill="black"/>
</svg>
