<svg width="32" height="32" viewBox="0 0 32 32" fill="none" xmlns="http://www.w3.org/2000/svg">
<path d="M20.375 20.3259C21.5026 20.3259 22.4167 21.2955 22.4167 22.4916V24.9692L22.4075 25.1034C22.0449 27.7347 19.8168 29 16.0779 29C12.3525 29 10.0889 27.7492 9.60021 25.1481L9.58333 24.9667V22.4916C9.58333 21.2955 10.4974 20.3259 11.625 20.3259H20.375ZM20.9512 12.9004L27.9583 12.9005C29.0859 12.9005 30 13.8701 30 15.0662V17.5438L29.9908 17.678C29.6283 20.3093 27.4001 21.5746 23.6613 21.5746L23.465 21.5726C23.105 20.2077 21.9629 19.1893 20.5836 19.0954L20.375 19.0883L19.2991 19.0892C20.4891 18.0683 21.25 16.5068 21.25 14.7568C21.25 14.1059 21.1447 13.481 20.9512 12.9004ZM4.04167 12.9005L11.0488 12.9004C10.8553 13.481 10.75 14.1059 10.75 14.7568C10.75 16.4039 11.424 17.8839 12.4955 18.9035L12.7009 19.0892L11.625 19.0883C10.1524 19.0883 8.91157 20.1407 8.53434 21.5751L8.49459 21.5746C4.76921 21.5746 2.50552 20.3238 2.01687 17.7228L2 17.5414V15.0662C2 13.8701 2.91409 12.9005 4.04167 12.9005ZM16 10.4254C18.2552 10.4254 20.0833 12.3646 20.0833 14.7568C20.0833 17.149 18.2552 19.0883 16 19.0883C13.7448 19.0883 11.9167 17.149 11.9167 14.7568C11.9167 12.3646 13.7448 10.4254 16 10.4254ZM23.5833 3C25.8385 3 27.6667 4.93926 27.6667 7.33147C27.6667 9.72367 25.8385 11.6629 23.5833 11.6629C21.3282 11.6629 19.5 9.72367 19.5 7.33147C19.5 4.93926 21.3282 3 23.5833 3ZM8.41667 3C10.6718 3 12.5 4.93926 12.5 7.33147C12.5 9.72367 10.6718 11.6629 8.41667 11.6629C6.1615 11.6629 4.33333 9.72367 4.33333 7.33147C4.33333 4.93926 6.1615 3 8.41667 3Z" fill="black"/>
</svg>
