<svg width="32" height="32" viewBox="0 0 32 32" fill="none" xmlns="http://www.w3.org/2000/svg">
<path fill-rule="evenodd" clip-rule="evenodd" d="M13.2 4.5H18.8C24.0797 4.5 26.7197 4.5 28.3598 6.18413C30 7.86828 30 10.5788 30 16C30 21.4211 30 24.1318 28.3598 25.8158C26.7197 27.5 24.0797 27.5 18.8 27.5H13.2C7.92026 27.5 5.28041 27.5 3.6402 25.8158C2 24.1318 2 21.4211 2 16C2 10.5788 2 7.86828 3.6402 6.18413C5.28041 4.5 7.92026 4.5 13.2 4.5ZM17.75 11.6875C17.75 11.0921 18.2201 10.6094 18.8 10.6094H25.8C26.3799 10.6094 26.85 11.0921 26.85 11.6875C26.85 12.2829 26.3799 12.7656 25.8 12.7656H18.8C18.2201 12.7656 17.75 12.2829 17.75 11.6875ZM19.15 16C19.15 15.4046 19.6201 14.9219 20.2 14.9219H25.8C26.3799 14.9219 26.85 15.4046 26.85 16C26.85 16.5954 26.3799 17.0781 25.8 17.0781H20.2C19.6201 17.0781 19.15 16.5954 19.15 16ZM20.55 20.3125C20.55 19.7171 21.0201 19.2344 21.6 19.2344H25.8C26.3799 19.2344 26.85 19.7171 26.85 20.3125C26.85 20.9079 26.3799 21.3906 25.8 21.3906H21.6C21.0201 21.3906 20.55 20.9079 20.55 20.3125ZM14.6 11.6875C14.6 13.2754 13.3464 14.5625 11.8 14.5625C10.2536 14.5625 9 13.2754 9 11.6875C9 10.0997 10.2536 8.8125 11.8 8.8125C13.3464 8.8125 14.6 10.0997 14.6 11.6875ZM11.8 23.1875C17.4 23.1875 17.4 21.9004 17.4 20.3125C17.4 18.7246 14.8927 17.4375 11.8 17.4375C8.7072 17.4375 6.2 18.7246 6.2 20.3125C6.2 21.9004 6.2 23.1875 11.8 23.1875Z" fill="black"/>
</svg>
