<svg width="32" height="32" viewBox="0 0 32 32" fill="none" xmlns="http://www.w3.org/2000/svg">
<path fill-rule="evenodd" clip-rule="evenodd" d="M12.093 8.44286C10.1151 8.44286 8.51163 10.061 8.51163 12.0571C8.51163 14.0533 10.1151 15.6714 12.093 15.6714C14.071 15.6714 15.6744 14.0533 15.6744 12.0571C15.6744 10.061 14.071 8.44286 12.093 8.44286ZM10.4651 12.0571C10.4651 11.1498 11.194 10.4143 12.093 10.4143C12.9921 10.4143 13.7209 11.1498 13.7209 12.0571C13.7209 12.9645 12.9921 13.7 12.093 13.7C11.194 13.7 10.4651 12.9645 10.4651 12.0571Z" fill="black"/>
<path fill-rule="evenodd" clip-rule="evenodd" d="M12.093 16.3286C10.5358 16.3286 9.07763 16.6449 7.97267 17.2026C6.92615 17.7307 5.90698 18.6425 5.90698 19.9429L5.90681 20.025C5.90482 20.6957 5.90146 21.8252 6.96216 22.6001C7.45437 22.9595 8.10387 23.1889 8.90843 23.335C9.72045 23.4825 10.761 23.5571 12.093 23.5571C13.425 23.5571 14.4656 23.4825 15.2776 23.335C16.0822 23.1889 16.7316 22.9595 17.2239 22.6001C18.2845 21.8252 18.2813 20.6957 18.2792 20.025L18.2791 19.9429C18.2791 18.6425 17.2599 17.7307 16.2133 17.2026C15.1084 16.6449 13.6503 16.3286 12.093 16.3286ZM7.86047 19.9429C7.86047 19.7915 8.00743 19.3892 8.8463 18.9658C9.62675 18.5721 10.7733 18.3 12.093 18.3C13.4128 18.3 14.5592 18.5721 15.3397 18.9658C16.1785 19.3892 16.3256 19.7915 16.3256 19.9429C16.3256 20.7373 16.2754 20.8592 16.0784 21.0031C15.9195 21.1191 15.5922 21.2748 14.9317 21.3948C14.2786 21.5133 13.3657 21.5857 12.093 21.5857C10.8204 21.5857 9.90746 21.5133 9.25436 21.3948C8.59382 21.2748 8.26656 21.1191 8.10761 21.0031C7.91059 20.8592 7.86047 20.7373 7.86047 19.9429Z" fill="black"/>
<path d="M25.1163 16.9857C25.6557 16.9857 26.093 16.5444 26.093 16C26.093 15.4556 25.6557 15.0143 25.1163 15.0143H19.907C19.3676 15.0143 18.9302 15.4556 18.9302 16C18.9302 16.5444 19.3676 16.9857 19.907 16.9857H25.1163Z" fill="black"/>
<path d="M26.093 12.0571C26.093 12.6015 25.6557 13.0429 25.1163 13.0429H18.6047C18.0652 13.0429 17.6279 12.6015 17.6279 12.0571C17.6279 11.5128 18.0652 11.0714 18.6047 11.0714H25.1163C25.6557 11.0714 26.093 11.5128 26.093 12.0571Z" fill="black"/>
<path d="M25.1163 20.9286C25.6557 20.9286 26.093 20.4872 26.093 19.9429C26.093 19.3985 25.6557 18.9571 25.1163 18.9571H21.2093C20.6699 18.9571 20.2326 19.3985 20.2326 19.9429C20.2326 20.4872 20.6699 20.9286 21.2093 20.9286H25.1163Z" fill="black"/>
<path fill-rule="evenodd" clip-rule="evenodd" d="M13.3219 4.5H18.6781C21.0715 4.49997 22.9672 4.49996 24.4508 4.70127C25.9776 4.90843 27.2135 5.34493 28.1882 6.32849C29.1627 7.31206 29.5952 8.55925 29.8006 10.1001C30 11.5974 30 13.5105 30 15.9257V16.0741C30 18.4895 30 20.4026 29.8006 21.8998C29.5952 23.4407 29.1627 24.688 28.1882 25.6716C27.2135 26.655 25.9776 27.0915 24.4508 27.2988C22.9672 27.5 21.0715 27.5 18.6782 27.5H13.3219C10.9285 27.5 9.03279 27.5 7.54918 27.2988C6.02231 27.0915 4.78647 26.655 3.81185 25.6716C2.83724 24.688 2.40471 23.4407 2.19944 21.8998C1.99996 20.4026 1.99997 18.4895 2 16.0741V15.9259C1.99997 13.5105 1.99996 11.5974 2.19944 10.1001C2.40471 8.55925 2.83724 7.31206 3.81185 6.32849C4.78647 5.34493 6.02231 4.90843 7.54918 4.70127C9.03281 4.49996 10.9285 4.49997 13.3219 4.5ZM7.80948 6.65511C6.49922 6.8329 5.74433 7.16628 5.19317 7.7225C4.64202 8.27872 4.31167 9.04054 4.1355 10.3628C3.95556 11.7135 3.95349 13.4939 3.95349 16C3.95349 18.5061 3.95556 20.2865 4.1355 21.6372C4.31167 22.9594 4.64202 23.7213 5.19317 24.2775C5.74433 24.8337 6.49922 25.1671 7.80948 25.3448C9.14783 25.5265 10.912 25.5286 13.3953 25.5286H18.6047C21.0879 25.5286 22.8522 25.5265 24.1906 25.3448C25.5007 25.1671 26.2557 24.8337 26.8068 24.2775C27.358 23.7213 27.6884 22.9594 27.8644 21.6372C28.0444 20.2865 28.0465 18.5061 28.0465 16C28.0465 13.4939 28.0444 11.7135 27.8644 10.3628C27.6884 9.04054 27.358 8.27872 26.8068 7.7225C26.2557 7.16628 25.5007 6.8329 24.1906 6.65511C22.8522 6.47352 21.0879 6.47143 18.6047 6.47143H13.3953C10.912 6.47143 9.14783 6.47352 7.80948 6.65511Z" fill="black"/>
</svg>
